<mxfile host="65bd71144e">
    <diagram id="GzVQyVTbhHp5biwe7CRM" name="Page-1">
        <mxGraphModel dx="896" dy="614" grid="1" gridSize="10" guides="1" tooltips="1" connect="1" arrows="1" fold="1" page="1" pageScale="1" pageWidth="827" pageHeight="1169" math="0" shadow="0">
            <root>
                <mxCell id="0"/>
                <mxCell id="1" parent="0"/>
                <mxCell id="2" value="" style="shape=image;verticalLabelPosition=bottom;labelBackgroundColor=default;verticalAlign=top;aspect=fixed;imageAspect=0;image=data:image/png,iVBORw0KGgoAAAANSUhEUgAAAmwAAAGrCAYAAAB9kMu0AAAgAElEQVR4nOydd7wkVZm/n/ecqu6+YfIMTGaAITooOQkGBMzrqquYVl0BA+aACiKy/swJwy7mdVcxZ0RXWAwgOQdhZogTmJzunZu6u6rO+/vjVHW4YQKMTOA88+m53dVdVeecqur69puO/OFPNymBXQIZ9lwAg2IAEUGc4v8B4agFArs/0nrdy7A3w7UeCOxIpO0SG+V628WvNcGaXbyJTzKKo9FyLhXirfnFreE7PBDYA5CW/xFGEWfhWg8EdhSyxWtt17/aRMwu3sInMW3nVMtR2tV/BQQCge1Dhv/YzwnXeiCw4xntetsdrjWRYHDf5XmyHiDJryptuZJEZJtfFxdl64UosuXXuwqPpe+7Crtz2wOBQGBXJQpfmYE9ldH0wPBlu7JmGC5otvZ6V2Z3bnsgEAjsCkQ7uwGBwFgMv6nLMDv21l8X23lsr3cmY/W9aT3c8utdid257YFAILCrYHZ2AwKBQCAQCAQCW2aMXIlAYOcz3GK2/Ty+U3tnGnwef98fO4/X0vV42x4sbYFAIDCSYGELBAKBQCAQ2MUJgi3w5CIvaqc7z4C1CxMsW4FAILCrEpIOAns8qoAxYMrAEGQGrINsZ7ds10FFEPQx+YGl5a8btmy72/EY1wsEAoE9nWBhC+zxRJFFxk9jxqs/BBp5VRCUAVAMhQERVEBUsFiMGD8d2iiPVopZONRAqfFaEeUxPwKBQCAwkiDYAnswfqLGLMsgybAveRUWi4h77CagPQwBYo0xLhdMlIEORKNtGqJG1pItU40qfuoU3fWneAkEAoHdjSDYAns2uW5QFVQn4ohQC6S5dUlpmax1Z7LzGpCIEk2dj0o3SoKQ+vaoQQCjY7fOAWKE8fvM56kve4V3PefLNf8HxWEIXzeBQCDwWAnfoIE9gsIVV9h1ZERWgZAKGDLiVDB0Av4CMIU7Ll8i+WPHt2/4i+aeBJNfjXlPTBktT0LLE9DhZTLEOzJFBBVF5XH6eCvdzHzZW5n+lotwE/fGkQCCE4uoblVKOgfVoYTx+x+CZmlzeUuvnYBiyUw3YFtcqztdKQcCgcBuQRBsgT0CRX3mpyksQqYhF/xDSE1EhpKIIgxigQpQUr+OF255CqnuOLObASwteswULwwRlhhBcLnmKgElug4/hSO/ehmzz/oIxBVaBZkiiFrUOci9uz7+SzGP4SG1DSz5rw+STprA+ONORSUikzqYLB+5rcWWKeqA0gzEdmAwSKPHguaddmJ51ge+iJoSBsWgCHaHi+NAIBDYEwlZooHdHkWbqigzZKYCVBFt/iIpPJ8FghdqETAIpHEH2A5stRcQVDK/1g4IxfJyRUhQrBoyLYH1ralnCvm+rAq21EF9zonMOOcsbv/E+4iW3UOkNVL1vfCWKYMjQsw4zL6z0BVrUeNFpprHIDJTRXCs/84lPOWcj7Lw/g3oo9dD1oMfQS+uUG8pG7WP6ohEwEaQDTW+WDLyddRbENcmvdgJU0h7VhKR4chySRgIBAKBLREEW2C3ofByGiW32igqMdYoYoW0LNjKDPY79nTW33ElPSuXjrEhH2OV4AVFaoFxMad//rtceeZLqWBBlTqF0DPDEkvHdkGONnVILseAlEyUZ1/wcabMP4xVf1/Idd+4GKqrkTpgy0SHHMecV7+ZB895HWRVUtoDyPwsABmIonsfiB5zGhw3AaItBJptlRjKZY494dmkaYXDP3gB93z+/SSP3EpmEtRBPErPBYuK8QtcJ6l04OoCURdZ2UE5gr46JIn/vO2Aekp5ynQG+1ZDmuHEYdU+1oYHAoHAk4Yg2AK7D+IrfRlnSaUDIgPRJFxHmRmHHcZhr3oFNz6wkQd+fAn09iJiQLNR9ZUDnM3lVVTm2Z/9Fld+8pMYoI5rESVF8DwtS8ywDbZKubGFnDNgnOUvn/kqRIbSkSdxxKe+zt1f/izZo4uxBx7B/Decyz0ffQ3UBwDBqGDE5aLPY/KhyFbdQ8dPFpHhckE4fI8jWzWyKIdiSMhQ/v6tCtVoPG5cJ8++4BP85SPnQrIGZ5TMmYaVzccKCkoZSl3ARJJJB7KpexaVp57KPicez/wTDqXbJtzzg59z3xU/923IhIGHltM9fS79D9/uy4iMPDSBQCAQGIUg2AK7LCPmlMxisHVSlFmnvBI58ABOOuBA7hlKuPfSX7LynR+EbCXEpdyqo6B5QdhRdwBMmsOhH/oaf/nqr+l8+EHqGNL8Te9lFZyPMBu2lVZHnhdw2igbO/quCrFj6puJ6wau+xl3LLqWmed/j/7r/sTkw+Zz9wWvxVQV1XyborhhzVcF1GGAIUnyjbdXATa5M7g1U3M0dWTw4tUACVWiNKU+GJNZm3crAs28Ea3osQCUMVNmcvp7P0x/l2XhYJ0+20N1UpXFP/0Gi79Xg3odoixvm4BL6Nuwiq5JEzHGQJYRaWGBLMYzyLdAIBAYjSDYArsFAkQoaZ5QsOLBu0AG+cn3L0YG1hIBmTE+hqs+6Iu8bmF7BnAdk1jw7z/k3lUDmMV/ZLBSAdNFYZJzqjjNo+AaaaTiFU5nBe0oITamXOnAWovYlHTdemprV6OkoCmFAHFkoJLHgA2QUPZxbPVB+m65juj0V7Pk3BdjBgcRIoo5A1RH2uzaDIaPW994yeYwOCmhHTOZ9KyX0L9sNWQ1UItRL9cUQJx3g4pQ6jAsuvZalvz1d5S6JnDke97No7dcjUsG8KpXMJh864Kjjss2o5XZecJDsy9OBKv5+IYpKAKBQGAEQbAFdgu8MzTBOkglJV56G7r0NlIDaoXUCbimqFLVEVX5R2wzHeTeq3/GEc95LYtf/TaedtJJdERlbAKa+fTLIsPRW+pyCWJKDLpeNvUup7+/ytKHHsZtHgBq2OR+dM0mkGzY/tszIVUU2edIDn//Z1hy9Z+o/ef/45gLv8ydF19IsmIxT6SzMLMlyvsezbSTTmOfY47k9l9exu3f/CrUfazc8OmqrDoyO0Tt0YdZtnwFkMGEKQzgUCJICkuc4FIvPC0Qi9Lz4L2Un/4SUomBNE85CNa1QCAQ2BpBsAV2Cxw0ArBEaXFRCjjb+qkxEISSt/QIqFq0VoNf/Ae3X3Elsz/4OW7+5eWkd14N/YN4iaEg+TYb1h98AFl9LR21DRiBsjazUDOByJZI1Y1wZQIYMTiga8HpzH/bB7nzG59HFl2FZsKdv0w58Kx3c9+n34/Wa49jtNr73awePPydXERGncx88atYuvxRHv3Iu6FnBT4lowOjGQZHsxqb8QIuNVgiImOougxXHWLovsVo3dH4Win8wLm7ONM6pjoA02Zi4k6ydAgl8iJYRzqdA4FAINAkxPwGdh9aBFurfmrQqJ2Wz5ApkispRTumM+XSxax/5d5IWiWPJqPhfitNYr+3fwqbreOBr12MMIBqffQGbMcl07SyeXEURREYwyHvv5i7v/8fyIqF3iplHWKUWS87j/rfr2TtvTc9rivTtFj02uLYhr3fXOra3m3+dW3Ren6+0aJUnV9HdJj1sGGRa64neZqCi7o4+LxvseSHX6T2yD0oglGXRwp6x6vbovAOBAKBJydBsAV2X7ZFsJELltJ4Dr/419x97osxA0MYDPUWO11kSqTxOGY9/wxWXPl7TLIelw0NM9oVwsTREoKf72OMJg4TbABGHTZfI5USDgsyhMWQmcmQbfT7eAIE27ZIo5Gu5dxq1hDQYwm2EVsCiemau4COebPZ8LfLQR1WfcqBrwbnWnJ0A4FAIFAQBFtg92VLgk20ERvlZ0GIoDwBW9+IyyIslpRWt6Mi1lBSqJUrSN2gWR3vGhyNbbtsRhdsGVHe3PwZGQ6rgmBJcd4VO6bw2TojBRu0itktR40NK/6xnYJtS2g+q0NFHXXxNfUKa6fmBUNcSDoIBAKBEQTBtrvTZuZptQA9SWjzUkrbgnadkQsUdcNXarxvMTibT7OkgojB5OFYw6dmkoaFTUdsSdWX4nB5ENvweTP9/JxKZvyS2Al1IjCOyAkZ6t2Nj0Ow+aGQZs0ODOJin70q6TZc9VsSbe19lhGfHyvZI88JFaXsIMlF2vDPBJdoIBAIjCQItj0EbzGxFFFAT07aBds/+tTekl1p+49AUYx3B7TZCBiQeBw6cRayZqHfqivne6mPcJHuSLaWnbs1xnapBgKBwJOXMOvy7oyxIAaflRdh8ZItzMy4oyhmaX8iRnQHZkmqYLISpc65zH/nv6Nd+2BUgDoqgkiJcOkHAoHA7oUFLtrZjQhsP8YYRGLUlkFiiCugDqfpMFfVrkOr/Wv32MO2bat9fs3msp1HHguXDDJUr3PM69/K8luvJnYJkOIke3zu1q3t/XFa2AKBQCAwkuAS3c2IpYLBUpOUylGnMvsVZ2DiCj09dYbuuoG+338P0kFECwdpSw2z4Uda/ETdZP3N91sLnm0nMiy4ffhWGiHveS1acQajvs6+4EPwtGNvsCVI+6G6GdkuYTFs/kzdimOy2KnkljQtpJc2prMq3MtFnJbPa2ipa6ZQWKukJXP0H++Q3Rp5/Q1TZvLJL8Uc82zWX3IhZmgN2lpa7h+x5+ASDQQCgR1OsLDtZqiJUC0jh57ErNNexJLf/IT111/PUO+DzJw3g55774a0OrJW6mjGJ2OZ8dxXIJGlvr4HnGv54PY+/P8RENMoO9tY3myL9Z+wRQP9pEUqoAcdzRFnfYAZTz2CE044nkXX/RXU+Unct7ENTbbyWyTfpNESFoOQ5rmKvuRGnOctQkvyKeJFrtGmR1F97GBRZ6w9vWDn0RgxzRhcs4bylH04+J/PYtW9D2AHVze06j9CtQULWyAQCOx4goVtN8OKpevYf2GvU1/Eg5d8DLtpJRIJaTqE6SjjqokvCREZqLtRSl+0PBfLtONfyMQ5+/LAr76FTas4xpwqfRtwRManPlpjSZLmXJpNy1oFTAwMgWagBpM5XOckTvz0f3Pjlz6OW7nQW4fq1cfckqI9Y9IoSWExOGK0Ef+XGwAbBsckf0S5yVIQEpPPrpk14waLcWsdv52V/tEaoeYwYLuIZxzIU878AHf+9H+QRdchps9rdBhunHxcBAtbIBAI7HjC1FS7ESJCJpNZ8Io3cMO3PwebVqAmIssGsSUDQ3XvljR4wdMhfhLudLQboIAKGxfexZwXvBh+48hMCVzS/pmGc6+wojUdn+2f81XP0onz2Pf8L7PkVz+A638+Qi+WFxzDYa95J7f++9uhug7UEVmoz5zPI3/9LW7Z3RBnkBX1KFqD8bcnUH4rN331m1NbYuIL34Q89RQ0Nrk1L7cFKtjEsX7Jctzd11BfejNg/XhmA6ADGOrEWYbi50woKpyNLFW78zAA2QDJyju56yvnc+Invs0jtz6dVd//BMQ1396G7zwQCAQCuyJBsO1GqCrMmc/q+25FH7gNRHFuCGMgq7umlScD7Dhe+aXv8LP3vR/SAdAEjGJIEE3y0qRK1reWTZ0zwcSI1IgRvF3MizDFQVThgDefxyO//CFuzcMoMVgLlWlQGcJsWAuAi7o55H0XsPC3V3DQC/+Jxbf+Fu2YBNVeSIZg0mwOefnZLFm8CnPgycidl/nq9lkC+x7E0KMPEmkdl+RFVEfYf4crih2Q6agZA3fdQLZsuS+H0YK3tBnijm66Z05jyjFn0jV+HBOnTsZ0dJEaS5bVSJIh+gdg9Zp+NvdtJt28AXo3wfq1sLkXalXIapAMQm0QtA6u5i2hFBORiq9K5lJEXe7SbG/PaEI5Q8hw0DXZz6naNRlK43CHHg6dnT4hRS0YB6sWw+03cv0XPsXM934Mbj4eHr4aLQyhOypJNVjIAoFAYIcTBNvuxszpVNeuoOwGqIvxBVZdu3QpA9WsTN+sAzj4kkvpLHdi4pj1K1ex5IsfRZbfCaT+6GfK4KZN4CyqGYnpQJ2f27EhEIzFHPksKjfdRP/ah0A6mfW8V6KnnMo+EzJuOOvfEDtAdOAhrOnrhcVXsdcZz2Rx9yxeeOGF/P7894BT9n7p67n3ij+Qph3MmDmH1XcKTlIvS2wFxWANebart9hteZqipuXvMeEA6lSX3A5Lbh/zYyLCAJaN0gFWvA/URFDp8GNoANNJ1DEJa2MqKpiuLqI504i659I9aQLlzqlM2Gs2ZvIU0o4O77LO5+JUhCQdx8BQSv9gnWqt7kWYFH2EyMbYOKYxPSogToklYnx3hQkd/dTXraR/yf1Uly+n5547ySq5NVTz0i9DvUT/8q/sfcwprPrZJfDQIkgi0GYh3RAjEQgEArsmQbDtbmQOa413TY5iyVCBmgKxwfUOsOijb/bWra4J2PI4Tv7Ax1h1/R958GffBlcHo0QrHqBjn0MYWnIn5dn7UV/Xg/ZvBOoUVq00TZEkj4+La8z9pxdww0XvJn71a2HuQejKezn8jLdx69c/B/09VDSGIcOqR3ugcyYkVWbvv4A1P/0xTJmFPewUXCyQKlkEpL2YaDJ1FyGku5RL0Q+zQ3QQ47yxEhQGN/kPiKIKae6BruUWM/ATva/FgFbAdkKpDLGFWPN5mRSvADuRuIS14mPARPLs1daGNP8UORCZS3k0qUK1B+oJ1GrgMkw6RETSELypKdF19MvYa95R3H/hW2BgVe4HLfbvEy5adhMIBAKBXYgg2HZbRq3TgVXFAEk9JTMCGzfC4AaMWQYOrv/kJ3jmhz7Agz/5EV6QpQzedxezDj+GBx+5h0NPOIGldyxm48Leti0bY3zUfawghgd7OjEbN7D0O9/nsE9dwj0XvJVszmGYNStwNmblAwtBUhbdeAeTXvdhzOr7uev3V2AHV5IlVabMPIPlpgxkkGZwy9844DPf55YNa3AP3wxpMkr/dhZ+OiXNn8b4qd8dPj80UkhRUm1JrkCBBLLiSCUY149NstzR7N2ZzRIizQzTbamjV4g2SzPSzwlgvDPVASkxzgAzD+ApH/0a9Xtu4IEvnIPNenBqWiSx5msEAoFAYFcllDvf3di4Fpk+l2p5b8qVznxhRGzKCEoEpHngfId0QqZ+jkznq4TZ7phaby/EQw0rTc/C28lO/Ccod/PI0qWMW3AAGg/ho6gqiDNESxZjkgowgfjgE9h82aW4pBcG13PAtL2wB5zMXbdcTaSDYGsM9PSB7WJw5SL0accy/VkvIL3nT2Rag1pCh+uCqDuvFQb0reHm897I7FNO44RL/wozDsPG4xAsZQwy6owDRR7naI9/jNjL8BmjGYpDSXHUUNrCwIbtOrdx4UhIcCT4yd4130oxmVhGniOSW+qSMR7F+8UjoyW6zzkkyyiR4aZMZsHXfsn817yRey84mwf+8yKM20ymRTxckQ/r2kYyEAgEArseQbDtbiy5kQ4zwAn/87/Upj0VKnNw0RRq0oHLEwaslrEuZeVQwoQPfo1swSkwZT46+ygO+vhXuO5Ln4AkRa3fpG5eC3fdSTx9NptuuRMWPBNKFRBBTYIywKNLl1B//qsgTdlr7gTMI3d5X6H0c/Uvf8bkV3wQ98c/kJgMk1TJxnXBKc/0pUUmzGDd6o3QtwHBIOrYsGETTJzq3XIOcI5KzxqWf/uT3HDWKzj+019h3hd/hE6eh0+F2Mm1vVqC8lslYSG0RkjELQTxbzW+f2tac1jdXm1dnuvfenkih77n3/n7RR/hwS9+CtY9DJrkZTzyA98Y0ydq+q1AIBAIPFaCS3R3IxMWf/PL8IMfcNxbz2avo4+hopZ46SP86Pz3kckQknkb0G3nnAozZzN+30Ox807GiuOeC9+I9K/CkpEJqMlAhLV/+x9mnXk+S7/wSeKhzcw++U2svPKnYPsgGs/0U15GebCX+w44nsEsQ6fGsM4AGRuu+BWTXvle6HkQQ4Z1sPw7/88XAOnYj67qJjasuJuIDHUWS4Ib6oNJk5GVvlsiQk29I490BTe+46XQMYXnfuYn/N91f8T9/NPI4OAu4yTdlcniDqa+8QMsvu8hWHcPJopwxmCMwTmXK7ztLDQcCAQCgZ1KEGy7I66KVFdy0xcuhI5ucCniUm84yVKUCEMdTeqw7H42P7IwD3iK/WwG4ksvqAPEQmYZWH4/U/9+E8e+8iXc9YefM+NtF2OWLITaBvQ5L2PNfbcw+Isfc8o5b+G6i88jq6aQQAmoD2xg/3su49aeNWQxZFkGdV+bjHQ1k2/5A6xezHpXR4mJqJFa9ZmWFFXcfBC+dZCmQNqD7e/lire9mO43vYPkXy6i9uNPQLJ5Jw36rksj9i2fjUo79mL+cS/mxjefjEVRjcFVcY0aezt6ztVAIBAI/KMJP6t3S0bO1dk2BZVahCwPfs9D0ouQpby4mV8qCFH+KvECqqgbMWkm+yyYT+eEcSxeshy3dBn09oCNsa5KJhGiKbGm1LFgI3yEfdr0DypeEJoYSLBZhsVgUCafeR6rFy+E636DKPm0UL6JDkMqoLFA3WC6pjLnR4tY+prDYHDZKJ1+clNEomUCmJiOo57JEFOwd/4a6gkZ+bFpsPNnOg0EAoHA9hEsbLsl2vL/aG+5luB3N+y91nU1D5fPl7h6/lxgw1KWXrPEvyzF4ARjFOuqfj1XR0VJxeckqquNbIvgp5/KvFjITC4bnLDyl/9FZ/cEhvKPOREy1OtJB6ihVI+pS4ZTkHQjSDJyH4FGLJ1VyOJuTnnzOfz+3W/HJSnFPKdBngUCgcDuTUg62CPZ+u1Z256N9fm8FljiMEmGdQqqaD6PkariF227HDAqlADTs5qhlYubM5cqlNRiNIY4IjaQVCK6Dno2p37jlyw59wwYXL/N+3my4Ku9WQxlMgGpKe7628FtahQL0ZD7GQgEArs9wSUaGIWWGKf8DClMsdr4N+zEGSskqu1Dfpp0IcMMqzbmxKDzTufgiz7Pum7Bakxntc68ZUv46yfejFRX5jF3Y237yYvN/yU2xWbOJ5OULCa1uKzIYR0+cGHwAoFAYHciCLbANrFVnbRNgi2icOBJ458XD04sOmE2UxYczWBSxyL0r1sJSx8C1+/n3wyMiuRxgRlgJLenic0r6RYBhUGwBQKBwO5MEGyBx0dxBm2TYGvPThQkt7QpDuMTF1zhYs1r9Zc6SOo1QknXLdOWhiL537YCbUGwBQKBwO5MSDoIPIGMrex8fkK98RzA2giXBsvattBMJWkd362p6UAgEAjsLgTBFvjHsVUjTi4zJI+N03aDb5oVpSiC4Nh2ZJhlLRAIBAJ7AsElGgjscYw252ogEAgEdmeCYAsEAoFAIBDYxQl12AKBQCAQCAR2cYJgCwQCgUAgENjFCYItEAgEAoFAYBcnCLZAIBAIBAKBXZwg2AKBQCAQCAR2cYJgCwQCgUAgENjFCYItEAgEAoFAYBcnCLZAIBAIBAKBXZwg2AKBQGA7kTBdWiAQeIIJgi0QCDw5kDEe27y6aawgmO1ePxAINBEJF8/2EgRbIBB4EiB+Er5iIj6l/fU2oIVCM/nzMKlfIPCYUQ0X0PYS5hINBHZbDNutOnYKO/9rZvhv+dYWbXPLCotavoLodq6/3RStVrZ3DHf+iAcCgR1NsLAFAqMw2g3+idnTWJ95fP43GeP542dbttb6NSNAxBP91aMIikElgnI3Dpu/jgGbt2fLfTEq4MaBTCJSQQX0H3ZiSEubWp+3fmJL54RgKdy4w7fZ+pDGO1tvS/G8BMR5C0Zv2xOCDPv7ODbz+K+wQOAfT7SzGxAIPGHk9xxxYBEyQIbZIbTlow5/QxbdsRaLxrYERGOUZCtbL0SOg0ghde3viW5x9YZhyMSAQV3tcbS+uHG7vB+tVqCxGqAYLE5K0DUBkgRT3YziUOOPh+Tb9vbClv613UGleUCK/anJ29E6JsNaLIAqrjSV6Sc+k8r4Tmym9GYZ6//8K0hSRDXfom3ri+TWLY27YNxenPim9zJt6jh+f96ZCNlW3Dr5yIuCCpK3cdvPI6Uxzibve2N/QoQhBdQ4vzx/y+R7KlPCSUSVweZOBWy+DUUaR9E09tbSdEC0OHtilBqYTqjMBFeH+hrQGmgxZmlb10VAXfP8FHKBW1wAj+OCskBmCrd0+/lvilETza2gZpRdFQ5uZXiTtOVqbxVxrWfY7mLb3lUQkeAC3QEEwRZ4clB86+YCoUyZGhCRAo4UxbXk/mn+j/weuSN/eRdizd9aBSUGSRDVUffT2hYyBSnRfvsQkCx/mltM2r4b82V778fBz3oJi378RZTsMbffYHHePoXgyNjyjcvYCMks0194Joe/6p955LofsfTr/00t76y/3TdvjTqa9a1NMatfyTXFtIxhsXM4nIJMnsa+7/oSa1evZvUV/w1V4cAv/Cfrb/glNlUsgEpueXONnTkEKe/FIe+5kLWmxPXf+wb0bqSkFgNk0hQpCrgR424aokLbO7FVDIJisSipS4edhApkI7bW+IgYquUpUOtrvpG3o5If/QQplLw/v1qEm+afNyiZGH9+qWXc0Scz/+3vZS8rXHHmayi5lFoyylnbMD82pZBBybSw7KUj19kmmj8TJNPmLlpw0DgxtBB0w9YvlhXPmi0tzqP2s7D4jO+aUFZIUZLge94mgljbMQSXaOBJgShETohTcKabATuF1OxFNZ5E1VbIWr71G5aGFpeLGkFEdkxmU3F3iKahlQlgtva7SYEEbIyZfTQTXvKvSFzJ++UQdVu8aaiAsyXGHXYK6REvQKXzsTVbBK+SEkoomQGo5M63sddxaYYcfDzTXv56rnrji1jynf9CcN5Y5sAQodimUBje9bYEAYdRsCkYt2XLGoCNKjBxDvt/7gcsvf8GBn74SezGxURrFrLhW5+HqiOTTlLxDkQlLeSxb1PHTGa/+TxW3nsP6y9+F3bdfVAqYbHEpN64M+bYOyDzYrLUBZ1T2Z6vXFNY91CYtT9m/OS295NcD7YaHMGfWp3d3Tz9Y5/AWdMUTuKFbYLBYbwQU2/edDByJC1kxvgmRyky62COOus87jjnnWS9dZRLy4oAACAASURBVOiYSD1JG5bD9nUrTHvq8WBjvBm1QrzXfmAngEZj+pIjs23j48gd2Tr8xwkN6544g5jWAWrfZ+O0KoyXFOdT60+39kvL5AtSyiRmKpg4+FEDTxhBsAWeFChCSkzSOZP9z/4AL7zkUp73re9x2jd/yN7/di4y5xgMcZv4EMRfIZ0WLTXvMYVw256HEdMUeyqYmUdw3MXf4/hzPwakY1rXGsSG0gGHM/Edn2TCORdhJnSDJphc6mxpXaMKXdOY+vxXUOpfB1HHdo2diGCMafxKdt17kex/OJ2nvYp9XvY2nOloG5e2cVcgnsas17+Xey54I6RVanUYUkC9UEsRnIAz7ffx1kirSJuRb04islInrtSBFzSuYYUcfu92znHoez/Nki9/HPnNt2GwB9crOBfR87f/QybO5umf+yZd+xxFnTKZl5IoihNh+lnnUR3YTO8V38fW6mQdcOj5n8YZR10gIxc7owg3r6cUNTDhxBOJX3RGLpXyfm1R/AsOhyXFWIVjn09l+gHtW7fjkHgqVuM8Xq2536Rao2fy7Pwb3iKaR7yZcaQzjoR5z0YmjkM6KiPEvuCFdDxhKjztGb5zUuGgM8/hrxe8G9IatnsymBiDRSQFk7RvJIrZ73Wvhs6yl+P7H8WhF/8cps0AqY6isprHq3ndgI2iYeeUIBLhpERajnCm7AVhSyyeqHfFRpP3BTeepgYcLixz26xGiBqcQLTXLKhMJmrs0lBGqOTbz2ILE6dgjzmNY7/2C+K95411AAOBHU5wiQb2TFq/4xXEWMpPOYEDX/AGHlhxLw996GyQIXDj4chTOOqz3+K2156I0VruvBIidWgK6fQZHHLqC1j8/e+MIgm2DaNeVmUd45hw1DOYdcbruemn3+P4F7wQU54IQ+sZxcbR7IuJOfTEF7Pw+msYcn1kmzdjSmWkXhszlkZEcM6hpS4mn/Ya1i+8g/1YA10TiXrWjm5VaRk7MQaNJrHPac9n5d+uoC5l5p54PPNPfRkPuk5WPvQwy5beDiYDN8w3JYqoRUtdHPDGD9F/+58pbXiQBArVBc6BUVxbDF7u47TddB94FGD8/Th/30aGOUcdwbynHsnvPvQehGqLc6v422IdsR3Mm9HNfQ/eD6nmIirBmRI6+ziOueAirvvRN2Htg95k57yPKzIG5p9AZe5slvz7pzCJIFJGphxAbb8jcQJJi2dvtPH3LRGMg/oDy0kmHNT2C7m09xwOOfY4Fv3hNyRpksdUgoih6LRDfJuMQZ1rDJ1VJTvtlUyzEWsvvxRLu2DSzCEyPg8fywALXZOY+/KzmXT46WyUErXff5rVf/o9eTrGiD4kaQmOPRlzxzW4yiSmH7SARWsfgWgK9XoCWNTEqLqRAsyBTSogZdKS5bjXvosNg8aLPbxnv4gTbY2ii62lfMxz2HzrXzBZHWdKzH7Bv/Do1Veh/X0Ql2DK/sw/4Wk89eQjueKiz5L0rKKuKYWLWDCIdPPiT36W3773A2TVnma7bOTPu6K3ojhNiRSwwtTn/QtRzbD6518BVSr7HIQdPwtJhZLrY6+jFzD7uNN5dFPKzfctJ5YSRse8cgOBHUoQbIE9kxb9YMSiUTdzP3Yxf3/v62H5vWC9SLBuJdk1a9n37FdzWymCpA7OSzbF58PpxENZXTnoccVhlCLLoJZ51nlfYUXfAPed/6/Ek+fgNp+GVvsa7q/RUTRz3Pmnv7DvOz7Mim+ch9QT0Hr+7ug457DWEu3zNOIDjmbj1y/k4WedROX5r6B842/pX7oIcenI9QtDIA4WPIvk6JfAss2c+Oazuf4XP2TZp94NvRupZBFll9FfxLEV90B8sLfaMtHMg4kOOZhVH/4Eph6B1vNAdgXjrU9F0LgAuBjIUCNsPuBIGNgIHZ3edZc5SKr0/PEaouOeCxIxLLitGK2WVzUGxECpG7IBbJqRGkN08HEsOPM8bn7ny6He04jlIj/yjgrT/vndLPnkOcTpEGLATduXWa9/O9X+ld4NmMUwTCgNH0glRgBXiqEUtx3h6qS59O13ApWZD1CZOoMsiqj19VFb9TBx7zpSzVBxgIEkwYohEkMdJULJJk4lHewDSb2FL4/vL4bUSZ4MYASNKsx71+dZ/udfseSn32HcvIOZOnd/cBYlGXEOWCBNLKRlnDiMc9z6Pz8gimukZoAuDNTAaQmoDw/eA7Xe9VnZm4kveSUPX3MZc099NYzfB5kwifHTJmE3b2DTfXejpI1ECeeUued8gnvPPh1N6xiN6Zl9EnPe9c+kD93OvKceQM+A5b5ff4cHL/sdpt6Xp160SyY1ETUxqKnl2Q95BKEt0f2iNxAPrGHTVb/w7RQhtYrJlNWX/57nfvSzPPrr/4J6L4N7z4AZh0IqWFen98+38sCvfgVDm+DlH4JkMHhEA08YQbAF9kyK+4eAyzI69pvD+qv+hKxf7MPth9/nVaBwhxrvn3MoVRGmzNybdXfc0FAkjyWOraoJTNyXe675Mxuu+TFQozT/6ay+8XrEOkjHFmxGwaUpE592CNW7rkVW3EakWSPWbizBJiJkWcbBRx3OGjfA6ed9mIXazfI1m6lO2BvMQqRhGWu300kRFrf3FNavWc3817yF6z90DgyszK0xSl0y6sOiyATFCIiBrBIz55Wv45H/+hzUN+E0JsoFTEaGw+9EvHbLBZNFcNhkM8llX8rdYuCyXBMolA5/DmseuRfS3pFDNnww0pSrf/hTjr3wYhb/8Tf03nItXYcew96nn8ad578Jkv7CrEVh7ylEz7h9ZrK2v49E6kR77cWCD3+eRd/9EnPOnAvq84xHOqOHB7hbb+GyPrCq7dNSpk6JvriLdMocsJZowYHMra1k2c+/6s+JIshqYz/lSRPot2DSfC9R1NinSvOElvw/Z6uIpChC134HEPf3k91yJZBQ7hrnrX80jIrt5w60+Xi1bw39V3wXUGTiTHrjMtR6QKuMmv1qK2yMKnQ+7wwmTJ/L0hv/QldXhblvfSdu1XIefeB2bKoI5Txu0Cc2WMCIyc8k0LTGRB2ib96RbPrJN1n5u+8SD2ykpEoSCS7K8munpa0Ux9O/kEggUZSYCU97JuWnPZdNf/t+ftoLEINm/pEMwMQJ0DUBk/Sit/8ZkT9TSsFKTOIEjWIv060FzYJgCzxhBMEW2DPJhYD/PjZMnNAB991CVsvfHE5+0/buKH+jdWIgMkyYMYN1d/y+uentFG6+GoODjffT8+cHEc2gNIM5L3k9i889gyglT3poEUzDbgOmq4t9XvMGFn/1s9TGHwBSh8GlRGSkWBpZosO7JcK9l/8MKn/lqr61mPlHMvfYU9hw558YEnCU8s63lBbRRhImrmToft5LWHjWC5CBFahJ8zh1i2qWW7NGBmi7SIgmzCHqKlNdfEPubqyRqs9+BM1FWpHQl9+gyXyovgoG9ZajejEiQiYlZh1xPA/95FLIBjFq8jXGGnyHufZybr7jTg4+95Mw+1imPv00HvrAqZRq66iT5TUaipZ7IZaVhL5Sgpt3FJThoFe/jUd+/D2qi//u0wAEVBzi2sOAVYcfh7ZfBe1H1dUxbpDooZvIHroOa8ukE2Yw/c1nssxpi3dX4O8PsNfLjmHDXVf5hM0tGHsl704RSA9KWTKW/fY/iLIaSJlEMlJVn5QwyvC1iR7ySyKPg4um7M8dvQrTumHtemw2Ss6nRGzonkX9yNn03nIVR7z17WyeNpclF7wRWXITxjhMpliEOjGCQTVFBB8vKQaIEZOw/Cf/wd6DGVO6YUN1Nc75YhyaKcXPLC2SM4ZjDVp1vivlaRx29rlc967XINXV/leFAOqINC/9kQ6xZuNmmLEfbFrmLZUOagqiGUKFLMsQEUpz55JkYVbZwBNHSDoI7JE0yoIqoHlAesMKkccFaRmHguSB3VmaW3Hyz4mCxESlbqgOPea2+DZYEFDJoNzJgre+jzU/uQRN+0jJ8kD3pp3LNTLXfK0sHapy1zteTce++3L0v57Dqe//LN0nvYq0ey5bS1Mz1R7oWQjJetKhjXSML5ERESkYUgzDrAT5fS+2hrnljO4bL2fa8c9Bc5deQ6zkkUfS1nL18UAas8+pL2Dd734NWvIZkl1ToXMCGpuGZdAPt++jE8GZYhyETCS3IkpjGZVJTNv/EFi9HKujV9hqx+HSXjr6H2bRZ89lr5NOwvUux+w/n3ohclubL3mWaK2Ku+kq5j/3dA457YU89Osf0nvrbxC3mSh13kWrwwuaDG9LYQPNUxOGx3mp/08lRWPJjawd1Gri4+0aH8/AKvHEWeC6cYW4GC09svFXiOrjUcrgHP0L7yZZdj8dlMmMZeqRJ9O/7gEgBRl+BIssafFuzfySKTJ7k/UPMf7eaznsLR/gwLdeRPexzwU7LJHFwrRImbb0fgaXP8Bd5/0b8cP3wmA/qMWpJcXgsI24QkRJEcou8+OLxWUZ0aZH6L/xN0w5+hlACUeMIwJnMa4Qals4DxRUO5hyxPFc94v/plxb6b8LjPPmSknJ8uxg6oM8cv8yovnH+h8RTgqPPeAwDGFNhtpODp83HVft2+oZGAjsKIKFLbDn4xScoJQRLaMk4FIQm2clpvTbMiS1RkVMwaHOu+wSC5TGLl2xTaiAxqg4Jrz0gyy562b6brwMdMi3wTSNZL7op4+78X/x7V33AD2XfpHbTITG0xn/gjN4ziU/5i9vfymuf+3IXRYFUrMMjE+kYNN6uqdOpBp1ItnmPDu1IYeaQ5aL2rW/+gFV/QFTzvw0U57zEjZe9QskSZFhn9e2/4U4NWxa8HR6rvg/5r/7C8w+5GA6opjMVLnls+eyaeEdKBk2i8hMRqOAsTa307wTFhatDCaOB5dAdQPGgLp2i5ZQVN/3vSiMR5kbgpOew8YbfsuGy37NjHPeRf+U8fT9+XeQFTXsvCs4HzTWfff/sa4YGfVjZE1EYh0q2mLm2tItO0/tkNFSPAQVh1UoZUpCnfKhR7LmkZV59m9ESuqL5vYsZfL8Y8FORGUgDxkbTbAVD9P2foKgWqZPFDPvCIZmHkTvok+ByzBaxknS6GOxJfCmPJ8kEFEUCo4GHmbNd85jZWkmHP089jnzfHpuuaa9KVGGfeRmVl3yaWx9ExVVSuU6mJq/tjSjKKFRpB9YxWd0qvWPPLZNSBlacgf1t34EEQsUWaZKhm3E7G0RO44T3n4+l7/rxVRVEMmah6MQzihkddJNGyiNm0QdQdR4l3YuCzMUzRKY8RQGF90O9b6QcBB4wggWtsAeSWHXUAGcMLBuI5XTX4ROX+BrYpU6IO6ArpmUn/Vy7rv5ViBBnVI47by/JSMx/SADj69BUQLlDiY/77VMf8ph9F17OVSmwvh94chT2PuV/8aUpz4dpYPhN1vvzzGN27BFMfVH6fvf71DtexTicpv7aiSau3YUqptRLEzfx9dnQ3NZM/Lmn2pGNalCVmXDpV/goBecjZambtUFVBclwRJVZnHwWz/Eyjtu468fejf/+9Y38OfvfY9o2jx8bS6I2mq4aVO4jUE8eTIrVq+mJLqF6m+jjIDi66f19MC6R1j1qfN42hvfB3FXs8faaqOSfD3NrT1+KcaCzYozZGt7pakKRhtjS4kKMYbYCUyezYLnv4jVf/sLBuPj/ZzParS6gWotgY4ITJYna2xNKrS62BUrCjP35aC3nE//b39AlijYyUx89hkIRQKHxwBU+7HFDwGNcFQg7iKdvoDJLz2Lp73nXRx6+vGsvfSrtCdfCNT66a5vBqmTSS55XKsYbG2hf18Eak5Zfv317Pus10FUxkhEaiqoc1Sr1WbpmEbcoY46su17EKI5+7N42UPIxjUgleZb2mhx42GrvXSKnw0kaliRm+2OBCY+98Us/tMVXjfuiNqMgcA2ECxsgT2Tllh6A/SvXE72v5dy4lvOJkrXodpFIpb+Emx4eCVLvvYRWoVS41aYJkxNB1jmqs0NPhZKE+j6p7eQzD6URX+8gjmvfidT9j8A+odYu+4BVj68HLNpCCUC6u3errzwqeRB8ZlzaHkyctAxVPuGkNqmvM/tN47GdDBFrJiA1vpZtWot5ojjcBvug6q3mgxbs+2vqMDAJq7/6teYdfwzWfGnn21RWNlyjEycwvhpU1j0jY/DkkVQGoK95jH/mS/moW9/pGHKSrdpxgXJDY7KjPnzWXalv1Fa2cb5GiSPS88cRA6oEyV9pHEZTOTFSa7QW8ddRzzz4xn1bEQnTkQ2rdnabkecMW2jNtTD5HkHkbz2wxAlTJt1AIt//WPY9HDuoKtRnMDqEu7+w8+YccChrLp5SS4ih//ezuvH+eg/EnVIVzda7/FWwu4pTL/wP1n4h2sgFqLnvp6nHXk0j9x+cx7w2RSAKYAbJLvsx0AJJEPKnTzzPR9ho3ay6KZrWXfNl5GeXiLqwzoqkCRcf8nFkFax6iMUNbcYywiJ5a1XqQixqbDyOxcQ7/M0JPPCVLUTIykkiT+Ji2m6ILdCj34uahEYYSLmPee5PPC/v6GMgiY0J2drir7ieG2+5nJOPfczXBVNwGabGk1tSO94HAcesh83/3wJ1uUhC8ExGngCCIItsOdSeNZUsWmNoet+z/U3/wWiGOjIo5VrMNCP1RpZw2bjbwKiChnc/j/fh3SIxyPY9n7VB5j4T2cSP3gHPUccyvJrr2D5ZZfCUD/Ue/JQ91bZ1G5lsxIDVdKoC6bNYtoZb2PenHnc+sn3Ywb7R9mjtD0rbu2WhDW3XMM+r3wVj1z5gzyQesREVxQS0a/jyMig52HKBz6VfMKiMW1MWT2BdWtY9c2Pc8o73ohWujFSp7q5zm2/v4ps/TJEnK/UYdK2to7sg0IE4gSlxNTZC1j2l7tBLKmkWz8kIiA+wSGL+ul3McQTSLs7iFN8QbAxaQo1jwNNqGxYR8f46WzuWe/TV7eAHylFEgXTTYutDlYt5qZvfhI6poCBJVdeCevvh1xOZNLMOXDA4LW/oVbuaIqVspBafPC8No+iQ1FN2XDZJUye2MGGTYISIVGZ6OGFHHjIdMxTn8eaR9dw2ze+iGxYmqfpthOXLJr2kmJA6mgyyF+/8lmoVSnblEqeulvVDLG2XeBmQ6AxIg6jubx3Lm9iNuy4FYrIoKREZpDkoWsRSRFbYa+TX8K+pzyTvrnzWK2FK1oZ67zxm1bqxoJYMBH7HHUCD15+JTWZhIiC1BBXQ7WIRXDNKeg2r+Dar38CSHwGbUsTRQQ98DAevu5PmMHNZMPmcQ0E/pEEwRbYM2n9ApVikmuQZBCtK9BDIWMEwYlpC55v/IBHoZbH3TzmaBVBly/igQv+DffwfUitD3QASCnuElvSDYKSinDQWecxZc7+DNbrLLzham75+gVIMuCnGHKu+HD7uo1SErnzSRVX7acinUAZobZFuQSQiiHWGglVXyYtv9m6YZ9rWzfL6P/bZfz5jr9AmgA170saGsKmNe+elTFWHo6CcYqLO6hMmQY6CKRECKNUkWvB5DO/Zz77d9VSTnjju0iOPglNhrjl0x+BtNrsxbBNNe0m0r6kvw+6pgP3wRZsfN4h6l236ifvbIyZAaKkRrroeoyJfRItKc64EdsoTsso7SOr9eTnYgR/vZJ6dQA0pbXxTkA1Y+P/fZ8sKQSx4noe5dEvftC7o/OkCWMMTqutFWwbJEnSnI4MQVTRoR7wsooijE+QZhxgs9WQ13dzWEQUSSEujR+WUdo66H5OX1QaU7Am9YS1d9/G2tUPQtVBMuSnxCgGcUwckWo+BYWlPxpPxzNewbGHz6a/voHBaj8Lv/FZ2LwJo6YhdQGMq1F/9O6G5VWBoiRLuVymcvpL6bn8txgdwunoWbaBwD+CINgCTwra9VuhxkZTC/ktuiW2xUejNy1O27XfPDB97VU/QcT4aaLAB637xuTuyi2rlwhYfNXlsGIVZBbRzaCDubFha9Fc+V1HcqvEulWMSzPM5OlEqzZvfRpuEfY780PUph9E/41XNtpZjGOxWShubl6k2KxK0jsEpLjIQVUh0+aU5dro/haJs3xfJmX8eIF6b2G3avavta+tOO8YS9XBLbfwp7veDiUDtTpoPVdSw2IG27rePC6qinMZ9/7hMia/7v1sXnw1ZGMXzpXctqkIbnMP09JHWVc0CxAcxhhwipUInyQx9t0/TertCx65DyGhKKpRTBhRWIVUFRNZXJqBpMRRjLohUCHNBb5QarRmxBA4hxbzOuXnaBFzpnlRPEUxYshGlDNp2YyAquHv3/kMun4lEaOUASk6kMdbSjFPKxmy4e/oegUq3pXeuH7dqJeMopAmlFev9HXVEDrEYPpWcPUXvgkI49/0DognYHQdghnTqVlc/wpEUUQtSTj+wKfw17Xf9bFtLjhDA08cFrhoZzciEBgdAcqPfyuNm+5w89Noi4d//eYhx8Nn2N5OjIBoEd6vIzSGjGkuyOeAxCG9q4jSQdQNYTTN44KKjrQpzDZx2cibLO5zg/2svvNmXH8PJIMjetWaaenLOygbNg/Sc/c9DN51I6K1tnA5oXkPbcZtKZkk+TyTeUagGoyahqWyqYXaW9uONgL8XUcn+738lSxdsQKzammLK6oZFt56OBUobCfeUpVAOuCL5aa1XKw5Wicvb9u7FNtuH5es2sfs01/KkJtIsvweRp38vLEBC0S4+iADS+6BtClsDAIiee02b8HVVgXbqkcV7/ps7WlsybJ6c6qvxm5bbKrFGAmIGJzzLryGzBDJY9fGEL9Fe/Jgf9VicvRm2oUXcmNcGwKi4u2M/euQZNA3d9RYwebui5FzLTNhNKyZqiNPkxE7tSy+9Xa0uhYQ5h1/AuWD53Lg85/BjGc8m0lpwqorLifSoTYr7fDNSsuFU/R/aOkyBpbfT1GYJAi2wBPF1iJAAoGdiACdueMrBWmJfdnCWfuiF72I+fPn093dTZa7aqxtnR67dfvtqGbUajWMMfnDTzkuspVcNFXSNG0U1RwaGqK7u5soiiC3BYn4IGjNLXaNGhJFlVOgWq0CijGWSqXcVpxXC3cRGcYooo5MDUoMoqjLvBsLyfs7vKd5oLoYjDhSB04ibF5PTFWp1WpENmqs78tpkGdQ+mmlnBqMbU7K3Tgkqmze3EupXCIqx6SaeVeYOESsn6Q8M2QuRaxptizfQBzHrFy5io5KJ+VKmVKphMsyiqTAalSBA4+lvnotXavvJbaCmIjU+H1naYbLMkqlEgJkmpffMIJVRURRKWaK9XXfjErDMiVAX18flY6O/Li1jF4ujI0KiXUMTpjB0af8Mxuu+zUb163BGEOtViPL959lPplDBWKJSJ3iIoPN0pbJzZt9NwrVeo3UZXR2dSEi3voGfmqpzBGZ5jFVNWSmhM1SkAQQ1qxbS2wt48aNw1iTCwxQp153iaG14m770YOhoSFqtRqdnZ2+D66wvGmjvaraTFJpGbgkSejt7aVSqTBu3DgA0iz1Xmk1fuYQ8WexF3B5qZOWS2pgYIBKRwc2sthSjNTq1MWX1rCkqDiMRj6pQopryovXer1OlmWUy/68SVKvjcsmRY2lL5rMQHk6GWCyGh31tUyo9xJbIZGMepJgMdgo8uecEawxiJjGuQ0t1kuUODOIplSzBMRyzTXXcNNNNz2uKewCgS0RBFtgF8XfVA1CiYwa4Gz+Hd9wAY7uhvnz/2fvzOMtOcq6/62q7nPuvbNPZjLJJJNlkskO2SNLQkLQF5FAUDT4SlYIIviCiiZBXllMENTXV1+EIAiyBEVfNkUEg7xAgBC2AIommewZss++3O2c0931/tGn+tapW92nz7nbuXf6N5+ee7q7lqeW7vr18zxV9bWv8aEPfYgf//jHU4OeJ33/Z3rCF7/4RV7ykpe0TWDG96u7o4pSijiOufXWW3nRi17UjpcOcEaOpD14puStbX5tD4aG7F133XX8yZ/8CUopZzcFo35IF27VSUpGhDBmq3Tgeutb38q73/1uR7opA6JxAA9qNaJEpGu8tVGv1zn33HO5/fbbPVWWtMdogbIIm0EURVx88cUkJHz9ttvSdewARDrgo0U6WLcJgA/f+973efazn0OSJG2CYLZE12hRQ+sRRDKJYDLdwki0aagUJHHCH77jD7nxxj9s1zttgmbK3vmqS7lGpxxf/vKX+dmf/dmCfpMi0RppSBdp27daLW644Qbe8573EEURSZK0tXwFL1njY6hTEvCqV7+Kj91yC1GrbWo1rCRO94XNPBJT1We7ZlJidcSRG3ne857HJz/5yWkEy69B66wNrROOO+44HnzwQaRUxHHbp0vKzg+HjJB0PhN/+Zd/yS233MKPf/zjdtn1lPY4MXJi1chUrcRxzHe+8x2e/exnowKFUAoRJ8Z7DkgJtzAfPLZWTAiiKOKLX/wiL33pSxFCprLrBKVkOqtaK9B1dHtyhpBNhIiRZtFgrbnxxht529vextBQuptBkqRrMdptp7UxBYMkJcBaaFqtiOuuu47Xve51qRazQoU5QOXDVmFA0V6iIKwxseFsnvmG16KGQ0b3Ce6/6c3QfNIyv3UOiM1mk6eeeooHHnigr5yllNxzzz0AucTCB0O6ALZu3ZppqQwRg6nBzpeuISmTk5Pce++9fcmulKLRaHDfffcVhjPaiGaz2aEREEJwxBFHZOXvFaeeeir1oRr333dvNuBn0FN/syVHLBht5D333GMNenYa6Sp0OR5QaegkYes9W6eyFJpEJ6W1HlprHnjgAc+g20F3M/ndcqxYsYK77rqrI76U0iJOxdi5cxd3/eQ/p2etySFNU0h0zJ49e9i6dWvfWh4pJVu3brWvTGkDjQebdp+4dv5JwpNPPsldd92Vii0EQgpAtn3e8onM0NAQYRjy4IMPZs9LL2Uw4bdu3Zo9g6Y8pi1szaZpD/t53LdvH/fee++UFtEi5EVQSiGlZPXq1RVZqzCnqAhbhcGEgFAHtIaOiBiwHQAAIABJREFU4sVvvYkvvuMt0NzDil/9TU4+91k8cMcXiHWLKTfoqQHFaLqiqKs7vReZdqTHQU+I1BQZBAFSyswsZl76ZuB2BwIzQIRhmH3ZF2t4zGBj8jW+NhKlFENDQ6Vkd7V/Jo4xB+fBHgDd8jdbTepDNeJWMuX+5YzvQopsEVUbcRx3aHPSwXZKOySy3R+my2YPvJGOUKiU8OtkynRbYvA1psj8+hMdYd10lVLT+l3pQbz8t4EXdlvaMvZKfGyBOuMnWT55MH3ehBNtjVY3GVJXAKaRrbIwZY/jglm7BaRZa00QpFpj015lSbaRuyJrFeYaFWGrMJjQcAgBe674Hf71ht9Ejj5IsmITB+76D+455DS45CQQTcQ//wWSCLO9zWxY+A3pMqStzEs7CAJarVY2WNsDh4lfRCANiTNkrZeXf7Y0FUlGVMvEN/IYkhRFUZZ3mfhuvSilUHLKV1Bo4Q1X6KRuhbEJ7tSN7L+8iEB7LTJjCm37XAnNnLuIL6T/kk9r1AtsAmrMqL2m4ZOpDNwPpH4+lmxZeyWqRgY3DfNsdCN7/chcoUKvqLamqjCwOEDCs577TJL929DHPpdzPvhPbNx4JOHtnyT89mdYd8LpiGCYqblzsw97ECx6IRf5ZZn7ZfLqZ4CcmiAhu2rHbNgDdBRFbZ+9mWkJkiSZ5hc2LYxrKnXkyc6ZInxljhRtLaEQ7X0obW/F3shDP4ev7sua1mYDB4OWJ7/tu6OoLWyXBpOP+XgxfcI+L/thU6HCbKHSsFUYTKghxoKVRD+9G4Y0+vE7+eGrX4AeHUPqJkNymDhqtjefSf1kihYx7Qe+gSCPVHXTDrg+bHn5ubM7fXBNca5WYKboV1Mw24NXL75nBlKkS3xMLRe8cPOq3PaZDw3MfBHDhcJM67Aofp5WrtKgVRgUVIStwmBC1qG+lsfu/Em6r3SiUfEeIgmJDmmpGusPO4x9Qs67mjiPtHXzoSmTbi9+O+A345QlToM8ALkas3JY2mSlG1wTXoXe0I3s2vW61IlxhcFERdgqDChiiEfTnYWiIZAQi4Ra0qIpYtRhx3HEnm081ppoD+mzp91xZ5P57rlwJxR006r4HPZ9edno5kNjfvc6WA/e4J7OKEyXYOhFtva6a+hsOY9kAMpW2tStcyinVYT5bSt7v6re+9VsYj61k0WEtyJqFRYSlQ9bhcGEAAKQtEBFkAi0HiaSArFsPcf83nu441OfICFqL/IwOxMO5gJlXvKGaJnFd+1rPhI2mwPHXKbdD6bWvOunPc2sYd11YsNSQz8+XSVSZVCfKxv9+n9WqLCYUBG2CoOJaBxaLQ65+OWINZsY1suRTMBhp3Lquz/J1vf+LurhHxAINet+St1mhPkOn6M65JOfXpymba2du4ipb8JBr2ZVW4bZcuDuB4On6aswX/D1pZkQ0NnqS+Unu1SoMPeoTKJzinR+WjpbTRPPotluySNJkMkY3//wX/Az7/m/PB2uoiFD1kcJd//JGwge+gECiLIN3Gf3xVm0DluRY7L92yZt3fyKzD13d4OyZlETtuwAUrQI63xrKiqfq9nBQtah6wowKOhHnqovVhhUVIRtzqFI5zG23MXSAXNJppsjm9XEdcTsEJB2hlJPy3cRWDlIJsfh37/O9379RWz6mecyMTrOT376U8TOxwkJibJtm2e3MAv9wu62or0dziWKZSYduP51C13eMuiFuC4VVER2fjGXM1ArVJgNVIRtTqFBxiQ6ISFJa7tlm+8EKaFT6R55OmE2l6Yw65MlWoHSoONBdvVy0B6gkxZyfA+Pfe0LbbljNIKmvc/R4ijQvKFfLcegEIRellOpUA6D0rZLFe4abhUqzAUqH7Y5hpAaQYJSdeTqI7OtlFLzAWgiNA2UaKLaK3xKxIxNDEEQIAOFCgTquDM47NmXEh6yAXr0bxoEJEmE1jE6I7NmT8mlT9by+oF9rcjHrSjdhUKRX1+vcZYiBtG0ONdYzOWdz3X2KhzcWHyj9yKDjtpO6Ydu4rS/+jR1JRGyvSWiEARCUZcrGD7xPI5+5etRJ52Nlm01mBDo9kKgaVMFpIuCKoqbTiC0JkoEq37nRk74zT9gfGgl4WGHAlNbEQ30S7JziXoHMUWayKX44nTLZByeZ7odz0Khl77nI6YD338XCN0WcB5k9DpZZtCw2Oq7wuJDZRKdY2Rua/sPsPrRnTTXHI7e8wRQByaJ5EqOeMOfsjZRbP3H96Ofvgct0n0Pa0efRO3IYzjwrW8B44ihQ5BBHcZ3kuimtfyBm19ImCSon7+S4f/6Mfe9/8+IG5OQNCFJ0tWVBn5w11O+d7lmXP+ALaXkhS98Iccff3xvObbrY3h4mKuuuqqnuJBOVIjjmGXLlnH55Zd7Z22WmRF64okncvXVVxduoeNLy1w/7LDDePWrX53ry2aTHTO5ws7r9NNPZ926dbkyuuHtCROnn3469XqdMAxRSmVmInuD+bxJGFqnG3Bfc801WZgoirK87DR8/ndCCDZt2sQ111zT1yLEACMjI1x99dU9xzM48sgjedWrXtV3/DPPPDNrezP72Pwu3pQeNmzYkMU34e24ZXwbDz/8cM477zyAjjzLTJrZuHEjL3zhCznqqKNyw/v6jRACpRRhGGayu2sZdiPnWmuWL1/ONddc01FntVqNZrPZtS9ordmyZUvhc1eEwX+fVlgq0NUxt4cAjajrLb/023rktOdpIQMNdY2qaXnmi/TQ735QK4a1YkgjahqBRiq99rLf1+tf+781QmhZU3rkZW/Qa1/1R5pgRAuEDpFaOnkp0KiaDsND9Hn/94ea4XVaKbXgddDXIYRGtg+BbtuTux7/9m//ps8//3wthOj5APQjjzyigyDQSiktpSwVT0qppZQa0Nu2bets/x7yD8NQ33zzzYXxbJnccFJK/YEPfEAPDw9rpZT3MGXLK98ll1zStY7cc0BLKfWll16qL7/8ci2l1EEQdNSByUtKmeVtH0IIPTo6qoUQOgiCrD67yWLnccstt+TWVV48+9i2bVvh/W7HZz/72f7fE0Lo66+/flr72veL4m/ZskW/6U1vyq3zMv3v1FNP7cirbDxAf/nLX9bPf/7zC2X1tYEQQiul9OjoaG55y8jwyCOPTMvX9MEy8n/84x/v+Xk1cZVS+qMf/ejCvzOrY0kfi1sHvYggdMQDX/kngpdfwUgSI2mA3MC5r34jk3/9JuJAEKMJdapdE2s3suyYo9jx+VtAhYgoZnzbvaw/5mhIaoQiRKhhhBzq+CKM62vY9EvX0KqPcGgiIdGL1xnW6qoiKK8MFpYGp9cDmLa5c5l4RnshPH5kveRvLydSVl77XAjB8PAwrVara9w4jnPXj+ulnr1N56Rll8389tWzQRRFufnZedrXhBDUarUsndlYo24+4WqyfBrIXtPL6ydF/cnOq2x8V748WfPy8oX3hSkrd145usUvW0/uMxfHMWEY5jVFhQqzgsF9ey0hZOqhse1sPvYoxoZWkISHcMRVr+N7f3Mz4sAYQkYoGkSiBUKybt1h1NdvYu0b38UJb/pfyI3Hwl0/YtnYKBx7IuvfdCMb3/tFaic8Cx3UpwYiqTjmohcBkrg+ArWVECxDCJWuGrJI3H6yrbu1BgFHn38hKDUv8rskoB+4g0A3otFLfkXhpJTUajVgOvE0hyFqvnRt+bsNziY9t8xKqUJyUZYYuoOtSy7z5HTlyyOFReWfTfTSj/ohzhUWFkopgOy5q1BhrlARtvmAECASSCZ4+tYvseoVb4bV6xi56BKC//p2SuaaEVoINBpNwo6tWwke/g67//dv8fDf/zNnvurtEAbc9aW/57D/+cewbJhH3vEGTr/qjYTrTyTREqGg3tzNvf9+NyuPP41//Z3/zqF/8F5OedtH0cMbEGEIgWBqzkJAejJ4LE6TilgHagwR/M7HYCidNGEmI9hS23MUzDSNgxGGqEAxKXQJhO+8KF6etgumNqSfKQEqkjEvbZ98Pu2aWyZ7Io4vDTcdcxTVay8kfa7I4qBhKZbV7i8VKswlKsI255CpjVMmIDRPfumzHPXfXoo472Xc/8+fRkT7mdIntT3SAFQTISKIYlpPbiMZ3w8qoHH/D5j4yP9i7Eufh12P8d33/x9Ofc1bYdnhaJ2uUrb9H/+Ow086Dp68mx2//3Lu/8RfcfxNn+SIX3ozrNkI2qjuA6bsjoOHAGgIaNbrTASrANFp0W9DOMfBDGPq1FrnmgR9ZkFbq9PvwGPiGXNmNyf3PPl9v20Zi0xZJs8802s3c16vJsRu5rl+zHpLAd36UB6RdcPkkecikmzD9PWKLFdYCqgI2xxDQDbLUQoIDzzBf777tay76rfga58n1GJ6hAAIEvbGcMhvvAFx5pk0Vw4DAtFssO/bX2b/D78OyRjBYz/kgf+4k9P/9LOw4ZlELAOgFSWQTKJpEN3/DbZddyn7FGz+s6+w4Zd+H9ShICLEAPeAZnu2LK2Aw1uTEMcdxGxpDXGDgzLEwkc0bLJUdj04F0Vxug2uRYN+0QDt88HyoQzJyru21AiZD72Sn4osVajQG6plPeYQKbFoDwZAoiHQCTzwEzaN3c+OsR00iJjSCwnQNYgEyCZPf/ozrL3kV1jzwot5cu8uiCfRiUYBsUjDRDQZ/cLNPDI+yVlv/wTbPnsze8ZajAsBOgCtUcQkyT7if/hzHrntKxz6+ndxhJjkyc+9jySeWJjKKYRIa0QLEqFBjXDE049wZ9zwkrTZHgoHfYDtJt9syF80kBpHa/vcF8e3lIQbtyh/N76tbTHp2OV0NTKzOcGgW30UhTPX5qNP5eVRNm+f1rJsfJ/Gshf58vIuk39eHdsfEd0wyM98hQpQEbY5RWq501NaNqAJMDnKj179s6DNdvDmJRenAdvsLtn1MDs/8efpy0hr0HEWWmgglmgSkAfY940P8KPv/xOHnHIW62qSvbd/D0VArGNCBBERUTJG8vSP2fmxd3P6DTfwxBc+jIgnBlBT1SYAaDQKpELXm+3ps9ltT4z2byFmVCYz8A/yC7xIvm4EwaeFKhosfeimXepVC+ULU0Q884iBz7SZJ18v6Jfw9JNXHsr0ySLfvjJy5PWNsnm7pLqMbG5cN3xZku/LV0pJHMdd4/eSR4UKC4WKsM0DPK9wSFr597I/CSQto2+a5mSf/pXoRKMbk9B4hF3ffxxEiIg06EkAGtTRaghRq3HUL1zJigt/if9615sYbk0yiPo1HzrqqcAeWvmlpChDduYKpv778WGbjbwNFqL8eVq9Qf8AmA+U1cxWqFDBj4qwDTw0U5MSDFdxvlxJiRtAEiXABFppSBTUVrH6rOdy8s++lB1HHsuTH7mZn/7+i2FinFqiFoEvmCWdFkwtHZg/WaLfWVv2ADLIA2weKSnSbpRNdyZl7tV/ya5vX75uO85Gm8ymqXgu+8d8mlFnC2VMonZY3+8KFSrkoyJsAw4zPBjzqkvXDOHKhhGZINpWVRQEI4fS3P04P/zQO5jcvQOaLWpS0kximvl7Pg0ENLRtvxGZTTlDd6rZ70Aw6D5sUGzym0/ZfSTK3kIqL85cymNjNuuijCl5NvI4GDVOg+DDVqHCoKMibAMOQ0tcsmYTOZu0yUSm1CZJgIRoz72M7QWhdTYlOEpiJJAMOFlLff80iH0Ipq98X2FhMV/Eoh/T5iBrSA9mVG1SoUL/qAjbIENAIswPQAYgaoi4CcRt3zbdnthga95Eqphq383jZSlpG1xoIETSShQQpCbRCgctZsOcWRGGChUqLFYM8Cpc84eBpQEaVAIqaa88dvozeNbv/B5aKLSokxCiCQGF2Rk9RXul+4WRevagoEUCk+P8y5c/BzJBQnZUmBvM5ZIgC2num23/t4r8TUdVJxUqzB0OunFvajV8gUBm2xgNKrkxGrC0oYbYFa5CKglEU8tcIDFbTHUsb2Gd6ZxjoBGbcjdI/ulvoDk+L9m2Wq15yScP8z3ozabf10xn/i3EzNJ+MKjEZCEnZcy07cwOGQuV/0xhtmSrUGGucNCZRFNHdkAHaCSCBuZS3qO2kK8B3c5fAUk0hKqvTWeCisQTqpOg+X4vJnS0x/gBZElqHUURv/Zrv8bFF1+MUoogCDr218yD2Rj90EMP5W1vextKqa5b37jYtWsXIyMjvP3tbycI0sfLXvXft96TMdWZ9aLOO+883v72t2ebSZvrWmuUUh1O/fYgoZRix44dnH322bzzne/MFo+dnJzMymEvRquUIo7jrH6SJGFycpJTTz2Viy66KHcANGUwcpgtn+I45thjj2VoaIgTTzyRWq3WIbtbf+61OI4ZGhriLW95C2EYUq/XS681J4Rgz549nHHGGdx0002EYdjhyN5t5m8cx7RaLdauXcub3/xmVqxYgdbpjg29rCd3yimncNNNN2X9zmwTZuq3CFprfuZnfoZarcbw8HDHEiFxHGey5GHZsmWcdtpprFq1ijAMO8rsW8TYl/+hhx7Kzp07EUJMW7/M1/dN2gcOHODss8/mta99Leeff35W/lqtltWf3WdarVb2XCRJQqvVYuXKldxwww2sXr2aZrOJ1pqhoaGOiQNJkqCUyp7VIAgQQjA+Ps6mTZt417veRaPRyMpvl9u3rIipoyiKOPPMM7nxxht7XnA5jmPGx8fZs2dPT/EqVOgVBx1hA0AEqT9YAokQSKEhXmih8qFJ2iv/K1Qw1J45aRE0AejFoZmYL+zZs4fdu3cDUK/Xs+uGXOQhiiLiOGbXrl0EQZC98JMk6diX0IUZePbu3YvWmp07d2aEz/yFfA2U1pooihBCMDExwc6dOzPCZg+0hrCZQTCO44x41et1du7cyfbt24njmD179lCv11FKZWHtBWlNOua+1ppms8nExAS7d+/O5HFhD3QumZmcnCSOY8bGxti/fz/NZjOXsNmbxGutabVaxHHM/v37CcMwk6sMgiBgfHyciYkJHn30UdatW9czYYuiiCRJ2LdvH0mSZOc24e62rMfk5CR79+7N+pzpb936nZGh2Wyyd+9eJiYmOvKNoqgrYdu/fz/HHHMMY2Nj2ceCQRn/vVarxdDQELt37876c5kFZw1hazQa7N+/P3t2DGGzw5n0DGEzz5ep6/3793ec1+v1TA5Th6YeTNuYjxLT51utVvbM2QvnmvD2bGrTL0zd79mzp2fCJqVk165dbNy4sfKTrDDnyLOWLd1jaJ1e8d/fpOVhJ2gV1jWgJWgl0FKkfxUiOxZcXqQOkZrTfk6f+s5/0Ii6RgiNkFPHgss4+0d71TXrEFpYhzeOEPrWW2/VF198sQ7DUIdhqKWUWojy7fjggw9qQCuldBAE09IXQmRpuudhGOpHHnkku2biSCk74phz+xBC6CAI9Pve976O/JRSWinVce6WyaSrlNK33HKLBnQYhtnfvDimnHa6l1xySZZfr8ell16qr7zyyml15srpk0MIoUdHRzN5TP3l9g8njTAM9ec+9zldr9d772vt8m/btk3XarVpMkops/4QBEHWJu7xqU99Kqtzt83LyHH99ddncUyedtsXxT3ppJP0DTfc0HfbAfqUU07p71kVQn/hC1/QF1xwgQ7DUAdB4H3uTJl8bb99+/YsTJn+4oa55557OtIzbWrH8clkzj/+8Y/3XXYppf7oRz/ad71XR3WUOQ4aDZtAoNBE9bUcfdnv0TrjuSw//DiefO8fAjtIhEYQoEWE1IPr03awwPgWxoAkJPXHi9KJorp4fqvROLVaLcIw7Nm3xYQ3Zigbedv0GC2A+bp3v+TLOKzbZks3nG3WiWO/Otg2USqlMl882ycvT2Nmm2TtNPJMgbap2NbYuVsB9bKmnV1WVyPjg3uv1WrRarVoNBrTTJndNGxApoE0vlQmvKsddX/bMHGNBsgnZxFcGXtZi8zUV17/mCuYPhuGYWaKNG3YTWZzXynF8PBwVlc+E66vHWzU6/UOTait1bTbspuZvZf2svOyNfkVKswFDppJBwKNloLDLnsde3c+xhP/8xdZFcbUnnkeYmQ5QoFO/2tH0FNHhXlH2/gISiAJqCHbnxcKSVDall928LIJiCE+PtOICee+1O3rvb7wTfxervtgBiJDnFxTniufjyDaedomz7zDHpiNX5Fr/szL273n5t9L3i4xc02Q3dJyyaJNuGwftDIHTO93bh34Dh9c0lEE85Fiwtrt34uZL0+eIlnjOM7av9lsdvQDX5l814y8Lsly28iF3e/dhXLNuX097+PJ/cAqe5i0ezWlVqjQKw6KHiaEJBECTjiXQ045iX3/9X3qz3g+2279Gse98OUc8sIrEPVloBopQVsMHG0xyDgDRAJioYA60eZTkOe8iOVbnoXQmpAYVTKdsto1W2tkDxz2y73bgFlEfHykJG8A7KaNyyM/9sBlE7Giwdcnp51vHrFxCZOv3EV5d0M/pNfEyxs458O3aCZ55/WDXjSUtnawn4+HslomN22lVDZRxPbZNLA/Imz/MpOWef6K/PR8fTZPnrxy9VK2soddBxUqzCUODpOoVKBrrLn0f7B165Nsufq32BWsZ/PhK7nzutdx9HXXQy1g5xc/BmMHAM2g+Y1qANFWALZNtlqzdG23GgQ19OEnc9Lv/xFP/vRpjjvqBH702guJkmbPfLWbOcW+lxe227lNYFyzYF5eLnyaITd8GTnMUZS3PbvTl9dsLJNQpg5toumSwrKwCXaeVrXIHGaHKRM+756PrMwHUXRhT+joBWU0WT7YGjbT920iZn7nbRXl9rkiOYri58nZS59aiPaqUKEMFqWGTZEaxkR7oYeuqz0kLUaO28LRW45l1bo13P/Bd7L7nf+dFQceheZutv3hbzPeEJz06zch68PzUoZeoQGkINEHiYOdgDoBx7ztT9h6/WuYfPdVPPHUYzC8jFhC0kPPLWuu9GnAeknLaBDctHqVMU+mvLB2GKNd61dD1S3vorBKqcx/z8yw7Sa7nY9ZosEX39Z+2poa1/xrtBzmni9e3gF0pFUUtyjNIi3ffKIb6fFhJv0miqJcjbTPbOz7QJirtdSKnqvZeFYqVJgPLEoNWwLZpkxIpuZQeCGQWjN5YDc/fMvViD07GGqN0ghGUGiQMSLax8S//A1bN50E7Q2fYLB4kQao19omjykZl+y3oIYWo6xacxg0WugIdu7eB9Hcm6zzBrpetHTVV/rihevLVBTGdz2v7yyGPjETGW2SbZe3m5bS9j2ztXImbt5HUjdZ3XTtv27ai6FtKlRYlIRNC9BCpzZBm1X5njmhiRGoHY8jdGoCaiHQKiFuq+Y0DUTcIHjsP4miBojBm2ugBRAGNFpNRLaL6NKGJGH7f9wLBLQQqIkGxBqp52Yx47yBumiQqL7OlxbsPtCPSbvIp68fE+sgoZuMRX6VeWGNmdQ2aRv42sBnMi/zIWWnWXReocIgY+H19n1hiM2/8GuwfDUyUSnBIscpFJDodH0InW7fBBLRbLHvwBgMDaUzSIVGtiJCLZFaZFbWwRiOdSrHshEm9+22NIBL92UjSEnZk3/1Tmjsbn9ZZK05J+3SzYG+l3QqLH7kEbWi9s3z0erWjwalzxTJ2U1GUzcuafOlaYc1910tmx3OELu8iS5lZbMPN+6gtEGFCnlYFIRNWj8EpJMIjjgehg5BawG66GETCK2QpMuuKq3SfQN0QjPWMDKS7vKkJYoQUXr+4TyivbNBGK4knmghiNvrkg0GnZwLaAQyGEaNPUgoWrRqazhs00YQwZyXvMgcmodK01ZhJlgq/cfe2aGIvLpr7NmzR7v5j/pgk0Pz2/XnLBO3QoVBxqIwier25AKlE0IkEwk0nnoCkgBNnNkG7a+7zviQoNsaqdSgmKDZu38s2zY90TAp2msYaSuNbDrmwiLRMDK8hriRIIQmXupzDwREtNBxg5jVHH/D+xh94N8hngCZ1scSVjBWWORwzYdlNECDgJlom3opr5uXu6Zenlaul3yL1oLLk6NChUHGotCwaZnyylCDJgFVQwiZatqgxMBtj+5t8yKCxx94mOVr16Zntp+SsI7ZK8aMEYQhcWsSYfYWHSjpZhlao+ME4uVs/JXr2fnv/8lTn3oPJKNZsZc0Ya2wKJE3S7ifGZsLiZlqm9xZtjbyfES77WxRJFcvBK/XtCtUGBQMEGETyEzf5ZglVYA++izqb/gr6q/9Y9BDSCGgz4UKNe3Jpc0mQgUW+bGPAUL7PSKHajQb4wcNUREiYNUrroeRIfb+6wcRcZN0SwrSNekWWsAKFTzoZ+BfDGShjB+ez7es37XP3KU3et2qzHfft5zHYqj7ChVgoEyiEoUiEZKjfu5i1p77IloxiCRmxYqV7B1tsO0n9yNHnwIRIXUCcYJAtHeTaqu1fcO48zxqYgINSU2g44QE0Hpq3uFAPcDZDAOFqNWImo1BarQ5gVACXdvEoZf9CmrlMp54/x8g4lFEUkNp0BISIfxtzfRBIu933uxPd+JKnonGt/6Zfd2O685ky1sXyl3Ly3bIdpc4MNfN/p12WexzO+9uztZa69w9RItg8jQy5i1eW3bGZVlzlpuGvWirjSL/JxO/jIanG6Io6nn5CTeMWY6iH42c6T8zXc+sl5mx3eKXScs3A7VfE2vR/bl6t7vPYIUKc4GBGfsluj3Ts85Pv/N9fvrADpDp5AB27YTJA4jJ/ShaQNj2w28TNqBI3+IO7KmCRkLjALI2REzxZuIDASGprVhO0phYaEnmECEIjR7eyJnvfC8PfvEr7P/Mn8Hyw9DJGDoJ2wvmRhC1YGIXvnYrO4usm0+MbwmBvPiGKGitaTab0+676RQt/WA7bvviu2TAljOOY3bv3o3WmqGhISYmJrwk1RAU89cebAzpsMP74FtyIUkSxsbGcuPaJNYmr1qn2yq1Wq2s3EEQZFstufXgq0OAAwcOZGn1CiEEjUYjqxPIJ095fWdsbGza9kpll51QSnUpxlx2AAAgAElEQVS0ubumWbfFeIUQRFGULR5swpu43eIb8m+c/+3dOkx6vvo3fdb9mLD7ajeyVGZmaa9kKy9v97dLFnvNRymV7aFaocJcYiAImyRdcyuhhUw06kCL+MCP0W1fLbNams78z+wlLUR3ZybnPSmQREi4/27WP+c57L3zK5A0B0uzZkMDQhEGITQmF1qaucPQMnjhlRz6y7/Bv3//To446/mc+sKXMLxrO+M7H2Qfk8QCRqhxaH2Yf3vvW/ERNqUUZ511FpD/4rcHGJdEjYyMcOGFF2bX8siVHcekFUURIyMjnH/++dn1IAiycO5Cnj7ZjzjiCC644IIOjY8hQ65PkBmM7LWsjjrqKC666CJarVZGArppCu1ynnnmmYyOjmYDuK/M7sBsjpNPPplarcb27dsL94XMg1KKCy64ICMZRvYyCIKAtWvXcsEFF3g1NkUweYyMjGR1b+q/F8J25JFHcuGFF2bbNPm0q3mQUnLsscdy/vnnTyMQZbRDmzZtYsuWLVxwwQW0Wq2e32daa4499ljWtv16e9FIaa1ZtWoVp512WrYBfRm4BN6U3UeifNft+7VajQsuuKB03m7a69ev7yu+1pparcbExFL+mK4wCBgIwjb1+CUIIiI0qaEyyTYyEG4MaV/s8cWEQAsJY/uojYyACBGi/EtmoaACBZPjCy3GnEAAw+s2c+iatTz9xb9mZOtdPLV7J4/tHYXJXYhIokUTaKWa1ygG8rUod955J9/+9rf7ImyTk5N861vfmqa9yhu8zEBiCEar1eL222/PCEsQBBlRs02bPgRBwMtf/nK+9a1veUmRkcPVHtj7cF5zzTXcdtttfZnUhBCsXLmSb37zm4RhmGkNygzcUkrWrFnD8uXLueOOOzIC62rT7Hoz1+xy3H777bkmPVcD47bdtddeyx133DHNPFVGfkOKv/nNb2b1WdTmPrz+9a/ntttu6yB5ZUmPEIJzzjmHb37zm3213UknncSGDRv42te+1lO+Blprdu/ezd13352d95LGvn37uOuuu7j99tt7ytcgSRK+9a1veeUqI0ej0ciem160eybMtddem8XvBeYZf9WrXtVTvAoVesXAELYY2obJpG3CbGsk2mGE/VfINpUTJELgo3SFMA+kjtvxAftrbjo9XFgIAIkQEpKl6SehgYnH7uKRj90NKmJIR6wOBLtbbZO2lkhESuQTChtFa52ZhdxBM09T4rvuateKBlHfPUM63D0Wi9Jy16/KM8W6chkSakxavWqXbJObqSvXxOMOgC6ZNCTJkB13U/m8cptrQZC+juz9QI2mKM9kZuKaMo+MjGQm3m6mL58MRqvma/8y8Pky9doWhrja5W61Wl01liZfu45s8tKPX1s3U6GtCTXntibM7TM+bbXbhnlydNNU5pH4oji+cvVDlvsxwVeo0CsGgrAB7bXSyPVH0/Zf0Z5oINoGUyFA90hkNKDbpiWtOyjaQBpGRX7dLAkI0DQAUDFEHM7+V7ySY5aP8NAH380K3aKJokmxaSQPeUTBl47PFFOqCDn+N2Xiu4NsmbBl0+0WrqgOzCDqmgV9ado+U4Y09+KInSQJURQRRZGXBBhZ8+Q2JNEMnkXkMA/dCP58wNS32w/6nUjQS7wiklr0kZEXtlfSlGf6LHometGIudre2Wpf11WhQoW5wED1sB6GX7RIIFCpeUxMn9nnO7KXkU5SjVqiLc2aQCDbOx1I5xgEyPaCvkuUsGkQWiI1gCRaFbB8aBUnPfvFINbSQhFnL+bupMZFGSLki1M2rt3PuqXnhvdd75aPm14Z+X15lcmzF/SjlbJhBv9areYdAG3Nl6sFM4StSCtZdEC5Oi3bPu71XtGPlm8hCOZs9J3Z6n8LhdmYYVyhQjcMjIatNyTE8SQcOABxC4Jei9HW5wnzMpTprNFBhWbKjLuEoaVIp5UkCSzTjD36EIgYRIOmTM3e/Y5H/Q5kvi9yn0+W+Zv34s4z6fnC5Zn93LTKagq6maXy4tjmLVvePJPobKKMVrDXOLOR70JjppqmojDdtItuH5hN2PuE+tLv1R2hTNhe8ihCpV2rMF9YnIQt0Tz+z/8Isq2KT2K6jeR62kkC+x5j60f/ApJmewbq0idFAw2tSddrAbFrL+efuhlJC4KIZNIYzNu+jUl5R+7OLKb71/gIkH1e9Ns9z1s/y5dvGfRqjjW/izRBPpLp5mfP0Ow2UaIXuX2DvqkXd1ZsGdlt2DM7fWSjm/w+curm1S0NXxnKajDL1u9ckbaZkjBXY2uX3/hXFj0Hdry8D4u8tu1FxrwPnUpDVmHQsTgJGwkkk5C0HT11V77mPIztrZ3iCYx+bUA91w4u6AR0myw0FF/9zh2c9OgOaI6aAMy0nXyDRN7AUHSeF963gG63gcqENV/q9t+8wcmET5Ikc9Y3BCsMww6ndXd5CZOuWfLDJmwmrO2P1i98mge7DtyZumbCRF5Z3Wu2fPaackqpzA/OlSXPn8vW7Ngy9tMPXI1mN63qUoGrHXOJl2u+tuOVrZtB1IAan8NBlK3C0sIiJWyadF6pdVoC2YuTVJFjr+tWYXBgzNRsPIyHv/tj0MOooQniGSxBl6dFKydLZzpFg1C3F3eeds4ld+7A5jM/mmuGZCVJkhEe22ndJil5sttrtWmtvWtpuYOsryxaTy1a6/Mnc8thD+pm7TKgI/8yJldT761WK8vfJWdlJ0AYWXzopgGM43iaaa+sKXpQCF2enP2YHn2aaZfQLQXMhVtAhQouFrHhvf+HQ3csx2sjISWCA77rwVJF+92dvvj2w79+hc1/fDNDv/Lb6EbY1oSCbRrtBpsYuMdUXn4i5TtsXxvfwOymnZeG/ddO15Ac935ROt0Ot1zu76K66GdAtZcHsbWF7mGHca8rpTq0bcbc2c1HcKboNuiWGZh998sM5oudvPhMx0XaUVeD2c3UW9a0XKHCUsUiJmwzgF4FLEcIjVY1kmCERAq00GgBsdDoQKGJgdgiChXmDG0OrYCQdKsyxg5wz+su49STT2Pzu7/A0DN/DtSQWZZudrP3DASz9cWcRwpnCtfE6bs+G3nkDb4ugbIJmpt/HlFzZfY5b/fqo9QvfKTAJZN2mX2Hj1QWkdalRETyPgaKPgzytNNFH1C+fMs+Wz4Z884rVBg0HHSETWiBZByYQGqoxU1q0RiSmESCWTkj3PxMElVr63KqB3nOoUEkIaq9sEpAAmICDjzAD9/5B2y/9XM859W/AeEqAuRMFKz+7D0v67yBNG+AyBt8bbNYN/QycBcNbmUwHyTB1h4aDaJPk2iu2eZUe+FdO42i8s3GoOuaQ8toMX1az37iDwLy+n0v5LJXDZtNau0wZfLuhfAWafSWAmmusLRx0BE2LRK0aCBogRC0kETDy0i0yCYvSODYt30YVK1N4qoHeT6gRURUF8RCES1bxfITzmPtr76DE97zDyxbX+Or170K0XyKhASlDbUrmXbOl75voCz60p8Jyi5g2qvJz0cQ7L/95NeLRshHRsv4bBWhG4GxNXnm3B30fXGK0uvmn1ZGrrz4g0LG5gu9athmI68KFZY6Fumkg5lAkAiF0jGx1uj6an7lz/+GT73xamS0n6S9Df0TQ8thy1lw9zeZdXVOBS+EhqS1mnP/+GaaqxIaP/wJ93zps+z9l4+STDxF2IKEgNjayKx02sI/nd9HLMzg7SMidjxfnCItgO/cNWUWaRh8sGX0lcN3zY3nkhVXC1E0ILoTGorKYKfnawNf3Dz5887zUCSTK1uZ9LuRyTJt0Wu68wF3WZIijZR9Pa+8ee1c9Gz5kPfczQQLXdcVKvSKg5CwkarRACEVJILdQ+tgeA1y/yghmgaCkVaL8NwXsOvu74JudklwjnGQKPgkkjiB7731N0Go1D4d7UckTaRIiBmyJowk7aNtw24jz/zY7eXsG1iKSJ0vPXujc7Phuz37ssxg4xI4n29akQbH1jqZJT/cfTUN7LXW7LSNac+UKa/MeWY/pVQmu/lt0rPlsNd5M1BKefcCzcvTII7jbHkTrfW0JTzc+vfVoTHDunXhEg8bvjTDMEQIQaPRmBa2G9ErMsP7+qUrh9m3tizh9eWTJ2PRdbuP23uC+torTwZ3VnEv5Exr3TELuIzG1Cbx/eYL/v1jK1SYCxyEhE0T6BgQJImGEMZiBfUaEUk69AcrWSWGGN74DHbrYaA1cH5smqXH41LN2T5otutapFo03V5M1+w1msJew6vzpZwkCUceeSTnnntuR/o2qTEDkxnY7QF+aGgoi9ttoLTDmEE6CAJOOeUUgiDoWFvMNzD4SOH69es5++yzOwYcl4i5eZs0Go0GrVaL5zznOTSbzY6ZlvaAaMiUIXVmoE+ShOOPP55zzjmno85c2KTMlm/z5s3U63XOOuusacQnD+6m5qeeeipDQ0NASkAMibPr3vZvM/dMec8444wsThnNpo0wDDnttNM6tsYqQ/5NGdesWcMpp5ySkba8eD45TL8988wzs/q1iZhpr7y0Nm7cyIYNGzjvvPM6+qRNOotW5I/jmM2bN7N8+fLs3C6Db4FlU/+NRoM1a9Zw4oknsnPnToIg6Gg3e+kZl8wDNBoNhoaGOPPMMwGmrcfnI2C2bJOTk6xcuZIzzjgjK6edvq8d7OcmiiLWrVvHOeec0/OuBVprRkdHuwesUGGGOGgIW/bCwuhnBMg6IokZ1wo5spFAPATDQ6z5hd/hgfe9lfN+/Y3oEGRr0OjaUob1ldxR652atG546Utfyvbt2/uSYHh4mCuuuKLneGbwWrZsGa95zWs6iIpPS+MOhubeSSedxOWXX96hqbDJg/01b5PNIAhotVqcfPLJXHbZZQRB0FWrZNI09+I45rjjjuO4444rJFn2em828d20aRNhGHLUUUd1JWoupJSEYchrXvOaaQv6doOp302bNnHttdfSarUyjVsvGBkZ4dprr83VdBUhSRLWr1/PFVdcQa1W6znvJEk6iK5BNw2tub58+XI2btzIypUrO4h0L22wdu1adu/e3bPsURSxfv16LrroIk444YRCslSkabzmmmumfaAYFGkNTXtfffXVGWHrVUO3efNmrrrqqp7bPY5jlFJ91VuFCr1CHyyHEEIrgQ5BB6ChphHLtdh8kT7uHZ/TR//pZ/RR//tT+oQr/lhTX6PllTdq1hzdmY5oH6ARUiMCjRRT1+37s3EINBKNWqE3/8HHNWe9WNekSsuDaMsgF7xu56a90jZD1jVCeNtTSpmGsa5//etf1xdccEHpPmH/BfTDDz9cOp45lFJaSqmVUvqRRx7JzqWUOggCrZTSQRBk15RS2REEgQ7DUCultBBCv+9978vyMPmYeFJKb/4mjFJKf/jDH077ulLT0vGVwdShOS655JKey29ke8lLXqJf+cpXZuW228j8NnLafwEdBIHes2ePHhoa0kNDQ1oIoYMgyG13E8+UU0qp//Zv/1ZLKXWtVpuWr13ndn3aZX/44Yc74ri/fWU26Qkh9Kc//WmtlNJhGHaEd/Ox28SkH4ahvv7667Py5LVTXpts2bJFv/71r+8IUxTed5xyyimF/SVPfiGEvvXWW/ULXvCCQjnderXT2L9/f26fdMP7joceeqhDHrd9fc+UeU6EEPqWW27JLWe3IwgC/clPfnLG77zqqI6i46DRsAHpV2c6GRQAQYTWAv3Qd3jwXT8woSBWiLiF+PqtrDzrTPbf9gTEMYiEbGJiUCNYfSRHn3Iek4/9mMfvu3dqzq2mwkzRbiclA9ZddCVP3/FJmBijjCHYmFsg33xp/+7mm9Ttnu27Y+7HcVxau+FqT2wTkG3acvO375t8giCgXq93zPK007TztE2ixtRWdiarT8thm93yfM3saz5to/G5M/IrpTpMuXbdmDztdMIwRGs9baeEIvl79dmy77syGFOqb/kRn7y+urDNhjby0nXD9FKGvHL1ct3cc5dd8WnE8rSurs+bL1w3zZebn+/5duvZ/HW14f2g2gC+wlzjoCJsABpBIjRSgyIhIgIhEFEjI1qaEI1E732Mcy96BV/99ncgngARIVCEh5/AEb/wi0SHrKd15/fZt3cfhBKSpCJrswUNQaCIDjkB9cab4LufIWCMqIOwlSNDRdf6HazdMLZp0AwUPsf9PLhmTt8g3k1Wd60yO01fXEOEjP9aLygaCI3s3Ryx3TKaerL9tVxH9DzCY98rQxDLyuQjykVpTk5OdpBFm0R0y9/nn2afdyNrhizbTvB5HyRFaZjD3t4sD3kfPa6/W9FWX2VM9e4Hh33fftbse3lpur+llKWe0SJUEw8qzAcOPsKmNRitA7QX8RBkK+YCiHRSgp7cQ33LM6G5Euohw+dcxBFXX48e38vTt/wZoz/5f6CboNsPasKCEzYhBIcccgg7d+5cWEFmAXEScOz/uJGH/+nzENXSduoT7ssfiklZPxo2AzNougOsK0ORP5utQXLvFw1wdhp5mprZgp123sDq873yaQ3dsEYD2K2NXMLgLkthh/XBTd/1+3PD+jR99n3f4q9uvKKy9AtXm2pfs+uobD4+bZOvvey/dtndiTGurL5+Y+L78vb9zvtrfheRPF85ZoK5fM4qVDA46AibQSJ0ewN449wukTrVwGkBCM0Ik/znU02Ck07g5Ctfw84kYduf/zrJgz9BNZsoNImMU3f4pHNlsIV8dFeuXLkoCZvIWkIBkmTDFtYHkzx8z7fhmCNJ7t+ZkuO0gdptVw5lX/7md68aNp+WxzdYGtgzVc1Ab+IbwgfTzZ922kazYM9w9WmIikxxvjj9aNt857588wicC7NMR5HWwkcEyhDtPBLtlqWoTuy6s+MEQTDtXp7Gr+i8V/TTZ4vSKUtwbfg0wzby6tomuj6yWyZvQ/jyyuNLwyaaFSosBhyUhE1ra9anaP+nBQGCiBFIxmA4YHxoNXWtWHfec3jgL36byb3b0a0GJPGUMk2nh/3IL/R31tNPP73AEvQHjQAJYTJMJEY467du5gfv/nWQy9jyi5dw/7afIBoxoNHI9G8JrYH78vdpunzmlzytSDfCUWS6KZLXZ2b0aXR8vjp2GJvwdSMnZrDMIyBzjbImsdmAj5yXQS8aO3fwd/tSHmEpgzKkzGce7CWPovDd0nBJVzdS6uvrdhl7kdn9SOglfqUZq7BYUH1aQEraREJDKGIxASRs+PlrOO2mjzF5QPHUpz/I5M5t6MYEJOnCIFpCmzMATE3jWKAiGGitGRsbW2Ap+kVCmAQ0abD85Vfy5B1fQO7fDtEYR5z3QhAryazX5GvXfF/VM9GwuYOJb3Bx0/INPEYDYfuZ2fHd+3YYex/Obumb3z7Z81BWQzNfKOtDNV/I0/64dWuT5bwweenPFIZ824sUuyS/TD55mkqfGTgvTpm+ZKc3G2Stn3jdtLIVKgwSDnrCJrREJIAOETqB1Udx2nV/Tau5mv+88a2csFYC4+g4QFIHEUHQfilYH7K683T+IGV6tBGGISMjIwshyYxRkwFJWGf1K36XkeVH8tQ3P4Nesx6ae7m7vhaWbUHqYEorip+0dZvpaL+gfQNZvy9wN41u6XQjUG56Pu2N/deQBTtsXlntw8Trde2qfuES227hek07TzvUCyl1ibi7v2y/WjGXXBRp3vLOi7BQ5KMsMTVh3ThuH+ylL5r2KYMy5vgKFQYVBz1h0yRopVE0qSM5/M0f4uFvfIn1W9Zyxt/8HXe/+w0wvhsEJKKJVCHEahpZW7DHPo6ohSFBEALQarU477zzspdfEASEYbgo/DRaOibefAaHP/8iVhy9idM+8BXWvP9fOfoTd6GGV3LGn/8p8YqVUztSkV/vZYlAnoatCL5BydaE2b/z8shLs9vg0002o4mzdwIAP1EwskZRlMXpNhNxtlA2j37Jy0zKMBOtSxRF0/ZXddMtq+XqBwupLXLrPE+7Z/91NZJF6fWaf7cwPm10hQqDjIPSh20a4mFi0SDUsOu2TxOcfgE/vfNHTPzdB2D3NoRO0AJkqEiimGxW6ICg2ZgE62XzjW98Y9rLaJCRDTFCIHTMQ9/7LuJ732Dy8QcJ9z/OLiGRa07h+Df+Loy1zT1alJ9xQKcZy3V2dmdT9uq8bqdpawl8vmu+PTVNPEOifPnb6bumQld2e2mHorXgbB+2Xvc8nWsstAw+8uGSXx9pd5eHcH2qfJo0H6l24y4G+MyiRb6gJozpg+a8l/zM35mYzxdbPVc4eFERNkAwidbQIELe+jGatEBLZCBJEGgZEChFHEeQDBZZS/fbBFvXtNhePqJ9JElCcN930Pd/n0TV0VEDTYQQkIzeR7RhEwwLGIUQRYve1k5adPWSQ8rc+938k3p1bh8ULBR5zKvnMsgzuZVpg8XWPj74ymCvTWjqwf4wsds5jxj7iKAJ43MXyIP9AePmnbd3bD9lrlBhLjD4drK5hgAtNQiBVpqYBogYRAsdNVFxjALiJEYvkoURDzvssIUWoSckQIxEE9ASkgYRzXgM0MQIVAJBY4If/8dWOHIzCGj2aIT2aUN81/uFT5PSi69TN7jy+vLIM++W9RWb7TpZrJhNPydXo7YYfKhm4gfo85M0sM31Rpvsm0jj00jm3SvjRpBXBt9RJsxcPN8VKpRBRdiMA5pKdykI9TBTC3xpNAkkGh23tTkLby3qivlyHp9dpA0hdYjUtbRnBjGJ1ERCECNofP69/MIN7wU1BLKx0ALPG3yDgjtxwL1mTHP9aHTctLvlVXSvTPpF990txorizsT3zI1b9LuoXD7TtCt/Xn6L75nNRx7RcpFX7rJEaDbIdEW6KiwWVCZRAw1oTUuMd8wi0Gg0cWe4AccTTzyx0CL0gXSebcJkepp03tIk8PRd/L9XPafjM6Ob/4lrSnHjzab/Sh75mC3kaR/sPRGNP4+9VU638rnaiTKaA3cle7ucExMTaJ2/NZVPK+jeN399Ezfc/EwbFuXZDSZ9o/Hx3XNl96Vh13lRPN95N9l6RVHdFiHPfJv3LHWToegZKFu3M8kjL78KFRYbKsJmYL+jBW2SUGF+oTt+Gt+2lK4J0AFNGYJSqe9ecwzfYipKKYaHh1m+fHnXHPMI27JlywrjgJ8AGh8ZO34Zcmg0MUmSZEuz+PxtXI2NIWem3FEU0Ww2Wb58OWEYMjk5iVKqY2cFI7tv8/c4jhkZGWHlypW55bflMCTREMR6vU6tVitV9z4IIVi+fPm0chchDMNsP9QkSXLzLjOoB0HA8uXLvf5TtkxFstj5u5o1l3C65QzDMLfvdauLkZGRjrq3fcTsvIowMjKSxc8jbL7rpj/5nju3/+f5Y5q2L1NWH+z4/cBtu15Qq9X6zrdChbKoCNsSxwte8ALuuOMOJiYmFlqUviGFTDWd4RGM/NyL+W8vfhmTMuHLr3sZMN00GkURY2NjjI+PF6ZriIdvlmhRXHfg0lpnpMcMPGNjY9Ocmu04robIkCfj1zMxMTFtkC8zgEkpmZycpNFoMDY2lplGXQJik0uzBZS5PjExwf79+wvzySMxjUYjSwPoWeOVJAmjo6NdCZtdt4Y8xnFMo9FgfHzcW19l/MeSJMkWni7Tdm4aURQxOjo6TU6XMPvKJqWk2Wx2LHxdFN7F+Pg4rVYry9/em9PVZOWRr4mJiSx+WQ2bySOOYyYnJ70Ld9t14JPBtOHY2Ni0sL60bNgzTO267ya7+3yatutVK661pl6v9xSnQoV+UBE2H5aQau2rX/3qQovQN9KVOwTRYccwfPgmzn7127j9e9/jn97yFmA8XejY8261iVg3+MyGPrNYNxgNjxCCVqtV2uxnn9tmvbz83e1/zNIdcRyjlKJer3PooYcyOTlJEAQopTInb98g7ZodezF1uedmALQ1dj645Ngd/O3rRSTFJgqQahhXrVpFkiTU63WazWZHPu6gnUdA3LryET1XTgN7tqKdp63tMlpRnwy9EBUf7Hp3l2opY4It6gPd8nc/LHx55sngxp1JXywbxn0+e9FEumg0Dh6f2goLh4qwwZIiaEsGbXtosuZY1v3e/2H0v37M7b93GUzsbQcwZG06Y1NKlf5KzjPPdIsDfg2E0Zb1A59juo8YuX/Nb6NharVa2XmRNqifwdGV1ZABV+Pl0+j50O16HvHL045FUYQQYtoAWraMZch1Gbnt3z4NaT913itck2gv8WBmPmx5pLzbs+Mzn7rop966adh8Hw1lMdftWKGCQUXYKgwgAtABLBvilLe/n6GNx/Cjt70WMbkHUOkEhALYZrIi7Yg7MORpY3zpu2na6QZBMC28rfXrJlO3TbS7wSYKeTOG7TyNFk4I0eGTVpS+61/n5lGGfNrXfYNmkabUHtxt0liUly1PHtx07PTyCERe+t3qoEjT2C988vVKQGYjb7tNe9HszYa2Ky/9vGt5HzIVKgwaKsLWVuUIkkrRNjCQCGrozSdx75c+zVnPuwBaB9AoawfR9syQAYOPvPgGId8kAF9432Diu+bTYuSFd++5G9Gba0VwzahunkXb/fiIaFmiMRPy0W/cMkStKF4v2rhe0I9MruZqPrR8FQGqUGF2UBG2NiSQCIXWcfWSWXA0ETTRW+8iflLx6NAIxC0kCYgA9OBvtzUT9DsQ2xqzMijSYhTJYAin+W3yNiRNSpnJ4CN+Sim01h3+d3n55JFfn0av2zNbdL9MnZchbq453tWy2fU1F++ZsnUwl++3PE2bfc+n6c4zifo+CGYqk3uvMolWWAyoFs7F1tcoEEH2AMr2vwrzj0QAcQPGdrDmZy4GliNFQKJbaKLMLKr1/Jl8BgV5JtvZGoxt85TvcMOY2a1l4+elt5AoU0ZfOPfwrdrvu5cXbqYy593vJ92ZpJdHrPPy6fVvr+hWT3lhy/bfChXmAxUbQaMR6TpfwyOc/MKXggjxTj+sMH/QQNyEicd46q4fsvGV/5P4yGdidqBIlcMHXxv5fKygc9DpdYZrPyZiNkoAACAASURBVOhGOIoGNxPXltsXfyE03bNlhu3F122usJAfMmXqMc9f0P2b1+d96RTJ44YryqOXo0KF+cKSIGydfk39wRC2yeFDgBBxEJKBQYJAIqRA6nH2/MM7eXrbDzn9994Byw+DIYAaByNhM/BNCvBpIeaS8PjycbVHvjhlNRMLNRgWmTTN77zB2vUNyyvnTM16ZcP0QyqKytbtXlmZis4rVKjgx+L0YROAVtDezkiiiElIixP3OYFAghwiliEIQbXTwcJCI5BJgKYFWlO74++4e2wv689+Dju++48I0aRMC3UzgeQNrL2YfezzsgNxUbhe8zbaqF7iF6VVoTxcLWDZJU3KkpvFgqK+3+3ZcvtvhQoV/FichA1AQKBFuu2nSFBat0lbHwOOmXCYhCgAoVPSZlCNYQsAjSROLaN6iInTz6d2+AksG9/NDmogJ9qObrP/op8paSlLuLo51JeVo0hj0atZsR9tzEzry+dYPltpzzV6IWNlUeS03488vSKPQHVLu5tJ22f2dn8Xkbu8eujn48qX50z95CpUmGssTpOoBohJiNFCkijQAlhxCIc/++cJYcpCWnJMlwjQAq0TWEzOpItEzN6h0ei0LRPNyZuPZx372XbblyC2Joougg/zsgO4GdD6NWHlme96lWOms1TddeTKxvNhIZ7DbkSim1l3UJzSZyLDTEy2M5kYUJT/onknV6gwR1icGrb1h8Np56Jv++eUrySKhAixZgOHXfwydn3nXzsH8m7PudGwmZfbAr8Xpq0wpikmJkvxPSYgJlV2Shrc96kPECPTG0lC+q2xeAruLuNQxonap13wac/cNOxFg92FZ4sG1X60cTNZEsHnFzYbmEk6MyUKRb57/aY5G5jP/HwfCT6zvXvP3vvU96zYcfPyKyOTna4tR9EzWYSKSFaYLyxODZtaBkecg9Jt1ZqO2iRHE0nZZR388liIL+QppaAo1A6mt1IfviUJrUEnRFKj2+QthczuQZvczmCQ7SduUb9wyVHeTgM2XLLiG5DyBj5gWh5me6Zu/Xc2TXdzlU5Z7Zs96M/kmXUJba+zAbXW03a6mCl6JYzzjTI+auav3SfLPkfdNJZlTJm++K4cZZduGRQNaoWDD4tOwyaEQO8fh9YwEQJFnI7fAtABkVTp71nKq/0LmL+XoSGfqTZJgYi6hhaYOpgPCecROuVnKcqRU3vZCOhOCHr1Q8rTUhnSIES6n6hvfbJuv4UQ0+S30za/3U2+TRx7mymtNVGU33fyfHfmY1mQuYDWmkajkcnvI1/d4GoN7Tb15edifHycOI6zdlhsKNqSrAhKKaIoyhZNzuvDeTDhzcdHrVZjcnKyVF808Uz6tVot21fWwPdRZLTP9t9+NL2L9XmpsPiw6AgbAFEMrQiWbST8uVeweU2N+//+f9HSqdZp9t2a2qRojp2ghRCpq31tGNEYpRzzVECMGBlGyxHqQyHNXU8vnS+/acXo/nKMoogXvOAFHH744dRqNYIgyB2IfI7Rq1at4oorrshN3yUCSZIQBAFKKfbu3cuKFSu47LLLqNfrKKU69hA1g7hPHkO0TjzxRK666qpcDZ3ZHcAMFGEYkiQJcRwzOTnJUUcdxZVXXkkQBARB4CVtZoAy5MKUa2JignPOOYcNGzbklt/AxDM7FgCcdtppBEFAvV7PyGeRKdgMkEmS0Gq1UErxq7/6q9RqtQ7SW+SLZ4jq+Pg4J554Iq985SsZGhrK2t3egSEPrVaLVqtFrVbj5S9/OStXrszyVkpluzPYbe/T7GzZsoXLL788K78JZ37n7Ytq2uT000/n8ssvz8pva3K6aQ9XrVrFs571LHbu3JmV3aRh5+WWwyCKIg4//HDOOeecjt0yuhFWIQSNRoNNmzZx4YUXcvTRR1Or1bI+asvv5mnq2PTRX/7lX2blypVe7ZVbn/b1AwcOMDIywuWXX87IyEhW17bWNU8jZtI9/vjjueaaa3ombI1GA601k5OTPcWrUKFXLDrCJoRA14ZY+YJLOf2MdfzkH/+Ou7+/FxpNUKmJtFfCJjRMOYp1N1/NBRkSQiAkHH/pZdz/Xw8h7/tBOutVJhlpScxLFmMOFCYySX0tG65+C62vf5rW7h1ovfi+7mcLUkr27NnD008/3dfXb6PR4Kc//Wnufd9gZw/eY2NjPPHEE9k9YyIzxMROw4YhPvv37+ehhx7qMMfZ/c6QEJNWEAQdxGbHjh0d8buZilzNw5FHHslDDz1UXElMETajWQnDkA0bNhAEQZa/S9jcOjSE1Cag27dvp1arZSTKZwbOK8v999/P448/ThiGNJvN0s+qqatms8mOHTvYsWNHX1qyxx57rLDvFEFKyb59+3jssccyomjyL0PYjjzySB599FG2bduWlceO001LGMcxURSxbdu2jr6W59tlp5skCXv27GHnzp3cf//93rzy2tC0u1KK7du389RTT3nLWkTY4jim2Wyybdu2jCya58neJs2Oa54j82EwOjrKww8/3DNhMx89zWazp3gVKvQDvTgOkf5dv0mf+sFv6y2f2apZcYRWAq1ASyk0m8/VJ77jI7oGGmkdojhtBVoiNetO00e87PUaOaxBaiFU+5BaCNFxzGrZLPnUpmP0xR/7imb5kToM02sSNGq53vT2D2vO+AU9JKVO57SGmqCuWXu8fuaf/INe/eJrNMEyLYQcgPaah0MILaWc1h5f+cpX9HOf+9xSafjactu2bV3juPHMuVJKP/roo1oIoZVSWrRlzMvLTTMMQ33zzTd775nDpGcOuw6klPpDH/qQDsNQCyF0rVbTUspphy2PiW+uX3LJJaXqzk1LSqkvvfRS/YpXvMIrp688UsqsngC9e/fu7HcYhh3pu3GUUtPK9PGPf7ww727t+sgjj2RxlVK6Xq9n+djhTJ25bfrXf/3Xular9d2nr7vuuizNWq3WkX63986pp56q3/jGN2ZtEwTBtPjd3mPPeMYzcvPJi2t+f/7zn9fPe97zOtrTF9/ub3bfHR0dnVavZWQ2cR588MG+2930nX7bDdAf+chHZhS/Oqqj27EoJh0o2Z4RuPpYnvOXH+OuG1/L8ROPQiiQOg2jEw1xRCzj/kyiApCw7rAjSM2MXYLPksM1gNSgkCBD4sd+yrff814OveJ/ECfprJC0keK0tcIWCQkCgRYxBEOceO3beeCrX2bvl/8WojH0Et8cfa5h+9KUOQxsc5PPab1Mmq4fTVEYA/tcKZVp3IwPm9G+2YcpJ0xpHlzTYz/1VkYTVATbYd/Wuvnysn33TL61Wi0LI6XsqE9znndAWt9GhiRJaDabPWlpV61aRavV6sjbpDvXaDabhGGYncdxPE0LPJcO87brQT9p+/q/K2vRpAPT78rWtRuu6Jkr8/wPDw931H+FCrONRUHYYp0wdNK5vOBvPsf3/+CtsH0b3/rLP4fJiNieQRg1qYkYnT1E3U2cALHx2J84wNEnnAgy3UVB6xgpRS4BmpWXsIBEKBJCVBIhtabxwF2cfPIzSJZvRIu211bSJG5qCDcgdA2BZlgIOP5cdLyL8a9+ChW1Zi5PhWkDdJlZYj6HfZsgGYLRLS07vEnXju/et/NxZfWVpRtmg7DNJI1+4trltZeGcOvcR1xd0icss3UeuXHTtRGGYa7P13xgLuq+LHExvn4+4lNWNh8RMigigSZOXpg8kmXfmwlcgl6hwlxgERA2gSBk8t7/4KuveRnRE/dCMs7oD74OjSYJMl3pAQWtCVYM12nSpmra+Ke5KWJW9EqhQEsNrTGGV61uEzaBUiFJMhe+YBaRFICM0SJCo0GCGn2MH/zV+znrLe9Hj6xAC1DENHbspb72KEI0EsHE2pP42Wvfwv2f+AiIZpu4LvIXhuj40zXcXCPvi77oS989z3N07mVQ8vnL5d3zzdArg6U22PRSBy5BBv96Yt0QxzG1Wq3v2ZZ2Pv34X/bThkazZeDrXz7Cm6eps/3ufPeLPnqKnpk8lNEWdvvI8slR9jB1aCb+VKgwV1gEhE2jdYTQLcTubTCxi3QNrhbE+4CkPXhrODBGa/t+GD6cdMMCsxDu1Opm5pBAXQVp1Ah0ksDkLh6uLYOhYUIU+lXvRi9bnUpR8OXWT5lAT5GOGKROt2FKEo3SCc37vsl9n/sEp/7RR9DL1qAFjI3tQa8GqVu01pzMxW/9Y776h7+B3nEfxJGV9mKD1TZaAAGa9XDhKznnk9/jnBs/CgiGJIRADZEWU4BmZhqd2TYLlU2zV5mLyIN7L+9L3zb/2YTRNQse7PCZs8tqYVztaD8ExCeLkaefeGUw11rBxfAxMJN3wVyZmStUsLFI3tC6/a+NRJMaQmNzO3UEax7g7n/4K4j3w7QXxBQp0ChiBDqOqT3j+VBfDQRI4KlYISNFa/nhnH3hBSBSn5ii901fLyPRTlQLBJJEpU0RAi0iRDLK6I8+zxPf+S4rf/71kASsfvp+Vu96lP3P/kXO+9P38rU/+l3Y9xDoSVjkLwph/Usre4yTfum13HndG7jzprcjzrmM/8/eu8dbVpRnwk/VuuyzT5++0XRzbbrpboQGAWmuRhoQ4jijCJmJiRoDahwTJ2giBgU15ktizOU3cX4ao78ZPx2MoGNG5zMxKoFA1OAk4BhjuDQgAtKDcunL6XPdl3Wp74+933XeXbtqXfbZ5/Q+3fXA6r3OWnWvWut91vu+VbXz9gdx8ZcfBv6f2yDGtyBzPx4xLKff0lLgSBU6Rb6DNlQVxnzhYp63XpZh42gmXYd7zB7u/B2ODqwQwpYDBXRVLQiTJpK9jwLRHCDFwtHH3WIooTDmhdh5zVuAY3ZCwEMqgL2/8Uqk/hTk9Tfjhb/9IjB/EKK7uH7eC6vSy4y4o1KAUlBIAZVCCSCGB4UAkVIQUYzJb3wam87YCVxwLZ6/5yvYNzmD7a98Fb5701uAyb1QR8hOBx29moBPjeMrbN84Dzz7FILX/Bq2nXEa/uVX/g2+88ZXQB6YgUhGz19vlAVaGRzJQqes47gNZduG+8DlxS+T3qj0R1U/tOXGsMjwcsdzcKiKlU/YyByq0PXsqgGp31G+dQlRn/apW+vppIWHH/4XHHPxz0DVVgG+AKangU2n4yUnbMDTX/4MhEgBBABb/NRalAE1bRKAl6I7aTcBZBuQAkp4wOwUfvSZP8RL3/luiOs+gtPedAOe+LM/BuaeA5L2EbQzleouetw1FYerkDQawCkn4bJ/cyme+Ms/h2hOot5+FkjnoeToL1LpXuRHF7jjexGJWGlj43BOpCiCXrZRLaeDw2Kx8gkbmcWEQowEEdoAYhCJY3bUhSNduB3d8WnseNUrEJx8BhDUITacgrN+44/x/d+7CaI1DZUkUCqB3/X7GQpp40G6/ETxiQi04opSgJDA83vxwKc/g7MvfTn2/tc/BaafAeIIIqU6rXR0DN4J0o6RWwBAC4FUwMt/EX//vrcCch7KbyIdq2HTi86BEit/6DocOTiSScKRXDcHh5WEFbfTgRHMAb10eHS/zKI5fPfGt+Osmz+CZ/bPYfsFp+IHv/dB1NJJJDRfASlU2rvCfBFpKzRnqI7bXdftu3sxgYLsZCrSzhRXBQCzmPmnL+DBf/7/oFpTkF1D6GgYTIYD8kqURKjjFGImwM7d/w6P/M8/A0QbIpHwL/+PWH/gBexNG4e5xA4ODg4ODsuHI4OwAQOxl8yROPop9nzoLRCqhn8RDah0Fi103N8UuvxJdXRgtF2MUotYILRL1jrLAYuFKRVCAKqzN+gCq+wuTxI3kSZNoLt1w5GhWWPoqBk71lDhod2ewPP+VuCFfUAyhzAKobbvwtn//hdw32/9IkSLJiccSbTVwcHBwcHBjCOHsA2ATBOWRAiSBCnaiD0BPwFiCKS+AlLZ9S1bWLyUSNvAK8NnZlAAGWFDlxnGfT53Sna2FPWVRCw8dEy+RzDSGIDED7/3d1h95dU4+xN3AgIYn5vGfTe9DuOtGTRKL9jWDdbtp0GWO1hO5+/lND+ZZjKOiqP74QRfeHep1rNbiqVfVnrfFS1+WxYrvR0cHGw4qglb9mAnChFSKHSc+BcWoFWdNd+UXHAvU6pvccRBXhCq5yybNmpYnqNDFhMAojubNHeNkZUKRT8CCVIIHMTkf38/Dv3Vx7B3ZgrCl0Dahojn0RJeZzeL7sxdlZrbn0zYdA70L9FgEhB81XvborcUTr9OpN42W5DnYbtGq8XzMvJfE/TwPA7Vhcd3RM0MWxvZwJcD0ddg4yjbvnq/8L6pMrO0ap/q42egd5pS2djV25GWTuHPhCkMgVsv9HFtWkSaPzvDXHDY+e85jBKOasLGoWiGArmNEXNTAJBYX2CDCrqFV4plMTG6pNIFLrfIPFcCOq3RXRgZCji4t7M6WyQBIeGrAB4UYpUiFgpCib7WM83I0/fPNIWxCa2yL20SWJzw6WUqEr5xHPeQxTxBYkvDttOBjXyaFno9WsEJN/0NmMcLbzfav3Ux+6jq0PNc6qVAbOOmiABx95AoirL204mV7UOIztM0RRRF2X6wRTt28HiUvy2OqS31ZyyO+y0XS6EJdXAYFI6w5UH1nRweHDUytKNpFNlf7Ascadd3TyKCj9iTEKoJpfoXKQWAnTt3IgxDK7HhWicSMJ7nodVqIQxDvPSlL0UQBD0+i7ZFVklICCHQarXgeR52797doymjOKZtj4AFbWAcxzjuuOOwe/fuHq1gngaE0iKBt2bNGlx22WVZviTQTBoOPe12u40Xv/jFmJmZKVxMlpMaOj/99NPh+z6uuOKKvns2UP5RFMHzPJx//vlYvXp1D9G2bZ3E00+SBOPj47j00kshhMj29SRBnFeOOI6RJAk8z8Mll1yC1atXZ+WhuHwzdd6vRNTn5uZQq9Vw1VVX9blL2LRJRDIAIIoinHLKKbj88suzOucRHR0bNmzApk2bcPnll/eUzTbmCFJKeJ6HRqOBU089FRs2bOhrZw5T30dRhNWrV+NFL3qRkfibtIU8DWrDiy66COPj48bxrY8B3i7NZhO1Wi17bvX6mp5ZKWXW5/TcUdvTc87fESbtJ9Dpt0ajgSiKjvoPHoelhSNsDiMF0jeyRU4AdD39ZIQYPsTEyTh9927M/Oh7eO6HD0KIlPkEdl7mGzdu7CFiXNj25dl96RNhq9Vq2L59O3zf7xPUpm2fuICan59HvV7HKaecgrGxMQAwTlLRBR6ZctrtNlatWoVTTjkl0zTYCBsJYtLqpWmK+fl5nHDCCdixYweiKEIQBIjjOCMvnLBRu5DAIsG3bt06bNmyBbVazSjkeX3obyKDxx57LMIwxPbt2wF0BKPv+1Cq40pAdaV4XCDS39u3b8fq1ashpczIFsUxERjKu9FoYP369Tj11FMxNjbWo1WlstpIS5IkGVk/+eSTsWHDhqxNbEKb5x0EAWZnZ3Hsscdi69atPX5wer4mskJlWL9+PbZu3YogCPrMrUXE1/d9bN68GaeffnrWr7Yy8LLQpu3T09M44YQTUKvVMo1hEagNms0m6vU6TjzxxJ568fbSzZy8DaIogpQS27Ztw8TERDY26b6t/IT5+fls3E1MTPTseUqwuT9QuqtXr87GLe93Xh8OPi6mp6dz3zEODsOCcoc7DvshoCCFAqSSkEpAKsBTgFQQUGEwrlBbq45/ywfViz7yV2r8lW9Ur/ztTyhgXHkSSsLL0rrnnnvU7t27VRAECoASQpQqg+d5SgihnnjiCeX7vvI8T0kpS9eB4j/99NNKSpnlK6VUnudl96lM/Jzf+8QnPtETn4el9Hi+PKzneer222/vCyuEKKwLpfPqV786+9t08Hrx9AGoa6+9Vr3hDW/oyZu3I9XV9/2sTFR33/fV7OysCsMwi8fb1tSGlE8QBEoIoW677bZKfUYHtfGTTz7Z09Z0nedrGlO+7ysA6vbbb+9pax6f2kFKmY0vuk/HLbfckrVN1Tqcdtpp6h3veEfPWND7zXRQHwBQO3fuHKjtAKivfvWr6vLLLx+o7ADU7OzsQPFoDDz55JMDx/d9X916660DjR06PvvZzw4c1x3uKHM4DZvDaEB1fkinoDwJmQikXgwcewKOufrXUD/7Esx85bN44raPYtWZl+Hh730PkCmE6qxgRyBzWBR1tq8q+9VLGh46r1wFpoUzfY2b/HZ0cFMMaVVM5lP+xU9aHtJ2kCmP14drpehvbhIF0KPV4HHKgjRCpA0j6Jopm+YmSRIkSZL1Gw9najv+S3FqtdrAjufki6ZfM9VBbxfKj7SqvJ2pbqbwpjKYTG8mvzATSJvJ8y4ad/yaPuGlCnzfz9pPdwGgutjS5ZprPZxuWtbT4JpI7kagI0/DRv2T54OYlyaZlR0clhKOsDmMDKQCOouWpIDyseYll8DbsA0nXv+b2HfXl/DULW+F13wWUnhIr/o5PPPZPwLSVtd22isYdIGoC1D9Ot0jE1GeGcaWFuWp+7wppfo2BNeJlE6gdGFbZA4jeJ6XmT+rxKOwensMApNQ5Od5ZVqMScnUL2XIh62PedvnkQh+PUmS7GNBn4Biip9H3PSwZfqySn8X5cvTNPWbqZ1Nv6aymT4eeDqmcpnMzNw1gMiWqW9MH0ymcFU/UijtgZd4cnCoAEfYHEYOQnpQYg3WXfN6RId8PHjDL8FvPA2RNiGQIhpfj7POOgMPzRxADAWgu1Adk33kVMy1VEXCyKaR0F/EJsHFv7RJy5D34jeRPS6A8kiPSWNFf5MvEPl+VSnDIMJqlGCaWFG1PhSe/PrKpEHjgfq+3W5nZeGEwpRWkeZ1GH1SRJLL5Kc/QzoR44RF/2DK++ihc9Jw5T2PtmeiSGtYFqYPPVv5OfhYcXBYSjjC5jAyUOispJIqBahJ/PgP3w0oCSQRYiSAlyJOahg//ny0/v5rUKJrOhvihgdcyzSIacgm7MrkawurC7Ci9IoIgC38SiZrhGFoOUxm6LLg5jnuNG8zx5lQpKG0IU9DqmuabFrisuBjxtZWXCNm+8ixlWFQs+ygGtzFaH2dZs1hueAIm8PIgDwrs3/ithZAYlxEUC//d3jsLz8BkXTuK6X6CNtiXqI2M86gMC0CqudXJEiraGHKCngd3Dx7tKLIVMmR1056/LJkrWo+y4kiTZfpo2JQ4sVRlEaRlnLQZ3gYZXdwGCbsCy05OIwYPD9EQ47h5HPOhZjdD6F6p/0TdOKRR0RM9/TzooPHqWqeMWlEBnGYL5O+Q3mUWSxW/zuPKFTRsh5OklCkXSwa33lmS9tzaQs/bFRJ0z03DqMIR9gcVgzSqInwmG3YNHcQylewidQqPjsmDPtlXVZYm4SlECLzh+IHD+d5Xs86Y3y2Gl/8k6fFy0VhKB0nrAYHb2PeL2XijQIWo43iGIbf3XLEWYo0HByWCs4k6jCy0IVAWKsBfopg7idIk4Zx3/dREXxVUTQTkDtE65qJPE1OXnplwjlUR54GyWHp4Nra4UiHI2wOKwatZgt49nF86w9/C0D+PoMmmHxSVpqfykoq69GIo5GscQ2uI/4ODksHR9gcVhAEgGhh+Y4hzg51cBgWTKRtMeRtpX1UrLTyOjisFDjC5jBi4C96/rXeYWkBAkgItBChClur6tdm0hbkaecWI6TKxMvT2PB12PRwpjXdKJzu5F5VK1Q0G7XsshV5YcvepzC2+hbFG5ZmyNYmZcZHmbE0ijMedXO+bqIfVr5FaeX5C1Ydc8McEw4Ow4IjbA4jBH3GWP/2UAoKKUQp5dqggkLfnsmWrmkxUZPQ4IuC8nh8JqK+wTzfYmephMeoaUHIUZ8vQlyGgA27HiaiNWgeJhJDdeN56WOKL/OiL/mSV+4i38ai9f7y6lpEcKIoyrYXy4tjqo++2DSFoW3Gimau8udOz1N/lvhzRnHpOs9P7yfT8z5qz5DDkQ1H2BxWFGKwFcUt78oymrAiwWWKy6+Z8qFrtIdn0ZIF+kxP0/6lZUxquoaNp1O0Hhi/RqSxrBAy1Y+0XEVl1uMUhS+TVpqmA2nYyqZfBnofmgR9HmwzhReDKvnbxnqZeFRX3/cRx3H2N28DE4mkPGk/WPpgod0DgiCwrmVIaUdRhPn5+T5iTDN1Tcu0mAiq7ZnV45juD3M5HgcHExxhcxhpDOKmlqYp3vCGN+Cqq67qpKGRM12bQft80nZWGzZswO/+7u/2fbWbSB7f5FoIgenpaWzatAkf+MAHss2w+Z6S/KVOy29QviSwLrjgAvzO7/xO3xIbREZ0IRIEAZTq7Fd64MABnHPOOfiTP/mTTFC1Wq0sL0qP8kySpGcZkGaziZ07d2L37t1oNpvwfd8qtPW6x3GMbdu2IQxDnHXWWT1Liugkldqb2jVNUzSbTYRhiA9+8IOo1WqZ4NfbnMejciRJgqmpKZx//vl43/veh/Hx8cpEp9VqYdWqVbjxxhtxzDHHZOXi5fc8L2sT3g9RFGFmZgbnn38+PvzhD2fl4uXnBEEfW1SnSy65BGEYZnH40iB8j1sT6vU6zjjjDGzcuDHLX2/jvA+UJEmwceNG7N+/39h3PCyH53loNpt4yUteguuvvx6XX345arVaT5gwDLN6JknS8xykaYooirBq1SrcdNNNWL9+fQ/p4xvaU7vQL43jyclJnHjiifjABz6A1atXI4qiLC7vQ54OtQ/97tq1Cx/60Id6rvG+08kg/R3HMebm5jAzM+O0bg5LCkfYHEYUoudfBdVlb4pdN5M5pRQmJydx8ODBTljNFEkaMGBhH0Au0NI0xcGDB3uEKk/DdD2OY0gpMT09jVarhQMHDiAMQwRB0LMZOwkDAgkwKhcAtNttzMzM9Ky5xgmOLryiKMrSabVaiKII+/btQxiGmTAkUyMnWUQouDmq1Wphbm4OU1NTRo0fz5fXiZOuKIowOTnZQxJNWkVdM9hoNNButzE5OYl6vd5DeDhZ0TUZ1EaNRgMHDhxAs9nM+pTSzgOFibmZ3wAAIABJREFUa7fb8DwPU1NTADokg9LRTdg8XTLlzs/P49ChQ9i3b1+WLrW7Thi4xoi3RbvdxtTUVN+ae1EU9REXHePj44jjGAcPHoQQAmEYZuSoDGFL0xTj4+OYnp7O8jWZ+HUi4/s+Go1GNnZmZmayPqC61mq1TPvLzf/UJq1WCwAwNTWFNE2z/k6SJCN7Jg0b1Wl2dhZSSkxNTSGKoqwvicybPhx003u73cahQ4d6NIO8nrzf9A+4AwcO4IQTTnCEzWHJodzhjtE7PAX4CvCVgN/5W3oKAgrCUx6E8g3xhBDqjjvuUFdeeaUSQvQdUsosnBBCeZ6nAGTXpZTqiSeeyMLSQX97nqd831e+7yshRE/eFHbv3r1ZHFPdeJq83PT78Y9/vOe6KTw/fN/vKf/nPve5nrzKtjm1ydVXX521C7WR6QiCQAVBoKSUyvd9BUBde+216rrrrrOWNe+QUqrZ2dksLi877wtTuQEoz/PUl770pazsVevteZ568skns7TCMMzq5vu+8jyvb0zw/gGgPv/5z2f3qpbD8zx100039bR9lfjnnHOOev/73z9Q29Nx5pln9rVL2eNrX/uauvLKK3vKz8vC20wf11JKNTU11dPXdE7jjPqADv4sA1CPPfZYz/jQ8y86br311oHajsr/F3/xFwO3uzvcUeZwGjaHEYYAvBi+AiIVAGs2I1gVInr+GSTpHESq4KEzf1SxWKQ1y/PX4mYgYEFrwLVYRf4suraC0rD5zHBwDQuZJUlbwB3v+de87cudfLeoTNwExM2xReDaBptPHIfuK0daQtI26nXlmhUC116RlpDqX9UniPImf0Ddf4lrBfV6kyaKtKEmE7atHamd9fySJMnagV/nJlGu3dLHYhiGmZmcypbXJq1Wa2AfPhOqpCOEQBAE8H2/b9IB10rxdPm4JlMzgEzDRmGoDXheejk9z0OtVrPesz3TwwCN1bGxsaGn7eDA4Qibw4iiQ8NEoiARonbhK3Hef7wJzwer8NxnPoR4/09w8jHj+PF990Iq1UfaykInQmQGspnBTPGLzCD6fSInunmQC3qTz06VetC5jbjaYCIqNpjMQ5ycEfJMqyYnbtOkjbzy8HCe52UCXp+xWAYmwl6mLSgfvd9su1PYiBUfT/o4KOpLnqZplnGZccD9JvPGoG4SBBbam9KgNiHTNo0NKgsvE5lP9fTzPro4KC/e32QO5c/aYk2Wpvj8uXVwWEo4wuYwspBI4QNobbwAL3nbDbjvxl9G+Nr3wD/vKpx00vF46r/cDKgOUcujNFxAAP2CSCcMZV/ousbA5CcDoE9rZSqbvhcoaQU4gTTN4iTNRpqmiOO4x2eO/IuIwHANEy87d2qnX9KUFBEEvS2CIEAYhj0aRFOb8PJzPyPf9yGlzOpEZef+W7ZJB7w+XODb8ubgbU1pEtHg8WztQWFowoCUsqfMOnnjPnlEkPVy6vUsqyWl9tI1rzpZMqVZ5gNEB3fep7qYltkwEV89L9Ozwief5MFG8oqe6Sr1Lfs8ODgsBRxhcxhRKPhSop1KbP3Af8YP3v1GePPPIh1fDX/dMXj6929EkL6AGGpBs2YRyLoJxnSPwzYbcyGbcl/+PF9beJ2E0HX+N3caN6URx3EWPo7jHk0MF3Q6MTWRt7zy6tBNXcCCWdJkAtPzJVDZuVmaZvlRXN0sptdJb0db/jbkCfkq8Xk5qMwmIjFM06UJZQjOcqCMdphDHyvA0hGhPKJmu7dYDZ2Dw2JgXxraweEwo50qoLYaZ5+ggOQA0mM347RdZ2P6c78PNJ6DF7cBLHhkAmZCoJtu6JxrVIrCLwa2F3/ZPDiZsd23ka1hCRdqL37wWYz0m1dX/dx0jZO2MoKal8eUV5U+tIUtk47NN85G+pZa6OukdSnjVSG2ZdPSr5n6tcq4yoNt/OjpmMbasN4RDg5l4DRsDqMLTwCqheciANt/Bme+9b14+H1vBSb3QMkYkRr8ZalrPXRTURXY/MeKwtvMNxSmTFoAMid98h/i66rxBXmr1q1KGcqmVQZkAuOO+rqTfhmUMYUuBrpflOlDwWRy5GVbybBpUAdBGXN1lbR00snb3Uau8/LP+3VwWC44wuYwuvAEEEfYd/ff4qT3fApxaxoQMZAkgAyQqDjXd42Qp+UwCVDSHJni2NLhKDK72gQdJ3Fl/G5seZQ5N5WD+yGVMStyvzFdw1dWiJvy4T5oZeqhm5OL8swri+lvW1p6fxWVc9ByLTeKyrhUdcjzFdTbtcz4t8XJ+ygq0+cODocLziTqMLqIFcI0xTN/9f/ilOg5PP6JP8CZH/gY/JMuBFQImnCgw2YSzUOema9M3DzoC+3S8g88ff43X92el42nV0QqbeXU68fToxX8KX9eTn0h17y68lm2vB15/rZ0uHbQFkZPV6/fsMAF+yBjIc9kZ/p7FMxriyUky1GHQTTFo9C2Dg6LhSNsDiMMiQQK8cWvwiOf+mOkD3wJP3pkD1afdi4gY3SW/igPk9+L/lXPndb5DLs8FGnYbOF5PH2SgWkGpp4GL6fN96uMqcdWriItg00LaNIcmv7O03za0qmiDakKXfNSxs/Q1AaOHFRHVVN3kQa6TJqm+4P4Kjo4LBccYXMYYaRQSHH6638Nh773f+ApQOAQUq8NoPyaR3nEw0Qe+KzLQQRykTnHZHI0lckGfRarbcskvayc3OnxaeFWHsZ25LWFbZamfvB09DSSJOnZLktHXvstRqBWJWYUx/YRkGceHaTfjybk9UXexIDFmsIPlznYwaEMnA+bwwgjBQRw3Jo6HqsFEK0ASjQ7L01heHGqznps+us8z/nbBNvLX58dxhfkzHuR5/nmmGALY9L4KNW7krxuvuPrsPG4fDcEis/XgqMjr7y0lhhfdoSbP3WNlak+VF59f1e+ppfJZ0lvAyo/Nyfr/mWLcWwvGkOLmbRiS38lIe8jYdB66ZNzeBvZ3AF4GJpwcyRN9HA4uuEIm8PoIpUQUJhRLaBWQ7xmJ9adcxla9/1pphvm4lGiYyRdKqOFzVRXhCKyoedRJOSKtDVcaBUtfsvjcxJXRtDyrZQonm0NO1sZTdoynm6RVosLcl17WMVkqmsD88pug4kgDjI+DicG1VBxzWneh44pH1P99Ta0TTLg6fDFmoHeJWJ08I8KvvByEfHWP0ScZtRhOeEIm8NIQgBQQiEB8JO7voKdb30TGj89gOdv/RgaD34n15ifKgVPiE4aWHBk17VL/BrXmHHH97LQ9w8lDQAnEQQSCPqXPwkPvlNAGdKhp83LoW+XYyKb/JfvY6pr5/Kgp8UFm82saTqnPUBNWxXl5Qt0dlnQF9wtkwa/b9PmldXQ2ohpXhp5fpVVIIToaTeuheJaU9NkCCFED2nRy0uaUH188XwoDOVJsBHgssS4jLaXnl8O2zp+NvK31IsZOzgsFo6wOYwkVJdtSeHhhVs/ihckABVDRjECSMQqzRbM1cVbmqR4zWuuwQUXXgg/CLKN1XXNC724af0yesFPTEzgN3/zNzPzGhdy+sbqlA6lOTk5iVqthl/91V/F2NhYtlUT10BQOhSfk5QkSXDmmWfi3e9+N4Ig6LQFE3C60OWbpSulcOjQIezatQs333wzgm7d80yiVA7KY35+Hqeffjp27NiBiYmJ3P0R9a2IkiTBjh07EIYhTjnlFGP7cGGpb1gfRRHGxsbwxje+ERs3bsy2p+KbqFN4k29eo9HABRdcgHe84x0YGxvrI8R5RMjzPERxjLHxcbz5zW/G6tWre8zLXIvHoZPqM888E+9///sz8q1vDZWHVquFiy66CDfeeGPPRvJExIpmwNZqNezatStrd73NqB05KaVySikRRRGOO+44vPDCCz0bpusmcn6d4jcaDWzbtg1XX301LrzwQgRBgHa7nRF/3v46Maa+F0LgbW97G9asWYOxsTH4vo+5ubmeLb5sHztTU1OYmJjADTfcgDVr1mTl4mH0+PwjLUkSnHvuubjlllt66qZrck0aNs/z8Nxzz+X2jYPDMOAIm8Nogt6xSkFEDSjZuaYUkIgUeTu9e56H+++/Hw/teRhCiOyFz0mTrlngL+h3vetduOuuu3oEg8kER+BxoyjC7OwsvvnNb2ZEiptqijQwSimcd955+MY3vtFn4smaxiCACHEc46KLLsIdd9yRkTkTYTMJJdIuNhoNfOc73+nxSbO1s1IqIwJxHOOyyy5DrVbD3XffncXT68EFNS9Hmqb40Ic+hHvvvRdjY2MIwzDbUJyXQd+gnI5Wq4VLL70Ud911V0Z2eXvlETalFOI4xX96/6/j8eMehVwNtJMI8Lv+dFBIkhRK9RvdleoMzHqzjof2PISvfOUrPdomyrto54YkSbBx40Z87Wtfg+/7Pfu58jFqw/HHH484jnHPPfeg2Wz29XGRBitNU2zfvh1PPvmkcYyb2pPSTpIE11xzDe6//3488sgjxtnKJs0l3UvTFB/84AfxrW99K9sLl9Kt1Wp9HzwE+juKItx00024++67UavVMk0jf/5szx6V4aKLLsJf//VfW9tXj8M10XNzc7jiiity4zo4LBaOsDmMMBRSmg2a0pVypq3nnn8Ojz32mPVFn4dms4nHHnusk21OPG72JAdnKSVqtVoWXwcJIt2pnv4OggCNRgOPP/54tvF4nqYoTdNMg8F3BXjggQdK11cv3+bNm7Fnz55SWiEdO3bswJo1a7Bnz56B8m6323jiiScKSYYJpJGifq9eACARMe47cB98TyCBQhJ3TOwCnY+F7EOBc4/utdVzE5hvzOPRRx/tI+G6ydxGHg8ePJjF1+MUIYoinHfeefj+979f2azKtU1V+47q2Ww2sW/fPjz44IM97V+r1dBqtfo2hOftAwBhGOLxxx/v02jr+ZjII9CZYEPPnY2k8bS4BjNNU0xPT+ORRx7pG3s8X068uYbNbfzusBxwhM1hRcMklqQQEBAZ4eE+NkDv177+AvZ9PzMlAmbCZvLlMa36r4en+xTepMGIoghRFPVtoN5TZ01g8bz17Zx0DVseuGAKwxCtVis3PCes3DxG7Uhp2kyi1AYUtt1uZ+ekIaOy20yivD1JQ1im7DpqtRpa7TY8eAh8D0IqJGkKKQUEJCAAlZq1nUTkhBSANE/aKONPpc/S5ZqiKIqsGldeFq6dKksi+EcEN68PApMWi/rQNpb52DCVXSd6eTA9m6b68I8lumdbv5A/u6br3KXAwWEp4Qibw8oDzSawQHU1IlIIKCy8iG0vYX5NN0HZ0jcJJv5L5ybypmvIiCTpQoZrIGykJ8/URCbNKqDwURT17ENqgqk9KV/u/J5XdspLR54DuU5ceF+SabYq2u0IgEJbtSE9DwoxQIvECJoE00/aMq1b9+iYTYuFt2n86U7vrVarp95FBEwIkRF9vhMGz9Pkm8VJvynNvPpwTZU+tn3fz3zjeHheF1PapnoWLQbNze+DTFgpCpuHdrtdOY6DwyBwhM1hRNFxWvOgoCCRYhxAAxICQNzReKhe3pZ2iVwqupMWRDfQImD7Ogd61yEjp3td46XDtnsCxfE8LxN0XAuXp63hwo+bZ0xbQOmaKRLuvK7kf1RE9mzCLW8h3yIhybUdvu8bZ+7ZiAsnt1WhVGfNv0QttLn0OsszJ0naGUopeme5KParOqbTdIDdN3j5+e9iYPqgKErXRPy5xkrXbPKtzcjfzDQ2KQ3SngILE31ojOtaST0fkzlZr1Or1cq06lSuNE0RhmHPwtA8Hf1DoAxB1U2lDg7LBUfYHEYT3YkFibcaGDse8FYBs09h482fxAv/5T9BtOagQBJ0AUr7XUrYTJYmzcagRGKx0IVUkUaDzGJ0nQtpHSSkdRBR1IVvGQ0RF8Z57WXzY+JlyjPH9pfZQ5xYTMcKHfJPKzP3FISFAaCkMN7z0PGJ60u6osAvO4bySK0pXxtx5IRZH++mDxNde8zjcc2XabkbW1ltGjOT9ppfp/LRbFVb+ra/i5AR+4q+hg4Og8IRNofRRPfdefK7fx/JE3uhdl2KfbMJ8DM/B3z0twA5Axh8ipYbuvAwEY2ymhNd02ALr3/Z2wTPUmhqisoC9Ppi0d9ltBaL3bh9MYS4M/tTJy4aGZEdLVumuKWgYuE8i08aXkpICAilhvIhUZbIVk3TNOYGNe+arudpXsvmNQiWKl3TJAgHh6WE20vUYUQhAKzF2S+9As/e+b/w/KP/ih0nb8fBZ54H4CPFGgDVF7gdJvJ8aYYN7pCdt9RG2XTonF/TNRS6n5N+cA2JrqHhYUymMg4u0Pk6dXm7NOSRWpOGiJt6bQdrpT4VrQA6Cjat2fnfikzxLJIQojMJRo6+UM/7SCgDPkYHgU70q0Jf783B4UiDI2wOI4pVwIYTcOj//BOQrsa2S/4tXvhf/xkb1gWACoC0BVT0FzrcKCNIymq0BhGsNoHKNWEmf7cysM3irCLEq5hEbfHz6sDLYjqKM9B+szRLFG6F+DqZTKVF7UTXPc/rW2yaxyFTue77Rmnw9Hi6tvxs+ZjCm6BrdIvKsFhC6uCwWDjC5jCiaACJwrPrzsCZf/oXeOKjH8TkvV+BRAooCR/22YvLBdOL26Z1s73s83yJTCBN0WJhI2154fWDBPRSOV8fHsFYzTF/4YYlNaWQKrVS+Fof8sitjbwUmfRNME2qKdKgFuWV99yZNM36uZ6XLW0Hh+WC82FzGFEkEFN7sff9v4g0AJC2IUR3hwIFdFZaW57JBXkw+ZOVcaTO8/cZ1JeobB50zk2eprLbwutpmiYXFK2DZSu3bs6sgqJ2K1OGnlGlehVjgv4p2xXcx3JI/muHE6YxoF/LG0Omv4ugj1F+TT/X8ygqhz5pQp9gYUqv6nhycBgmnIbNYYTRRIr9EK39QJLCg4AUIYAECYZD1ob1hVzGlFkmv6pmnaK8TCbBqunYwEkVr3/ehvNLieH0pQJE0pmlDECoziEhIeBBKNk5QAs0S0jhdeYYpHbL50oV7fwDogzx1kl3GZhIWdn8itIlTbDJ/GqaHJNXPjLD6tcdHJYLTsPmMLJQSi14cacN1KSPGC2omoKKRaELWxmzTJ5QKLvsQBnw3QBM+RbNpMyDLvDyCFte+fPyzyOSep1MJLEobaVUJlgBZOZWUx+UNUUPAoUU8BRSoToKMiEhKb/MtNkZl0oBEN1FmqVEkqRIlWLm0W4/QEGIDvGjUq4UYc+Jk0mbpofh1zl4Gnr8Qcqkx7e1J59soofT09HTM913GjaHwwlH2BxGGymZkhLEMTD3+H0Iz9mC9n0/LYxaygRmITG6Oc6kBbDlZSJCfFFOEnD8b9Miorb0daFj80cjjQDftaFM2mVMSno59Ot8UeEismYievq9vLx1M+ogglR1iVYqFGJPIPYk0lQBUnVNoQoq1u2jQGboFECURh1y5wlAdIz2QgEiVZDdNUEUitt11FBkGufj2GY619PJu1Y2DB/TeSS+6hZdpg+EPBLq4LBccITNYcVACg9z/+334c8+B5HElcxMRY7HBJvvlM1/h0AExWZ21DVsvAy6QOTaAFu59V0Q6DwMQ4yNjQGAcaeEMoKH8vN937iXJ68z0FnYlG+kTRMRKC19f0d+jdeT7tNm4XzBU5spircrD1tGu2rCuJiAFweQsUSsABGnHS2aoF0gDO0nAZlKeMqHhICUPtI4hlJpZiIt2gOBk1aTNorDdt33/WwHAWoXbvbjbcXJTv+yJvnl5Gnwjw29bFU0tmEYZud8tw6dRBV9GFEcXr4qHyFlyqxrssMwRLPZtMZzcBgWHGFzWCEQiFSM9P/+AC0BCOFBKNPa8R2BvW3bth6TWh5h01dSD8MQu3fvzggJj8sFKdckAQtb43ieh5e97GVZfNKukSAl8x/F07fpOe6443DppZf2EDYudHRCEgRBttZZs9mEEAJXXnllplnjOxaYtGm8XaIowtlnn43Z2VnjpvUcVAdOEnbs2IF6vZ6VXw/H243qS+Wg8p577rkIwxC1Wi0LYyJsRDQorSRJMDExgUsvvbSn33QBa0OappBQOP+4lyDYGCBNJQAfKlWQsrNJmmmxZiFkZ521cYX1a9bjpZdcAk9yU2o5bUwcx9iyZQt2795t7K8is/mGDRuwZcsWvPzlL+/Zoolg++jgY3Pr1q3YtGmTNQ9TfCklWq0WJiYmcO655yKKIvi+n/W7Tj45kaTnod1uI45jvPSlL0UQBFk43TTOxyMvS7PZhO/7eNnLXtbzvOkfAzYopbBp0yZcdtllxnra2kIphSAIcOjQocLwDg6LhSNsDisECvGCugIqZ1mPNE2xefNmAMDY2BjiOLZuCM61A0DnxR2GIbZu3YogCPoEg64l4kKp2Wyi1WqhXq/3xOdOz9wESvkRyYuiCGmaYu3atdi2bVvfQqCcsNG1KIoyYUuE7fjjj8dpp51mJTq87o1GI0vX9300m81M8Nfr9UzDZhJ4lDYRLaUUNmzYgImJCWzfvr1Pw0FCl9bi4n/z/U83b96M9evXZ3U2maeFEPB9P0s/jmPMzc3h2GOPxebNm+H7PoIgKE3YkiRBq91CrTGG1T9Yh3XHrEccJ1BKAEpBwoeAhFACUnWmIJB/ZSdZhdnmLDa+bCNO27EDvu93iFyn8SCkhErTXK1wq9XCunXrsrHDN1WnvVXzCFsYhtiwYQM2b97ct49snoaNxnK73cZJJ51kHDM8jt6vnudhdnYWa9aswUknnYR9+/ahVqtl45f3vf4RQtcbjQbCMMSWLVtQq9WysUD76vIFlfWyAcDs7CzGx8exdevWjORR/vozTmXimsgkSbBmzRrs2LEju2fS2OkfQJTWhg0bcnrWwWF4UO5wx5FwCCEUAHXHHXeoyy+/vFR4z/OUEEIJIZSUUkkp1dNPP92THr/Pr/Ff3/eV53nK8zz1zDPPZHEoDKVNaXiep6SUWf5hGGbx//zP/zy7T+H5QfEoru/7SkqpACjP89Rtt92WxeVltLUXHb7vKwDqVa96lQKQxQ+CoKf8lH8QBNk93/eV7/vq2muvVa9//euN5bblTfd931f79+9XnuepWq3WFz8vPSrDF7/4xZ4+NeVjO6SUau/evcrzPBWGNeXJQHleTUkRqkDWVShWqRpWqTpWqXGszo46VikfgQoxpj7/+S8qIYUSUihoY6BMGd773vdmbWoaY3o/8OPMM89UN954o3HcUZuY4tF1AOqss84qfGb0ctFYveOOO9RVV11lHG9F13zfV3Nzcz3jLi+ufkgp1ZNPPtnXn1XeH7feemtfP5n6jufJ2/T2228/7O9AdxzZh9OwORxx4LMN86B/+QNmZ3bb3/SVTeY8rnUo8rXRNQZxHPeYe0ybqtvS07dwIk1dEbj2iZdFB2nZdPAlPXTNB2mGbBohnjf9cl8403IheaA4XGujoygtpRSiKOq2Z7d8mUkPAGKI7N3ZjwQJhEgXbqv+tddsPoR0j0y7dF0fU3m+bXxDdV0ry89N901ju0x70a9eNv5s6JopU/66llsvg67p09PQfdVMddLrZqqjPi75+8BWfxrrDg5LDUfYHFY0Frt4bp6Plh5Gv2YiHTaBavMf0iGY743J3wzodcAnIcjT40tjUL76vp+i6x/E49Pf3Peu6uK1vPzc5GQS5nodpZSZ/xKZessQNt3JvgzZKI8uQRMKSnTbUNjbhMzgfalUHF+DhOVEV5/oYRqngyCvbqbxbft4MZlYy+Rhq4M+vrjJk49jnUjmtYOJGOZ90Dk4LDUcYXMYSQgsLGfVFUHdG2mHpHmASIBQATGARGJxzA3FX9Sm8DpIIFSJQ9fzhIgunHTBYRNoRcJND091AIqXQzBpPfS9PPPyz9M86nFseetYjBDt7TsFvtCfEAmgAIV00eNsUJSp22JJBJFe/jfQ67up55OnCaNrOvmha3zJGR7fdm7TsJl89mxjz3RuQlF8B4flhiNsDiOHjtZMAgKQKgXgAagBSFFTLbQ8BSCE8gRacQIBhaArUMzGu+ooWhpCJyU2AaGHtxEyXZtVpI2rorGpKmR087AuIHk4k0mJ/w5LwJnyJhTlUUTCzURdaecCSg2+h+twtX5LhyLSnKc9psOkAdZJuq5hzSPxpvz0e9wcbAtfRsO9EvrI4eiFI2wOIwcFAF6InVf/PB75+l9CxABECzUlkPjrMHHxy3DGBS9DW87hgc9/GeqFn0ChiXRoG1blI88/iN/XYQrPNVNc8HHhRdoD/jflkSRJtqwFmX9oHTRuEiUfOS5YPc9Du93uMaFSGjwPGxE1+R3FcdwnPPV4vIzc74yWgiD4vp8tT0HXlVI9/n56v1C6Jo1fGb9Ak1+UqQ5HKgatZ5qm2WxsvZ11rbNJw0szeoGFjxf9GeHp6R9J+vZTPG1uMtfLZZqBrBN4m99dWU20g8Ow4DwlHUYTSQvr/8OvQI2vhUACFSi0Qw8n/sHHsfY1v44HvvpVPPnoj3HGW38FQniIkUKJpRWq+tIcpnsmM46+LhS/RyCSkyRJHyGh6xSGBCORIz7JgP4mYkMHJ0+UHl+yg9LleeURHKqDXg8uOG3ElfKiyRJU9iiKeiY4UD30OtvA24LqS/UoqoutPos1sZrOVzJMbcSvmerJCbyuYSPwvuUfFXl9YiJ0pv7iz4ZJE1dGA6tD1yQ6OCwHnIbNYUShEKdjgAgAKMgtV+Jlb387vv+5j2Huke9DeApj609ATUxAIAFy1mUbFvK+pPMEQBlfmCoCxBQ/L0xV0mEyc5o0DKZ0+fZaVfKgfEyaDVNZbLC1XZk2HQapWumaOJsZvEy9dA0XT8OkFeNhfd/vrl0nCt0RTLDtOVvGdUA3y+rn/CNN/2Bb6f3tsLLgCJvDyKKNCEg6uxmIA89CjK/B/INPAOk8lOdDyQDjKaBUku0RvxzgQsU0C882M88EbuakXxJeul+PHhZYWFKAk0kyH/LdFEymH31BUUqHzIq01ZGq8m6GAAAgAElEQVQuvPP268wjPaY8Tff53ybhnpe3bYZtnsaP0jSZ1I5G5GnLTOCkzJQWN39z4sPN7/yZMZm8TaSPk0kaNzbtH19mxpSOXgedeJrSpV9H2hyWC46wOYwsIhkD3ZWvgDmIsToQNOC1JYAA3tnn4Qf3/G1n5t5i1/cwwPYiVsq+Tlqe4NIJCCdjJMy42UafmWcrX145B4WNLBalW3RPX2NsucEJNYcQCzMWHWmzo2is8Y8Zum7aZ5TCmtbcs5k6TRoxnr/JN47/6vmYtIdF+RS1g4PDUsIZ4R1GF6Lzj+97UFMv4P6fPgFVH4OSx0AddypOP/csNH7wjwBSQEn0LgYyxGIYNDT0t8mPZbEv87KEoaomZNCyFPkUlU1HT3OYZSyLPMKxFEJ4OfpoWCjjl5XXdybSVDZf/svT479V0uN1KWr7ldA3Dg6A07A5jDDC1AMgEMcpPDQRfeq/Y/ftf4sxMY59cw18/4afA6KDACSgBCC6ajbV/XsA5GmUbA7Vg+SR52tV5IfFzUt6GXSzju5DxNMh86RuYuJplFmLzeR/p+ep11+PYzKr6ed5Wk1bH/E0y0w8OJqxGN8sisu1WGX934rul9HGmshmnum8yj1beGcOdVhuOMLmMLIIEwGkAoBEggT+09/Bd153CaBkx68tFfCCGpKoBUAM1SpaRsgM+mU+yBe/LhzyBE4ZDZbNJ4ejjJAsA16epRRwo64pWSkCfrFlLBN/2O1g8h215VVkWrVdM+Xp4LCccITNYWRRlz5QGwPmAXgCKvGgmhEgEiAGhCezWaTDMoWWfQnnOR0vN3EoWnTXhLyJAysVaZqi3W4fcfVaLuSRfZPfl76+GWm5bB8Dpokgpg8f2zOl+7TpmlXdBEqaaD0c/c3Lr/uL6nFsW8AtlSndwcEER9gcRhbf/K8fBaYPAt1JBQkCIFGATDtTERIFJcnMtUDahBSojdUwPj4+UL5CCGNcm4AxCSI9vs1EyF/+NJPN933U6/VcMx8naFxwSCnRaDRQr9ete4na6hWGIaIoQhiGWfw8M6JJENdqNYRhmNVfN8nmmZZoNuH4+Hj2N+WfVxZdcFJ8fh8oZ75WSqFerxeGs0FKaRw7Zfdlpbbn7WXaE9OEer2exadZxmXXnyMEQTBw/ZVSi4oPYOBnFuiYvBcTX0qJsbGxgeM6OCw1HGFzGF3c/+WF8xgAGp3z7naOQsguRSPhTAQixdzcHObn57PoNpMcJ2H8d35+3ujbZdI02OLzL3iTHxl30vZ9PxPKSZKg2WwaN6wG0LOzAdARsnyng+np6Sx/vjQHz5M0ElEUZcI9TVM0m03Mzc2h2Wxm4ei+Thz50iZCCLTbbTSbTUgp0Ww2AVTzG+O7HPD243U2gS/lMTs7i/n5eaNfHV3jq+oTqH6UD9WL6mhbLV8H7c6g50u7SORpY2gxYxp7fJkV2tHCtssDADQaDQgh0Gw2EYYhlFI9CxHr45S3CaHdbvc8N2VAaaZpilarVTk+IU3TgeMOIz61fVUIIRCG4cD5OjiUhSNsDisWNtFn26LGmEYFf5Y8vxYehs65T43JhMPT4AvOEvnKcwDnmhZO3sIwxDHHHJMJe9otIA9cqJOmgEhKkiRot9vGeDZTFxEiIqJcoNtMVHw1+lar1ZdXXh24/9KGDRv6SDadU5vy+ur1IbOqqV5lTF/tdjuLX5WwAR1iSmGJ+PG2yQONHaqjSaOZN6YGxbB88xbrSsAJ/yAwreFXBkop6zPi4DBMOMLmcFSg6EVsM3cuN2w+RGUFSRzHGUkCFmaCls3b5rhdBZycUbrLAZ4PL38ZzRgPa6p72fawkfph+DothhiVGf/0m+fDxs3POvE27edp0+Zxol707C3VZA093cP97Ds4FMERNocVDKWdK+1aB1wI5ZlE6W9+3RSWh9PTzCNc/LpeHl1gmrRQelw9bS5UiaiRtsaULwlM8nXT/XCKBJielikNUx1t9eV7rtrC28pBefOV803tZkuHm0RN9SpL6E37xfJ2KdIU5qEMocgjPfSrkyhqlzLbitk00HTom7bb6qWno/eTKY6+IG/RM6ITQj0dfYcFvX1s2vCicjo4LBUcYXNYwdBflgukTZdbNkFkMmXy64UlKKmNKWtW5Yctri2erR66ADKVg2/2XtZsVqWMZerOd3soCm8rj94WZePmlSvvb1sZbOUaZQGf97FiC69/7Aw6S7RMX5d9RovS0/vDadYcVgocYXM44sG1CHlas0FgS9MULk/DxsMsRsOWp1Uy3bNpDmz1MIUzaaDKaiiHoWHT65rXFjaYtICmepRpE1P75Wn39DKMAspomIadX5n7pjFH1219bVp+xBSHx7Vdp7z5tVHqN4cjG46wOYwm6H2pOudCZacdvZroXj/MX8ejqGEz3SvSsJXJJ6+ew9SwlWkrW3lsGsayOJo1bHljqExcW/2qjoUy8fXrpj1J+T1+nX51386ifhqkXRwchgm3eIzDaEIB8EIEm08DvKBL0tj6Tt2Ry7UqZVAlvE2TVaS1yftq14+8MHlxTfHyypyXTtGvDWXSsLWLqSykYbNpqIpQtu3y2tPUfrY8hn2MCgYpS149yozZvDzLjg/Twrmm+tDfpvB6XqZ8TOcODssBR9gcRhfBOK75vY8AYQgBYPMvvB0qnOiohdXgX7h5mo6iL/9R/6ou0r6ZtAiDalby0iijVdGPpdKw5eWZF972d1E6RWGKyuAwGBajIdTDm/rEETSHww1H2BxGFwoIwhoAQEBg2394O4S3FhKAnwqIChu8lzXzlUlj1LFYAnC422gQAZt33RGilQ8bkef3OaqQKzc2HFYKnA+bw4hCAPDQ+aaQSCEgYgW0E0QAAgDFG/2Un/lWdH+pMcy8F2tiOxxxF2MetPVdWdOuKY4t7bKmWT1smXodbuJwODVIwyb6eemVIX6Huy8cHExwGjaH0YWUUMoHlA/AQ1s0oFQLSgJtKFRQsFmxXC/mMibDYWAYPmy2tEx5DcuHrSiNxfiw2fIsSxAHJTLOSX0Bw3IvqGomr4pBSL6Dw3LBETaH0YUEUqmABBhDxyzamT0qAXFkDF0nGBwchgv3TDkcqXAmUYcRhQJUGzUfQNrGGGLITKWWLe7hoEEphTiOEcdxJriUKresB9A7g860a4Gel37OV5a37bJQBD5Tj9Kjc8qHp8U3oef7qhZNKDDVR99cvaqWzNbOtIuAw2jDmUQdRhmOsDmMLtIY7f0vACpCCgUF1dGslXFeO0rh+34POaANxPNmXnKyxa/RJul5/n369SRJss3byxImCpckSXbQ3zbCw8+JoPHtuPh1E8mzgUiqacmHMuno+5ZSPL4Nkg2OJBx+UH+Zxjxdd3A4XHCEzWF00Wzgf97864CKMA9gbTyzcE+kyJNvV199NS688MJMOxMEAYD+2WaknSFtkFIKq1atwjvf+U6Mj49nwh/ofZlzcK3S9PQ0Vq1ahXe9612o1+sZgeBCWxcKdA8A2u02zjzzTNx4442o1+vGzciFENlCoUKILP0kSTAzM4MLLrgAN998M4QQCMMw07bxfKhc9BvHMaSUmJ6exllnnYUXvehFGB8fRxzHqNVqRrJB5eDavC1btiAIAmzZsqWH9OjtxskPpZMkCYIgwJvf/GZs2rQpK1eSJBBC9Cx0ytOiTcdnZmZw3nnn4YYbbsCqVauytMsQrTiOMT8/j7Vr1+KGG27A2rVrEUVRKZ8mKv/MzAxe/OIX45Zbbukjq2UIW6vVwiWXXIIbb7wxq1Oaptmv7/uFpO7iiy9GGIZ9fUPjXO8LOhdCYG5uDieddBL279/fUzeCaezTs9NsNnH66afjta99LS688MKevVPz/BnpfqPRgBACb3vb27Bu3brseeVtxzeepzTo/ODBg1i7di3e+c53ol6vZ+Xi8XXyzfskTVOcffbZeM973tOXdhFJS9O0p80cHJYKjrA5jC5UCsweBCQQS+COm24A4jkAfteXLbUaRr/3ve/hgQce6BFepvWVTOa7t7/97bj33nt79tfkYU1CixBFEW655RbceeedPWTQlDdPk5v8zjvvPNxxxx3wfT+7xgUIaZLoOpWdynvhhRfi61//upUkUpl14iiEyMyp//AP/4AwDBFFUZ9ps6+bunGDIMAll1yCMAzxd3/3d5UmClD6v/3bv417770XQRDkavZ4fGrnKIqwa9cu3HXXXdkm7mXSoHSSJMFNN92Eu+++G7VaLdNO8n6icx1SSrTbbVxxxRX4m7/5m552oTGgr6yvI01TnHTSSbjzzjutBDkPxx9/PDzPw9e//vWsXZIk6SFPnLjxMhJp2rFjB3784x/3hNHNzzxemqbwPA9RFOHVr341vv3tb+Ohhx4ykkOCKf84jvHhD38Y3/72t+H7fo853pYOTy+KIszPz+Puu+9GEARZvU3aMv2ZoDQuvvji7LnR+zvvXEqJ+fl5XHnllbn94+CwWDjC5jDyEKrzYkz3PwYhI6i0Di8FgAjCIIuTJMHzzz+PRx55ZKD80jTFnj17EEVRZTMVCT+eNwkOwG724l/7k5OT2LNnT24eJtIJICOoDz30EIAFEykPS+Uggcs1OHEcY8eOHdizZ0923UY2eFqEU089FWNjY3j00Uf7BJtJw0b3qe6e5+GHP/whhBBZ2fOIDvdvk1KiVqvhscceG8i8SGlR/jppyetDfo3anscrQ9gA4MCBA3j44Yf7/PU42cozLU9OTuLhhx/uKZNOsmyEDeiMl4cffrjnY6EMaeaarkceecTou1imT374wx9a088j30ROH3300b6+sj0v+vXJycmeviuqK50HQdBD7h0clgqOsDmsANBLtQ3lATJNoNCCEoBXcqJzkdAwmazyiJGNfBQ56pcpJzn8lxGWOrjmTSmVCZLl9L2hsusTBYB8Hzpufk7TtIcwlzEp6lqTqsiLR/eq+qEVEXUd+qQHoJdg5OXfarWM9dfJSV5/0Pi1ERCbhtbzvEyryX0K+a+p7DqRt5VfL6upXCaTKeWvuyaQmZ3Xgz93JmKma4Mp/SiKFv3cOziUgSNsDiMPoSQEUggoJFEIgbjzl0LptdjytDu6loH/6sJET4vSKzLblAXlaSI7Kw0kPMu2iS709H7Ky0Pvw6rQCSH/u4qGiO9BSXG5diwPNoJeJX/dDMz9CE1j3BRnENJLvoZci8hJLq+DruGjX5P5n5cnz4ctSZJskoz+7FCZ6Ne2GTwvX96HhX7dwWG54D4LHEYMIjtEx1ENITwISKiTL8DOj/096rtfC6AOKSTcnK3RBxeCeYSEwi4GiyFtNtBSIUXataVCVS3dYvMaZj5Ffc/BTbdlymbSRObFrwLTh1peGAeH5YAjbA4jBtU5PB8qWAVgNVL4UADOe/P1eORP3oJz3/RWqNUCEMU+QQ4Oi8FykqUijEIZBsVSlz2PqOvXyxCtPGJYdN3BYangCJvDaMLzgZqPs37+F9DuWu7/+Q/eDf+nP4KoHQPEwi2d6+AwZCwFCamiZRsUJnOv7kNHPmpkth6Gv6mDw3LC+bA5jCg8wJ9AUhvPrvi+gh8LzAkFGa2Fn8aAEhDKg0KKVKRQODK0bivdf83BYRRQlVTpExG4f59uch2mCdbBoQwcYXMYUQhABYCS6JhJBbx4AkADXtuD8gTSJAIkkKRpd7OqI+uL1wkCB4fBoWv1dDNnFTKnhx/GBCMHh6pwhM1hhEETEDpoYRrjEFgfAipNkCqFVAEQnRmjR9KeVY6sOTgMB4uZ5Wkiee7ZdDhccITNYaSRZu/GFBBAa8M2/HQ6xpqLr8WJr38tVq1diziOEMZtHPzU+/HUP993OIvrMADKLN/h4FAVS7Ech1vaw+FwwhE2h9GESADRQpq2AekBSkEcswVrfu9WHHzkfrQnH8Ojv/0WIG4CcdSZWKqah23pBYcFFK1jR+dO2DmsZLjx67DccITNYTSRKiBqYSxuAt2JBN7atVi3YROe+qvPAM88BCDq+K5135up086sCDgtmoODg0N1uGU9HEYTSQK0Goh+8jSQtjqk7EATzU/+HvDsjwAVwZeAUICEgISEFId/OLuvbgeHlQ/3HDuMIpyGzWEEIYA0AdIEj333W6D5n8nU/8Wz3/kxpGxDyNVQmIcSCaTozBQdlX0P3MvewWFlwvTslvWFc8+9w1LDETaHEYRCNuNTdf7pvAqbgAJUCig1D9Fd7kMJAVr6A1AIggCveMUrsGXLlsz8RhuL61P9+UbltNl4EAR4wxveACDffEd+WHz2WBAECMMQ11133cDbJJ122mm4/vrr+9Z74vnyfRf5HotSShx77LH4pV/6Jfi+X3n5gSRJsGvXLhxzzDGl90fl9d+1a1e2CbjNT820nhWde56H6667rnCbIlMZAGD9+vV44xvf2LMoqq0d9TKlaYowDPHLv/zL8DwPaZr27Q2al45SCmvXrsX111/ftzBrGZ89ar83velNfb6YVJa8NE466STs2LED1113XZZn0VIU/FqSJDjxxBNx/vnnVxozVLeNGzfi5S9/OU488cSBFqWVUuK6667raXuevj4m+POXJAnGxsZw/fXX97STvqaaqdwUbseOHdlzZ9v83ZQ/0Omfdrtduc4ODlXgCJvDiEIZ/lKd/xUAJJnvmlD9QmhychJTU1M9RABAjyDkL2HP8xDHcXZtdnYWSZIYF8nUX/y0ubVSCq1WC0mSYGpqKhP2nudl6SRJYnTEl1Jmm1O32+2esuvCj8JSWkEQIE3TrPxhGKLRaMD3/Z6Nt/U24oKQb4g9MzOD2dnZrG58hXi6liRJ9jedp2mKqakphGGIubm5vg3VbaByUNh9+/ZhbGwMQRBkfcBJKm83ao80TRFFEYIgwPT0NGq1WlZ3fRN3EzzPywj7wYMHMTExgTiOszbhv6Z0KA8pJZrNJuI47mlTz/N6NkY3geo6NTXVQ9CklIjjuJCwSSmxdetWHDp0CGEY9t03kRd+Hscx5ufnMTs7W5pwUfmazSYAYGZmBvPz8z3lz/twoTamtPbv349arQYAGenV661/bFG+1Hfj4+M945qeF96eaZpmfUJtEscxGo1G7vIdputJkmBychKtVqtUmzk4LAbKHe5YyYeUsuf3nnvuUbt3787+BqCEEEoIUZgGAPXUU0/1xZNSKill37mejud5au/evT3XeBqm60II5ft+FuaTn/yk8jxPSSmV53nK9/2eIwgC5XleFj4Igix+vV5Xt912W1996Zxf138BqCAI1LXXXtvXrlQWKhcvO0/3mmuuUa973ev66scP3o5UPymlCsNQzczMKM/zVBAEKgiCLCzVV+8PSoPy+8IXvpCVke7p5TcdYRgqIYR66qmnsvwozTLpUDlvv/12YzyqS94hhFDve9/7evKq8hzs3LlTveMd7+jps6rP0jnnnNM3roueHbp/5513qp/92Z/N8rX1l6nfwjBUc3NzWTvpzxQfN6bnx/M8Y9+Zxj6Pw+t266239pQ979kxPTef/vSnc9vJHe5Y7OE0bA4rAGTy7J4LASi75iZN0x7tkskMlKWsbUEDoMcUQ9fonGvTTF/g9MWum1tM0DUdPJyujeHp6RoxqjPQ0c7Fcdxn0uH10NPk2j2T6cdWV70ulKbv+4XaNW5KpnYlDRqd6/UzmaIoDOUXhuFA23rxOHzvSa75K4MgCLKy6GUsUyZedwLvp7w0uNnQplktk7+eh01Dy++TSZCPfx6uqNwUN0mSnvrrz5EtHf686GNHLzN/fnWNuSl93bxqCpskCcbHx91yNQ5LCkfYHEYTovuPUoDomDMRpBATmzGxdQvmf/wgkoOT5qhC9BAQulb0Mua/dK4LHj2eLX9TPF3w0d9FBIMTQFM9uJAGkJlgTYJXN4WZymQyAealxUks+a/ZwujtIJivl745N7BgMuNx+H3dPEb38ki1DtE1W8dxDN/3EQRBj3mc+07ZCIiJ7Otm5yKTaJly5kEnafo57yfTODARU15/Hp+nSW3veV5GVm3PjV423kamDwwAPWnycNxsq5vObXmWfc5M8fT7eljT8+TgMEwc/nUQHBwMkAqQ3hjqJ25Hh7gB8tjTsOMDn8KaF+/GOb/5B4A/ZoyrC0/SkuQJcBtpIo2HfuQJItuL3ERY8ggjj0vnZUmISbujl5//8vrqxMKk8dHrwUFkx1RHvS8oP/rlPk16GSgOaWJ4PH6vqI9MbUV15mmatF229ucaG543/S6WrJUBkSb+t15m2zXb+OPtzduVx9Hrq7cB0D9W8vLU07Hlzcc0RxFp0j8oyhAt2/Pr4LCccITNYSSRQiL1A/zbP/pDIAQkUnivfh0e/+O34rmv/zesqq9b0LzBLJiX0zSRZ3bNC1/25Z8XzqZVWQ6YhN+w0l2JgtGmRR1k1uQooaym0qa11a+bCJCubTXlbfoQKfro0ePq5FI/bPnoHwLL+X5xcACcSdRhZCGB2EPDG+9o15BCfe9BYGoaorYOYSwzF0wFBaFtFA8M94U6DPIwrDRM9RoWaatClHTzWlG4smlWDbMcxC7PJK2HM2lFuebLhlElAMPou7LtBwxObk2kkOep90meS4DJ9KmbeauMaweHYWBlf/Y5HNmQEr4KANVdce1f7gSiNrzaJuyvrYN//s8iPP18QHT2OqBXL/kMVRH+RUKi6MVsM+uYfheDIu3BYvMxmfxs7Vi2XlXKU9XcWzX9QbHYPrSZ1suY2Vcyllv7W+YDIq8sNg0b/Q7rOXNwGASOsDmMLhQgFADRIWwREgAJktNPwI/3/hCrdr8KJ7/vTwBvNdBdRhfonaloAxE6cnIvowHhGLYJcJShmz0dqqGs36HDAnibVR1ztg+lPBOog8NKgCNsDiONTGsGAAgAESH+x29g5s/eh5kvfBbrwwCQAj6CvgV0y77oTY72Dg4Oy4Oy/nG268OcDGDyq7N9sLiPF4flhvNhcxhRqM6hFnzTAkSIlN+5DImJYzYiPDTTZXMJTJMPyr5UR/lLezECLS+9vNl5i0l/JSOPGNBvGR82PY7pvo5hj8GyPobLhTIaLe7gr183heXgO5PkheOzW/X7eW4MeluO8jvD4ciEI2wOI4rOYrkiOxcAEkClEOMbEW46HjvedR3+6T3vBdoxIkQQUnSCKIUoirIFZDnyli8YVdiWR6DrfLFRGyEoImlV/q6KpXLOXipCoqdXtFgyj2NaZoJjpZvhqra3Lbx+XQiR65ZgWt9NnyCgu0Dw6/oadKbrPI4JtgkKDg7LBUfYHEYUCkgXCJsCEEPAEwrymuuQ1mv41/e+B5h9pnPfVx1lXNeyOUyH+MP1YjYJOhMB1fdHrVrWovqVnehgyrvKJAL+W7S7gM0BfNB+0smvqW5l4ptAvpJ8H9nFjqfDSRQW08eLvc+Jns1HzRSnzG9ROVbSR57DkQlH2BxGFCkQSHjCw4Inm0ACheQvPwKMAeORwrzyAPgQsQ8pUySWNdkAGIWl6eub3+OCtmjJAN1JWl8+gG+GPQyYzHRCLKz0XrQ9lImoVfEHMvnzDKKFMC27ULQNE7WpvrH7YttW3ymBp2lrq6J8lVJ9O28sBqNCFIZZjrL9ZvuIqVIWpxlzWKlwhM1hdNFs4Jtf/jxo31CFFEJJKN8H4gTziQCUj85GCCGgEgAta3J55kDb17Ztocy8r3VarV//8s/T1BRpi8qaNNM0RavVys6rooqmyqZhG1Q7xeOX0bANWu482DRsJgJp6x8inPpWUZxImzCIdlQPP6i2dZQITNmy6MSLZnsTOeZL9iRJ0vfBZNqT1/YRY9Ls6WFHqQ0djkw4wuYwghDoDM0EB7/6WWT7iqI7rSBWgEwBHwijGJEah4JEKhJAdbZGGhsbQ71eL8zJpIUSQmRx+fZWtsU09b00pZRYs2ZNtkUTaW1ImFCeXFjwcnieV6rstvoopSrVnddFSokwDEvHB/r3CQ2CAGNj5m3D8uD7Pnzfx9jYGJRS8H0/I082B36doMzNzWF8fHxg4ZmmKYIgQBAEA8WfmZnpq3sVM2itVsPY2FiPBpH6KQiCntnMenr1er1n3Hue1+d/ZyIfXKNYr9ez9uNaZYpPY5mPfRrXQRCgXq9jYmICSZJk+ZOmmm8tRWON/EypLtT3vG56WfW68/LU6/Wsjfj+svTc8bbTx7/v+6jX633kXx97JsKmlMLs7OxAH0kODmXhCJvDiCKFJwP4/iq02rPaPQUogSCVCJBAYB4t1KDEgjCbn59Hs9k0Ch0O3/cRx3GP6VMphUajMVCpSXg1Go2eDcQ5YSNBZxI6JFTiOC718rdt+F1Ufu5XxQW7lBLtdrtU/XXCJqVEs9mE7/toNBqVTU9BEEAIgUajAaUUwjDs2dRbLz/Pm/q22WwiiiJEUdQTVjdp2+D7PqIoghCiZ49SvY25Fk1vk1arhSAI0Gq1Mkd6IURGTmzm3iAI0Gw20Wq1jGO11WrljolGo5Edg6LRaGB+fr5SHGr/druN+fl5zM7OWj9wTPEI9NzZNqHPSwvoaEfn5uYK87Fdj+MY8/Pzlcl+GIaZZt1p2RyWEo6wOYwoFFIVI4pU9jc0/7QoBZJNZyPc9zgEog6PQ0foAuVMivoG6HkvXJOfmx6HCAQnDIOAL1GQZ6LRBbvneaW3QaJ4pk21BwFpgXzf7yGEOkzkJ03Tvo3fSQCa2pzXg2uISLOpp13FNFjUfzRWTHWr1WpQSmXx+UcApW9b86/dbveU1eQnWaSt09t2GATC5s+XVz49fply88OkYSPYngfbLNGyv3pdTWXk+VNYIvirVq0q9Bt1cFgM3MK5DiOKFB3SJiA3bYE+VAUUhOfh5I9/Ga1aDUrIbG4CJyycgAwivHRBYjooHI8zLJjKnCdQyI/HVE4yTVEYmy9VmTpzM6/+N9/AW0oJ3/fheV5m8qS/qRx0nldXnVDqxJJ2tpiYmMj6n4i4Xnf94PUisknl18cSbx/T9mdBEL5TGT0AACAASURBVKBWq/WZasuMicWO1WHAVE7Th48JNqJi+xDQ0y0TzpY+0L8OG/8g4X/brhflpZdNH5thGA712Xdw0OEIm8MIovsihEQtGMNrPvVloL4muw4ASgio1cchGN8CoXxApD33e1IroTUaNVPGYjRdPD4/9H0rbenbyJFOKEhbZLrHw3Atpn4exzHiOM58oPRycOQJQ06KTALf1g4m7SIX5JyE6KZ1G7lYql0zymhAOQk3fVjYYLuvx81LpygNm1m7qKymcPw6/dLHgx6P2oQTbf16Xh14Pkv1YebgUAbOJOowwhBoRzOYnYuBlAjZwhIfcmwDZlpNCCU7CjnBYy49yn6Z8zDDDGcrT1ltjgllhLvJXGUja3pYnRBVKXeR9gOA0aRYBWXCF6XLCRsnIXz2YpHZ7XCRARMB5WXJ0xbmkZ2i60Uk2ETGTRqzvPtFv/q5LZ28sA4OSwmnYXMYaSgRYl0tBPpejgL17eeipVIAHqSSCyRNIdsboQimr+yeXHLMoEXCRf/VtTl6PhR/OXxg8sowSBq6No2u8Xs2oZynGbNpV/Rw1GY2f7Uy2im9DIMKZH0iyEpHWaKSR3byzoHe50w3NesaLv2Z1U3wOmzPY1V3hjIfMw4OSwlH2BxGEhLoLJrr1SGaMwAEIASAAIAH1DbghCsuR5okUFAAEiixQHSkEks6uMtoe/Rrti91HWUJW5GWZhAsp0DivmWDmu1MmprFIC9+FYHNJ16Qj15ZXzqe30pAWQ1plfoMqukyfQgMWoaiOCulfxyOHDjC5jCSEEDHAnrsyXjg/vsAz+8SthSevwrHv/pXsP++e7AumoHy5qFEglB1t7JSHlL4UIdheC834VkMioTbSoKuzePXDge4NtXkJ5endbT1xaia4GwaUh2DugOUrfdyt8+o9ofDkQvnw+YwkkgE4CsBxArTzz0LtFMAq4Bjj8e6V/48EihM7/khNsYR1FkvAZoSrZaCd/AnSBBDCYF0WTzZOuBrma108lMWVFduuuTmrLImqEHbaxTbOc8/Ku/6kYAijRYndkVaq0E/Jrh/oE1LN4rjxsGhDBxhcxhZpEiADZvQnt0PiACnXv8bWH/1L+LJho/o+9/Ajlv+CLO+h1NfshtIIoR+HevHamjFLfh+imwn+BWIMg74nCxVmXAwauAzRxc7w3KlE6G8CQmjULc8bVoZgsTJlH6dz9q1pVs0qcDkTlBl0kEeRqH9HY5uOMLmMLLwoJBuORGT3/s2ECd46rv/iKd+8L8hamtQ23Qcnrz/X3HGta/Fo5/5CKRqog0AtfVIXvU/oLQve5OA4DP3TC9jfYKBfo+nU7RZuQlcQ8X3ObStj1aUBqFKfFNayw0qO9+ua5AZnsNA2fovlV+TjdwMgjKTLPS8Bs0nL50yvmdFKDMeaFmP5Ro3h2uMOhy9cITNYTShgAgJ8N3/DTW3H4AAHv42gDYgYrSExNqzr8aqqecRCwVagk20JjHmCdCG8T1Jatoom0DTr/FlKGwmFfq6F0L0LVuxlLM++ey6xQh20/mRhjztUNUZg0uJQfvANkuyCgYhrHyLszwiWzShg8/+tJlEbeno5vmjZUw7HF1whM1hRCE6/009g85Ug46JU4mFNTs8T6DVmget4yHQWf1DwDybhgtl3YRYxWFaFyYmrYieb55PDk9jGFquojR43Z1PT3mMmv9Z3tIXvF9NJMaUTt59ffzbxvCgszBNs2TLml3pepnt5aqUaRiTKBwchglH2BxGEgIKQIwUtDyHguqTBd0XvAAsmxz0QCdpS2XS4Bt+c3MnsOCv1SOYAKRlF44bAmwE8miaMFEVoyicdVJGpMVmvi+bjul+Xpwy687ltZ/uezZIW5tI6lLDmUQdlhuOsDmMJPhrMBWq96Lo/KO2nIKZpx8F0gTE2ki7liQJBGNyVWal8es2c0xeerQZtE2DZTOpKgCpUkgUW63fmEsWaSH9rFwBZuemu/UuvzwEr1dZPzoKo5SC53lZGrTxuW1HAz1fk4m6KKwJaZqi2WwCAMIwRBRFpU1jdK/dbuf6NRYhiv7/9s49WJKrvu/fc073zNy7q93VatEuWjAPIUASEkLIZsOqQNLiEkFIrqSAkoBVBRMIqYgCOVnZJo7tVMWhUsausoMrKQejYIuUUoaiCAQKkAo5oZK4TIwKI8fWCq8Woccu+7h39z5nuvuXP+ae3jPnntPdM/exvcv3U9V35vb0efbjfPv3O49BKdBDa6RWiWLXyjRJ37OiKEYWrR/HFT9Jen7att7siOmqeEP3XWzSY/dY95rz78fYvqr0Y6NSQ+fI7nf7Wbp10e/3g2kRsl40tE0Q0h6GRjUF/ZKrkT3/YyBfBESgMZxE91vf+CZ601M4fer08OIOtI8hIWX3ve1tb8MjjzyykpYa6bsWcyfaAQxaa9x666349re/Xcbpih9rjRhJX1big6BQwHXXXosnfvBE5Y0pGArTwvkfyKBUD1e/5lX46yeeqK3HJElGymXLtnv3bjz//POVYV0XWJZlSJLhu99ll12GJEnw3HPPQalzi6n7a3L6dWd/f/vb346vf/3rZV02tfjZPlTXXXcdHn/8cWRZhk6nU7uSBTDaWN9yyy147LHHkOf5yDQtTfNyzTXX4Pvf/z6MMWW9NLX6KKXwyle+EocPHx5ZdL4qvy6dTgd79+7F4cOHoZSqjCOUdlEU2LZtG2ZnZ4MvKrEXDfuS8uY3vxlPPfUUZmZmgtYuK+jcunT7fb7zne/EV77ylZF03ZcHX7C5eRgMBrj99tvx6KOPlr/517dNJ1aON7zhDfje9743IpqrnhPuMUVR4JlnnsH999+/YWvJEkILG7kAWXmA/vj/IcEUMtFAsgzJMVQuUuDkiZ/g1KnTw4d3wMrhCzD/Tf/48eNlJ2o7ejHUcLmCIMsyLC4uAgCef/55dLtdAMOGwwqSPM8doTLcIAJlFPIiQ764gD0veRlefvQEtO4DKtLIiwDarHxqQBVAMUDWuQQ/uvIKnD59Olp7RVGUHdRdl63der0eTp48WX8WAoLNiqSzZ8+OCDE3fr8etdZlngDg2WefxdTUVJk3G4e7OLxtJN3z0u/38frXvx7Hjx9Ht9vF/Pz8KsthuCrPNbppmuLo0aPYtm1baSm1+agTXrZMJ06cQJqmyLJsRHDYc++Wya/Pyy+/HCdPnoxaOKtch71eDzfddBO+853vwBiDNE1XueTd8lpsWrY+T548ueoa961KruAyxmBhYQFKKczNzeGFF16AMaa0utYJNuCcVfbEiRMjZbJWSreO3LLb+G36x44dK491y+/Wn1setx6WlpbK9H3rXEiA2npNkgSnT58uBSIhG4lw43YhbUopUUpJR2kxaot00RFoiFYQBcgj3/iG3PrWt4iBEg0lWmtRavhpNxuH3a+UKuM+evRouT9JkpHf/DzY+NI0HQkPQLTW5afdVpVFQ5SCdDREa0gXkL/7vT+QZzt75EynK2e6SXCb7SRytpfKmW4ic92OnEm7crKXyHd3bZE//LefGCmfv9m0bX6MMSPlecc73jHWuXC/33XXXfLud79bkiQRY0zwuNiWJImcPn1aLrnkkmBdVaVry/Pggw+OnM9xriellBw5ckSSJCnPu43LGCNpmkqapmXZ7Kd7fh966KGRek3TVIwxjevigQcemPi+uPLKK+UjH/nImu6ta665ZuJ78stf/rLs379/1fVVVefuvtnZ2UbnO7SlaSpHjhypPb9VcdlrZ9xrv9PpyNTUlHzuc59bU91z41a30cJGLkgEw2lxRWXIZQBdAAkM+ukVeGbqCsxMvRi50oDkUIKRN/3Q27P73d3c30Nh7Ju36wapOt6mX35f+eyIRoEcuqvQMRkukXlszZajndikOGdgUwBQAEUGTO3Yiu6Oyxq96btWv5G4G1oJXLeQLVOSJOj1esiybKSs1hrhu6RsHNa6Y4zB3NzciDvM5s9Ny7UKWotNURTo9XqlO7IpbnmTJCndq24d+fUUciUDQLfbLcvoulXdlTCq8hFyZdZdTxalFDqdTvm/O7dfVXj3HDR1QdtwbvydTge9Xi84J6F/rH8P+la80P3i5s231Lp993z8vFRd37H68svhh1lcXCytzIRsFLzCyAXJcNxBgRQDLCdbYd78Trz6Xf8IU4s/wY/OnMZgMFP20PQboVCjERNUfsNQ1afFEmpwo4Jt2CEPggSQHAYaShdQOodSOu4SVQIovTKadjjxiVJAoVPkOg2HieA2UFWuw3Hi8+u2Sb8edx6xcaZocN2poQZ1Ely3l+++DF0z/m+hPPrXgU9IAIbijcXhul/tcXVpusdVxV2HG75qsENVOtadHhJEVefVfRGzn2u5BkL3uJ+W+32clwNC1gIXfycXHMMHpUKeTKP/kptwy7//EnZu24YffPIT+Ivf/CW8carAZZKtjB4dbSxtg+J++g93v59QyNLmN4Z+Xy3/eD9+f8uLAoUAhRSQvIDY33IJbwJIPvwdK2kXxcq+wKTBTVgPsRaK06dKcDQ91g3ji+EmIiWGLw7q+q256a4S4oH9G81mTZwbwhdqVoDbLWRZtceNk7YNawWq+78fj7VY2jzY764l0z9XofhCm42H/dbIZkELG2klCkCaGPQza5nRsK58pRQECvo1b8H1v/mf8Niv3QP87fcAlQD5ApJBjgIdQKWADFY9VOsesuthYQpR1Xlbr0xCoqCg9HA0wvC3SD4Fw+MKGY5cEFmxOm6eQAh1yvZFcJ1VxP2/ah3ISfO1Vpq6I6usQCH3YEhYXQgNf6iMdp8dpOOK5pD1y7dY2y3P88Ziu6mVs8q660/fEnoRi6VRtZ+QjYIWNtJKBEAHwG1/+BVg6lIAZrhXT6F7y4fwDz7/OPa99c14/H0/Cxz+39BYgJYzAAZQOoeWJdjF3+vekGMuU5/YG3fTsDGrQBmPsi5SZ7+ObArD47QdagooPRRxarNm4J2QjRaUa3WHxeKoExNV1lhfjIasrOshAPx06qxFsePsPv8zFN5ez/6nK+5C1remxKxnPhRQ5GKHFjbSWgZZjpktlwOmA0BDKwXzoV/Gy9+wH1/60B1AfhrIl6Dy/JwBDkBiFKTIEFpP1KV9D3jlfZK10gaXVcitGuvQvhl5qbIYhfLoi08faxnLsmxEfIasqKH/66zdbr24/cv8cH5fspDIcy171iLsu8DP9/VCSAwKNtJapoyG0qYUYoWkSLa8CE8+/F+B5RNITR+ZFOXcGEoKDA/WUU/i+aLWRbji7hURoBhqTREZDgMNxgcoEUgh1sA2DFPISlw/nVRZOM9HQ+yKhrV27J8EvwP9OKsfhAiJJb/foCt+fNEUEnK+pc4XUP7qBqEyumWLiU7/GqAwIxcadImS9lJI2bMLKAA1AP72/2LvXX8f6Utfh0HRg5EEUAIlGqOWqdUjOd3vVVaDuj4rsb4uVWFXxaXc74JMA7JS1oJ35UVFzNW4mdRdl42v24pr3u3DFjs2VnbrNnY/7Xc7PUrovrOfdlBBmqarBjGELIXjcD7OFyEh2DSQdiMrgk0VSAD0H/nP+PG//NfY84u/ip23HURRTEFJqHN++E26SYf4jaJ8y1+Zt1OUWtmAXKGcHRHlVB26YgMg9rs7r5saVYMkSl3fRnuMf3xdXG642ACD9cprFRt9fYeEm3t/1S3o7uc/Zv0bZyCC2xewbnqRugELhLQNCjbScqyFLUcmPSArIEs/wDO//6vY/c4PQLZshxIDLU4nNlVgtYCLu1Q2mmCjLQDKRkOQK4GIghIBcg2IhhKJb8DQArniQgVWaqrAuQVGW8p6NoobIb7Xu9HeTBHgL+O0kde7G7c/hUcdoTqJhWtaBnfReTe+UPhxhbf7vekgCELWGwo20nKU82GAogMkBfTpH+KZL/xHXPNPfwNF0kGe9FvXdyv0gAfgr9g+9PauGNWMAKowK1bDpsjIVzWBQJhEVIQEQdMpEdzfi3IeuaLxpKuh6UN8C4sfJhSfv4Xm7IuVLRSXWxa3TOej71SVmFgPMRdyd1ZZrtx+aW74ukENTSzksWuiSd7HPTe0wpHzBQUbaS1iZ/mXob/QYBFGgGTQQYEC80ceg3rdK4E0R5opaHt4wwf1Wo5pQqVwEPunWLGKFaVPtICgrwr0IRUbMFDD75kSFACWAQw0kDcUrqG+PmtpxP16s/HXWV18YeuG81eN8MOE9q+lDE1doHXhz7cFpon7dj0JCSb3t9D/oWlB3O/2GLdvnH+M++kep5RCkiQjn+7x7mS6tJKRCwWOEiWtpVBAWvQB9AFoCHJoGMiWHfiZt/w9LL/4OmSnZqAyjYHuAkUfkAJiJ5MNsNGjBe3Dv9frod/vBy1GNmfi/l8IRGkUUiAzBTKjkYlxjhqlAGBWyqKHa1uhrxRS2QmIlA1S1RqLvjXIL0MTqhrn0OoPTeIK5afs/ycy0igD59bMFJFVItQNE4rbJ8/zMoxbh+6kx1X9sdI0XVWWpvW5VveuFU1Jkkw0r1tocIQv4v0RnHb9V3dgQCxuNw3/OvEHKtRZvUL932xe7Xmy136WZdGBB34+qq7n2AuYveaq7jVC1gMKNtJaCgF6+SJgFgEFFBoo8gJ60MfywhKOf+tPcfxPfg/IFqFMUrpEjTE4cNsBvOxnXg7g3AoDtrFw515yP+2alFu3bsXBgwdrG6syn06Do5TC1NQU3vWud5VCYtWi0MM5OwClkWmFtBAUhSAXQUcKJFddjR/fey96WsWnZCsEymhIIdAwQF6gnwBzOsWeK67APe+9Z7hqQsSaYhuaPM+RJEnZqIkIbrzxRuzcuTN6XmxYG7c7k/xNN920SqQYY0YsML5Vw54fKzYOHjw4sj5oHa4Y27JlC973vvdFw9YJqKmpqZH0bfl8N16M6elpfOADHygFjLt8UWxxc7ccN9xwAw4ePFiZRkxE7N27F1dddRXuvvvukakw3GOrrG4igr179+KGG26oPc79rpRClmXYvXs3Dhw4gL179za24rn3XpIkeO973xsVjva7G87uz/Mc3W4XBw8eLONzRXzVvWzju+qqq3Dvvfeuqjf3meGHd58bFGxko6FgI61EA1goNP7Pv/rnwJwaihwNAAWK/iKO/c8/A7CEBDugdr4Cl+zYi1NH/hxAH3meY3Z2BnNzcwDCjUwItxGYm5urdRG6fXasq2V5eRkAMDs7i6mpqbKxz/PcWdhaABlORTJIFZIsR2pSDPICczLA4XwRf/TcYeRKw2gDHei5MGyIhpY1DYVCBJkC5ufncPDt+zE3Pw8U55YL8sPa/LsWEpv/xcXFsu6qsO5KV7AtLi4CAObn50tLT5Vgc+vcirbFxcUyP7bO3HiAUauaUgqDwaBstGdmZtDr9UasOfYzy7JKN5hSCseOHcPWrVvLiVhdK4pbf344AOh2uzh16hQ6nU5ppbO/uQ16yOqolEK/38f8/HxlvccE29mzZ6GUwpkzZ1ZZ+vy6DrnBRaQ893WCzQ2jtUa/34dSCvPz8zh16hTSNEWn0xl5SfLLbIxBlmXl+RsMBjhx4gSmp6fLY1x3eijfNr65uTkYY8rr1hVT9jh7zcTEbJZlWFhYWPVbqP5dEaiUwuzs7LqMBiakDuHGrW2bAkRrIyq9TKCMQEEMlJjhjGtiAElgZFrvkF0f+W158S3vESQdASDf+tY35NZb33ouLqWC32Pb008/3SyPTlzGGAEgSZLI008/HUxnJB+AKCiB0QI13KeVEmjIH/yH3xfThcBAoFc+/U1DkKx8T1b+V6kY05HP/tGDkiapKKWCm58fd1+SJHLHHXc0Kr/WWrTWI/vuuusuef/73y9Jkkin0xGllCRJIsaYMh2ttRhjRGstSqnyE4DMzc2V8fr5bXI+Hn74YUmSZGRfqOyx7ciRI+WxxhhJ07TMr91s/tzN/vaFL3yhrBO73y2/W15/01rLoUOHgvG7W6w8r371q+XQoUNl2kmSjGw2L/4+N4/XX3/9qvK6WyiM/fzqV78qt99+u6RpWtZT0/tHKSUzMzOilJI0Tcc67zb8k08+uepaduvJv/78enzwwQfHulb8++Dzn//8ujz7uHGLbbSwkVYiCpAix3SyjEWVI1FdIC8A5CggAIBCF8h2JJi6+rX48R//FnQxGPbtCliVNgu3Lw2AuDXP/pXyH0BpKMmhRCNfbpCYDVtOQzcAYJBogzzPKq0Ebt58i9s4dRc61lof7JJF/iLb/nJAIUtTqL+Yb1ULWU211qWL17ewhdLyca147kSuTfH7RNUd4+9fi5XGtV7GBgDUYV254+D271teXl7lGozVvW/hstsk/e9s14MkSTAYDEqLt70GQ+mF4oj9Vpf2uGEImQTacEkrUbKyvoEqIBrY/nO/gIGaWtE2w8liTUeh99Z7sPi1L0CKpXJUaVEUyCONji8w7P/+53pSNRpNjTznFYbP/WZ5sIu8+4u9F6pAMWYDUuUqriIktnyRE6vzungnaTit+9mNYxwRYEVeXR6tIPBHOIYGTCRJUrooN5p+v1/WQ5IkYwvA4DXqDRiIfQ+l59eTG78b3hiDTqfjdBs4F68xpnwJM8aU6dhPOzjEulgBBM95Xf79Uafub/7mHkuxRjYLCjbSSgSAATCVZehmwOW/8rtAd5vzu8JAbcfl7/nHOP3tL0MtL8E+N0XknNUqwiTCLPawD8XnPvTdCUVj6Q7jLP8bO2/ng5BYs4LNFVyx/lox3Ma9qYCyVM151rRhDaXn/++W0e1/FxIsvoDdjKkk3Lw1SavKAllnoarr71VlUbS4/SB9C6p/LflLWPlz51n8xeBD56sqPj9M6AVgrWuzEjIOdImS1pIBmOvmyBeA44NdgOpBYTgWtIBG99JX4pIzz0J0H1NKY1kEOQSC8NxdQDO3R10DE/rdn8LCfZA3nQxW5OJ6+E9qsXNHVsbcaFXiYa0Wj5ClLJZXn9C8cX6eNtIi44oz38q5GZYgV7Rb/PK7burYb27Yqu9VZfLj8t3jsby7+bL/x7oKuO57QjYaCjbSaowMJ4VN1AyA/kr/fAAKmN61G50fPoliYLCAonSjiioaL6fpP/jHaQD83+xnqNG6WIlZ2ez3UB24riTfmmLjdKdhGYfzXe9VFqqqYzYrL2sNUyea3PMZskoC8fnegNEpeKqIuVZdgeXPnedba0NCOrYvVjc/Dfc4aQ8UbKS1KAC6fCCeE2T2R9EGIlsBZQC1DeqK3UiWMijkEy3PBFT3cYs1RrF+Mm64UFz+94uB9XD1+Y3seqW/GXUdnCjZczeG8rFRLtKQIN6odGwHf9vXDDg3wCS0EHyoXmL5r9ofux9997g7D95a68R/HhCyGVCwkdaioB034XAopIFCZq1sgw7OFCmw5/W47KO/jHTHDnS+/UUUMgWlJnuI1lnYqma7t8fY390385jAC4UlayNWj5vRsIYsNH6/tpilZj3OvxtPE2HoWp7Ww5Vs75GYZdVNN5R3K/rGcYva701dz3XlDL1kUZSRNsBBB6SlKAAGRQEYKEzlyxiusikoNAAIzs79BHNveBP2fPIz2LXrNSiefAY/+sqXYWQ4KKEy9jEax3GOrbIIVPXJ8r/HRqf5LseQ29AVCFWd991BEe6xFwOTlMMNExvVWGfB8/HXxgwdt5n17l6H7gvFWgVJ7Fq08buf9vgQ/tJia8EfwWun/UjT9LxO/UPIpNDCRlqKRoEcqhhKtxf+y+8C2VkMhj8BmaB3yaWYXlzAU4fegZNnT2JQCDppAqgMgBoet4b+wO7DPoQVZ25/GXdzGzDbQPhzksX67zSdjsHvF+TnuUo82nmq7Nxj62XlGYf1SM+vw/NBEyG3Ge7aWL/AzaKJ+KtygdZZsCfJiy8Y3f6T40BrGznfULCRdqIKAIIiB/paoP/bp6FEkKUACgWz7WW45t778Be//l5g9gVI10D3BUWRARAM1xFQZae3kGWpDtv53e0E7XeItg9vV4j5D3Ybj/0es6q5x9SNPIt1/rYNdVWj4jdg7hQHftx1+H36QvFUWRVtHLHjY1YZf+oPuwRYaNmhpoT6PjVxscXC2v/rwq+nWJ5UTFSJKJdQ/0vXUusuJxZze1bFHZvLzob1v/svLKG8+uKVgotcqFCwkXYiQ6dmAaxY2QrkBitWM40d7/lFPP6pXwKOPwNAw+QpsqIP36QWerCP0zhWNdx+Q2DjTJJkVT+iJmIo1uiPS1PBFvp/Pd1zVVae2Az0dpb6ujzEpqyYZKZ+F/88j2tV8dMex5KzUUJiMzrIu9Ysvw78yWWr7oX1nCKj7sWh7vjY74ScLyjYSEtRECXIAMAAJusB+TJUvgWCOZz6k08Deg4pEgwAiFoCAMSe91V9kdzGzLXa+MIuJPz8aQjcSTz9vmY2rdqSjymYfJdbXefuUHjfwlKVhzoxWDdJcJ1gtoI3ZGlxRyKOa8HxCeXBdWFbq10TseOKdRc7Cz8wOkoxJJLXWxC459JdrDyUTui8x+4B/3frWg+J5SbXfqhbQCj9urxU1UPofmxi/SSkTVCwkZYi55ZcyoGBWgYgAOaHbs7+cYgMV89UCkP3p7e8wThvzOO8jYcat6IoRiZNNcaUrsa6+ELxN5281c2/iCBNU3Q6nbJfWqhztcjo+p6uRW+c/MbqzzbcsUa0qnEtigL9fn9sl7CtL7t0kb+mqzsZb2xmfBtXbFmtmLvV/d/WvV+/oTpYLzeoG4e7PJTtW+m6j/0yuy8ptj9j1UuLL6jsPgDlElK+S9T9HroW6+7P2CTUfriQdbPq0ydk2a7LG4Ue2Uwo2MgFxMrDvpwVV87tF4Ph2gjDBqTT6aDX68VjqrFohMKGLFEASmEEAFu2bAEAdLtdAOcaTRvGF0QhK4JNv8oSYkWKDWsFgtYazz33HNI0rRR9rrh0rSBFUSBJksq6qyJJEhhjauveYq0zth6MMZienh5ZvN3FlscVoq57MgQAegAADrFJREFUdWZmphwN2GSFidD3rVu3jsQ5zjqgJ06cQJqm6PV6qwRAk3jGrXv32rFpdjodAOHRqDGBZF8SjDHltRuiysqcZVl57/mDP0Lnwoazn4PBoDx3fpp+WUPWwuXl5ZG68/PnD8Txz0+n08HU1FQZf6jM9v/QfUvxRjYaCjZyQROyUBRS4M4778T+/ftHLD2+69O1slgxpZTCjh07cOjQoahLNCQirEVrZmYGU1NTuO+++0rR1O12gxYOX6RlWYY8z/HGN76xTN891rXsWXFj89Pv95GmKU6dOoWbb74Zn/jEJ0YsPS6++8kVNwsLC7j++utx4403RuvcDW/Foo3rta99LZaXl/GKV7wC3W63bMT9tTRtvVnBZss6PT2N++67r2w40zTF4uJiaSlyhaklTVMsLy9jYWEB+/fvx/3334+tW7euatR9C5sti1vP27dvxwc/+EG86EUvWiUkY4LH/f/mm2/Gxz72MWzZsmWVGzI2YMXmLc9z7Nu3D8BQ8FeNeA2JmCRJsG/fPmzfvh1aa6RpOmJNDaXri47LL78cL7zwQuU0JH5cWmvMz8/jVa96Fe655x686U1vKi19rrXYrzv3fpqfn4eI4MMf/jC2bNlS5t0dxGCvF3uvumJ/YWEBe/bswcc//nFceumlpZW33++PhLXpuufSfr/uuuvwwAMPVOYztm9mZgbHjh3bENc2IS7CjVsbN6WUt2mB0gINURoCaFFKi0oSwc6XSOc1+2Xry18nX3v0m3Lrzx+ojTv225EjRyrD+Ply9yVJIkePHhWllGitBYB0Oh1J07T8TNNUjDFijBn5boyRJEnk05/+tKRpWplHPz8ARGstU1NT8pnPfKZM26bhbzY9G879vOOOOxqfIxvG5uHOO++Uu+++W4wxMj09Ld1uV7rdriRJIkmSjNSDmwe7nThxQnq9nqRpuiqdJElWldn9PU1Tefjhh8s8TbI99dRTI+Uad3vooYeCddM0vkOHDk2c96uuuko++tGPijFGtNailBJjTPB6jW3XXnvt2OkqpaTb7co3v/lNOXDggHQ6nfK8+mnbfGmtR64/rbXMzs6W95DNt71+kyQprwF77djPJEnKc9ftdmvvcRuve88BkM9+9rPB+9o9j6FyhM49N24bsdHCRi4IBApKDGAEUAKTAwZTWE5STN+0D9d+6F/g8MwlSL/1x1iCRl6oYee2SN8Zd5/rNrEWAdea5R4fcolaC5u1IljXkrUquX3ZfFxrj+vatP/H8u27RK0L0Vr0qtL2y1ZlQRkHm75N11o3fEumdce6Fgrf8umX1cZZRZZlwcXXx8G642IDBOqw7kgAE/VzWuu5cK1ZrhXJWqpC/bxCLj6bl9g++91e+7bfoYig3++PxO+n5+/3reDuVDqh/pX2uJAlrOlAgpClO9aHLZRnf9/5mv+P/HRBwUZajW0wNAQJBH3RgBhoUVjubcH2n38ftt+8D9/9tV/Byw99Ekf+15eQZndBFboUazaeKty+ZbEpJ3zcxsvtZO7HkWXZWGW2/XmaHOeS53kpkmz+QoSE0XrhurDcOnDTrhrYYEWrL+Ts8bE8u24yPz9++qHv7vGuUIkJyVD6rhiNxV8V1j9vMfdpVbzuFBq+2Ai5Jd34/N9i94D/f2yQRmxf7Lz79RA6zv/NPcafPqRu4I7v4vbTr8IXs2t9USCkCXwtIK1laLFRMACUaCgUSIoEMDsweOnVuPK3PoV07xX40W98FLveegDZ9/4MODMLkxYoinlAh61k/r5QulX7XcuXaxmwn75lrKnVxD70J102x4qWqhGaIdZLuIVEi93nWi1DosFtsEON7KR59C18IctMKIzbV8riT1cSEiKT5LNJnppg6z60HNZGU3e9N3lhitWDLzyrBJ1roY6l6VrxYnHX4YcJ9RUlZL2hhY20lq37bsfCX/4PYGkehVJYVj1ceuMduPK2O9HvFPj+f/8i1HceA3QPO37253D41z+CxBikkkCKuHWpjqoHvfsZexsPuWpi/8fcTuPiisQmjUdTi80k+QgJhVA5m8RlWYtgG/d4W4Zxp1VZC+txDmy+3VGR6yEEm2BHido68wctxOZnc5dwC00J4h5fVw5f9PsjkP0XLl+sufeQb+0M5cct23pO+EtIDAo20lrOvOSNMH/9V9BL8xBoJFv24NIDt+G7n/sd6GNPAZiDEYNtNx1A8uePAgunkUsGJcNVEpQMe2q6hFxt/v/uiMCQJc0XV24j5Tf4tiFyrV5ueH/iXZtGU7emm4/1cM+sR382vxF03XGxNELWlY1y21YRyu+FRpW1aqNQSpUjQ13rZMz9CYSvk7qXpTrGKXNMZPkvM1X3oIV92MhmQMFGWkoPWD4FdHrDxaZUgezsc/i7f/fPAF2gUAJdAJkxSO/4BfzNpx4AimxFoK1uECxNGoSYW6ZOzEzSqLiNa2hi1ro43cYOiA9U2EzqXJpVQixU7+eDC1Gs+dftZpbBFYhVFt5Yn0B/PdtJ8MO7/UpDn6EyNN3vi00KNrIZ8CojLWUK+P53sPPaa5FrDegMCosAcqAYTo4pUIDpYteuXTBLZ52LWaGcZHcCQuKtavOPdeOw1ho/rlhaQHPR5fejmWRVhY2mrj+gpWmeN0uMtqkOx2Ut1rVJ6necdPxr1aZpR1aHljQL9RkN4Yf1J8r1Xa+h8H4aftp+n0x3jjhCNhpa2Eg7UTkwdwbTe14MGA2gGFrPNIBiABSAqATp7teg8+wzKLQAhYIOPOzXC/+tusmx/vcqjDHlRLOxvjNNmNSVOEkjHxKovjWtLkwoDzFrSyxsLP21UCesY/kL1X/bBaCfv6r+mbEwNlzT8KFwdem7v8Wsde5xvuCy14fbjy3UPcLNa9VLh/2Ngo1sBhRspKX0gcU+Xn3TPhz94p8CODk0mgkANZwmw0Cw9dZ/iOf/8hEUWQ4FPbSryeQibSMsOHWNiusetcc3aQBiHfmbuGhsOLf/nNsHr6oe3IbMdux2+y7ZtP1Z6i1+nz63fmwY2w/Pd6/5qwe44d00q9xrVQM8mpS/7rc0TYMLoddRJerq+nitNf6qNMc5PiSQmuTLulL9QQtNLNIxAe0OOAhZv20exyV0HugSJZsBBRtpJ7IMzJ1C74qXAUpDD4DCCjbL9C7svu02/M0/+TeAmBUvaIG1uERDLpnNoq6PTV1YN99NxIIvFK04atqXyDaybpg8z8t552LzfsXmZ7NhbLhQGWJuX7cMdaNkq6xE7jJZk2DLfyFaXELX/aSire0WxXGpKxMFG9kMeJWRdqIEMAN89zO/DZ3NIClWJJjVYlpj+qVX45IXfggUOTQKqFVjQi9uYhaGtTaWaxGsax30MOkI1yZ9nJpwPuYwayPj1OPFJs5ihPqy2X2ch41sBrSwkfaS5zj+6NfQA2Dn/bfNiABIt3aA2WeBwkChD1Hi/Lp+jUiV5cEfoemH8d0v/rEht+BaRUfTPnZ+GfyZ4pvgTktihY7beTvknowNOLCuUHfiYHe5MNe1Fet35KYZo0nH9dCI3Sa47twLzcoWsjw2vRZFBFmWlW5NuzyaP0eZK4Td69QucWXTnMR9W1emut/9wUHu7+PEQ8hGQcFG2snK8y8H0Fcr/zrPRAWF4szzWHrmr4BigAIZlAIgemidWyeqLEZ1Vp0q11pVX5xYQ++m4wosX+hN2rhM4goMuTbrOqZXxRXra1SXt3HSbCIeJ3WL+mW4kFBqdFmwcUSbO3LSri3qxmGPibnClVKlK932ARzn5SXUn3Ec/Hz591STPp2EbDQUbKT1WPky8siUAjM/fAIzR54AJB+OMxBA4dwC45O8qRdFgaWlpXPJjNH4uo1G3fqK/m9+GkmSBJfO8dPzf1NKNVqHNJZ/d9H6ccMCw/rz3UN+R3TfkmetaHbwQmiAgltWd0Z8m7YdQDE/Pz9Wo+0fZ/MwqYtrfn5+ZOH4cbBlt+d+XGzd29HG4wrnTqezqg9nU9Hmu5Gr0otd87bO3fof5/61I6wnEcy2zn0ruNsnLxavMaZcx5eQjcTvxk1Ia7BNxMqSoCMXqgAQpYHinPtT6aEp7oYbbsDOnTvHSss+dIFRa0Gs43ysUbONVl2D74+kc5cSGndZJJ/QIug+rsixZXcb0jRNK+O34s4XWkmSjHTcT5KktJzU4eYpSZIyjtCyRv4oQnu81npiwWrjntQ1bfNq626SUaJWrITmCqsTIjZtt/y+AKkK794DPk1c7DYPvlU6ZtEM7ffPZ1PhZY+fRGi795y9Xl3Xu5vHUD10u10sLS3hscceu+Dc4OTCgoKNXJjYEQhybodS69Pp/nxS158s5GIK9adbj/THbXyaph9zQ5LJ59Bb7zxYzndeNouqem/S1aAN541c/FCwkYsKPjgJIYRcjFCwEUIIIYS0nJ/uyYYIIYQQQi4AKNgIIYQQQloOBRshhBBCSMuhYCOEEEIIaTkUbIQQQgghLYeCjRBCCCGk5VCwEUIIIYS0HAo2QgghhJCWQ8FGCCGEENJyKNgIIYQQQloOBRshhBBCSMuhYCOEEEIIaTkUbIQQQgghLYeCjRBCCCGk5VCwEUIIIYS0HAo2QgghhJCWQ8FGCCGEENJyKNgIIYQQQloOBRshhBBCSMuhYCOEEEIIaTkUbIQQQgghLYeCjRBCCCGk5VCwEUIIIYS0HAo2QgghhJCWQ8FGCCGEENJyKNgIIYQQQloOBRshhBBCSMuhYCOEEEIIaTkUbIQQQgghLYeCjRBCCCGk5VCwEUIIIYS0HAo2QgghhJCWQ8FGCCGEENJyKNgIIYQQQloOBRshhBBCSMuhYCOEEEIIaTkUbIQQQgghLYeCjRBCCCGk5VCwEUIIIYS0HAo2QgghhJCWQ8FGCCGEENJyKNgIIYQQQloOBRshhBBCSMuhYCOEEEIIaTkUbIQQQgghLYeCjRBCCCGk5VCwEUIIIYS0HAo2QgghhJCWQ8FGCCGEENJyKNgIIYQQQloOBRshhBBCSMuhYCOEEEIIaTkUbIQQQgghLef/A7e2kbl7SHO9AAAAAElFTkSuQmCC;" vertex="1" parent="1">
                    <mxGeometry x="54" y="110" width="620" height="427" as="geometry"/>
                </mxCell>
                <mxCell id="4" value="Canvas como funciona" style="text;strokeColor=none;fillColor=none;html=1;fontSize=24;fontStyle=1;verticalAlign=middle;align=center;" vertex="1" parent="1">
                    <mxGeometry x="314" y="60" width="100" height="40" as="geometry"/>
                </mxCell>
            </root>
        </mxGraphModel>
    </diagram>
</mxfile>